<svg width="44" height="43" viewBox="0 0 44 43" fill="none" xmlns="http://www.w3.org/2000/svg">
<g clip-path="url(#clip0_81_8171)">
<path d="M32.7438 21.5002L21.876 10.6323L11.0081 21.5002L21.876 32.3681L32.7438 21.5002Z" fill="#818181"/>
<path d="M40.3495 18.7016L24.6748 3.02686L21.8762 5.82545L37.5509 21.5002L40.3495 18.7016Z" fill="#667085"/>
<path d="M21.8758 32.3679L32.7437 21.5L21.8758 10.6321L11.0079 21.5L21.8758 32.3679Z" fill="#818181"/>
<path d="M24.6744 39.9731L40.3491 24.2983L37.5505 21.4997L21.8758 37.1745L24.6744 39.9731Z" fill="#344054"/>
<path d="M11.0081 21.4998L21.876 32.3677L32.7438 21.4998L21.876 10.6319L11.0081 21.4998Z" fill="#818181"/>
<path d="M3.40241 24.2989L19.0771 39.9736L21.8757 37.175L6.20101 21.5003L3.40241 24.2989Z" fill="#667085"/>
<path d="M21.8762 10.6321L11.0083 21.5L21.8762 32.3679L32.744 21.5L21.8762 10.6321Z" fill="#667085"/>
<path d="M19.0776 3.02643L3.40283 18.7012L6.20143 21.4998L21.8762 5.82503L19.0776 3.02643Z" fill="#344054"/>
</g>
<defs>
<clipPath id="clip0_81_8171">
<rect width="30.0831" height="30.0831" fill="white" transform="translate(21.876 0.228027) rotate(45)"/>
</clipPath>
</defs>
</svg>
