<svg width="43" height="44" viewBox="0 0 43 44" fill="none" xmlns="http://www.w3.org/2000/svg">
<g clip-path="url(#clip0_81_8050)">
<path d="M32.1398 21.9999L21.272 11.1321L10.4041 21.9999L21.272 32.8678L32.1398 21.9999Z" fill="#818181"/>
<path d="M39.7455 19.2014L24.0708 3.52661L21.2722 6.32521L36.9469 21.9999L39.7455 19.2014Z" fill="#2E90FA"/>
<path d="M21.2718 32.8679L32.1396 22L21.2718 11.1321L10.4039 22L21.2718 32.8679Z" fill="#818181"/>
<path d="M24.0704 40.4733L39.7451 24.7986L36.9465 22L21.2718 37.6747L24.0704 40.4733Z" fill="#344054"/>
<path d="M10.4041 22.0001L21.272 32.8679L32.1398 22.0001L21.272 11.1322L10.4041 22.0001Z" fill="#818181"/>
<path d="M2.79841 24.7986L18.4731 40.4734L21.2717 37.6748L5.597 22.0001L2.79841 24.7986Z" fill="#2E90FA"/>
<path d="M21.2722 11.1321L10.4043 22L21.2722 32.8679L32.14 22L21.2722 11.1321Z" fill="#2E90FA"/>
<path d="M18.4736 3.52668L2.79883 19.2014L5.59743 22L21.2722 6.32528L18.4736 3.52668Z" fill="#344054"/>
</g>
<defs>
<clipPath id="clip0_81_8050">
<rect width="30.0831" height="30.0831" fill="white" transform="translate(21.272 0.728027) rotate(45)"/>
</clipPath>
</defs>
</svg>
