<svg width="411" height="411" viewBox="0 0 411 411" fill="none" xmlns="http://www.w3.org/2000/svg">
<path d="M89.9352 140.883H79.1917C78.6676 140.883 78.1644 140.677 77.7908 140.309C77.4171 139.942 77.2029 139.442 77.1942 138.918V128.273C77.1942 126.317 76.7339 124.484 75.3858 123.629C75.1054 123.468 74.7899 123.379 74.4669 123.369C74.144 123.359 73.8236 123.429 73.5338 123.572C73.244 123.715 72.9937 123.926 72.805 124.189C72.6163 124.451 72.4948 124.755 72.4513 125.076C71.9499 128.224 70.4785 134.619 66.3685 138.597C64.9966 140.133 64.2005 142.097 64.1162 144.154V163.126C64.1162 164.984 67.4042 166.488 71.3498 166.488H87.6254C88.3746 166.488 89.1164 166.34 89.8085 166.054C90.5006 165.767 91.1295 165.347 91.6592 164.817C92.189 164.287 92.6092 163.658 92.8958 162.966C93.1825 162.274 93.3301 161.532 93.3301 160.783V158.317C93.3709 156.516 93.8446 154.751 94.7111 153.172C95.3176 152.006 95.6335 150.712 95.6317 149.399V146.579C95.6295 145.069 95.0287 143.621 93.9608 142.553C92.893 141.486 91.4454 140.885 89.9352 140.883Z" fill="#EBEBEB"/>
<path d="M61.9869 141.573H55.041V165.074H61.9869V141.573Z" fill="#EBEBEB"/>
<path d="M314.062 209.503L320.07 193.006C322.306 193.821 324.354 195.082 326.087 196.713C327.821 198.344 329.205 200.31 330.156 202.491L314.062 209.503Z" fill="#F5F5F5"/>
<path d="M314.061 209.503L319.182 226.297C316.767 227.034 314.222 227.241 311.72 226.905C309.217 226.569 306.817 225.697 304.682 224.348C302.547 223 300.728 221.207 299.35 219.092C297.971 216.977 297.064 214.589 296.692 212.092C296.32 209.595 296.49 207.047 297.192 204.621C297.894 202.196 299.111 199.951 300.76 198.038C302.409 196.126 304.45 194.592 306.746 193.54C309.041 192.489 311.536 191.945 314.061 191.945C316.081 191.944 318.086 192.291 319.988 192.973L314.061 209.503Z" fill="#E0E0E0"/>
<path d="M314.062 209.503L330.189 202.566C331.163 204.828 331.649 207.269 331.617 209.732C331.586 212.194 331.036 214.622 330.004 216.858C328.972 219.094 327.481 221.088 325.628 222.71C323.775 224.332 321.601 225.545 319.248 226.272L314.062 209.503Z" fill="#EBEBEB"/>
<path d="M128.454 221.463C126.473 224.477 125.079 227.838 124.344 231.368L118.812 231.894V242.58L124.344 243.098C125.077 246.632 126.472 249.995 128.454 253.012L124.944 257.286L132.522 264.865L136.789 261.33C139.805 263.312 143.168 264.707 146.702 265.44L147.22 270.972H157.906L158.432 265.44C161.963 264.705 165.323 263.311 168.337 261.33L172.611 264.865L180.19 257.286L176.656 253.02C178.641 250.006 180.036 246.642 180.766 243.107L186.306 242.589V231.903L180.766 231.377C180.035 227.845 178.64 224.483 176.656 221.472L180.19 217.197L172.62 209.61L168.345 213.145C165.333 211.16 161.972 209.766 158.44 209.035L157.914 203.494H147.228L146.71 209.035C143.175 209.764 139.811 211.159 136.797 213.145L132.531 209.61L124.944 217.189L128.454 221.463ZM162.599 227.217C164.586 229.204 165.938 231.735 166.486 234.49C167.034 237.245 166.752 240.101 165.677 242.697C164.602 245.292 162.782 247.51 160.446 249.071C158.11 250.631 155.364 251.464 152.555 251.464C149.745 251.464 146.999 250.631 144.664 249.071C142.328 247.51 140.507 245.292 139.432 242.697C138.357 240.101 138.075 237.245 138.623 234.49C139.171 231.735 140.524 229.204 142.51 227.217C143.828 225.898 145.394 224.85 147.117 224.136C148.84 223.421 150.687 223.053 152.553 223.052C154.418 223.051 156.266 223.418 157.99 224.131C159.714 224.844 161.28 225.89 162.599 227.209V227.217Z" fill="#F0F0F0"/>
<path d="M113.436 75.5173C110.229 80.4104 107.976 85.8656 106.795 91.5956L97.8184 92.4176V109.811L106.803 110.633C107.972 116.381 110.223 121.854 113.436 126.761L107.682 133.69L120.012 146.02L126.942 140.266C131.84 143.466 137.298 145.713 143.028 146.892L143.85 155.868H161.244L162.066 146.892C167.796 145.71 173.251 143.457 178.144 140.25L185.074 146.004L197.404 133.674L191.65 126.744C194.851 121.849 197.101 116.394 198.283 110.666L207.259 109.844V92.4422L198.283 91.6202C197.099 85.8912 194.846 80.4366 191.641 75.5419L197.395 68.6125L185.065 56.2825L178.136 62.0365C173.243 58.8294 167.788 56.576 162.058 55.3947L161.236 46.4185H143.85L143.028 55.3947C137.299 56.579 131.845 58.8322 126.95 62.0365L120.021 56.2825L107.691 68.6125L113.436 75.5173ZM168.847 84.8387C172.059 88.0604 174.244 92.1616 175.126 96.6243C176.008 101.087 175.548 105.711 173.804 109.912C172.06 114.114 169.11 117.704 165.327 120.23C161.543 122.756 157.096 124.104 152.547 124.104C147.998 124.104 143.551 122.756 139.768 120.23C135.984 117.704 133.034 114.114 131.29 109.912C129.546 105.711 129.086 101.087 129.968 96.6243C130.85 92.1616 133.035 88.0604 136.247 84.8387C138.385 82.6926 140.926 80.9898 143.724 79.8279C146.522 78.666 149.522 78.0679 152.551 78.0679C155.581 78.0679 158.581 78.666 161.378 79.8279C164.176 80.9898 166.717 82.6926 168.856 84.8387H168.847Z" fill="#F5F5F5"/>
<path d="M238.133 133.065C235.758 136.677 234.084 140.704 233.201 144.935L226.576 145.56V158.391L233.201 159.016C234.083 163.245 235.756 167.27 238.133 170.877L233.9 175.99L242.942 185.032L248.055 180.799C251.661 183.178 255.686 184.852 259.916 185.731L260.574 192.348H273.405L274.03 185.723C278.263 184.844 282.291 183.17 285.9 180.791L291.013 185.024L300.055 175.982L295.821 170.869C298.184 167.259 299.844 163.234 300.712 159.008L307.338 158.383V145.56L300.712 144.935C299.826 140.705 298.153 136.678 295.78 133.065L300.014 127.961L290.972 118.919L285.859 123.152C282.249 120.773 278.222 119.099 273.989 118.22L273.364 111.595H260.574L259.949 118.22C255.72 119.103 251.696 120.776 248.088 123.152L242.975 118.927L233.933 127.969L238.133 133.065ZM279.02 139.946C281.398 142.324 283.018 145.354 283.674 148.653C284.331 151.953 283.994 155.372 282.706 158.48C281.419 161.587 279.239 164.244 276.443 166.112C273.646 167.981 270.358 168.979 266.994 168.979C263.63 168.979 260.342 167.981 257.545 166.112C254.748 164.244 252.569 161.587 251.281 158.48C249.994 155.372 249.657 151.953 250.314 148.653C250.97 145.354 252.59 142.324 254.968 139.946C258.157 136.756 262.483 134.964 266.994 134.964C271.504 134.964 275.83 136.756 279.02 139.946Z" fill="#F0F0F0"/>
<path d="M82.3895 200.067C81.2013 201.905 80.3651 203.948 79.9235 206.092L76.5615 206.404V212.898L79.9235 213.219C80.3629 215.361 81.1993 217.401 82.3895 219.236L80.2441 221.825L84.8473 226.428L87.4448 224.283C89.2761 225.479 91.318 226.315 93.4618 226.749L93.7742 230.111H100.284L100.605 226.749C102.748 226.313 104.79 225.476 106.622 224.283L109.211 226.428L113.815 221.825L111.669 219.236C112.863 217.403 113.699 215.362 114.135 213.219L117.546 212.898V206.404L114.184 206.092C113.75 203.946 112.913 201.901 111.718 200.067L113.864 197.477L109.261 192.874L106.671 195.02C104.839 193.826 102.797 192.989 100.654 192.554L100.334 189.192H93.8235L93.5112 192.554C91.3674 192.987 89.3255 193.824 87.4941 195.02L84.8966 192.874L80.2934 197.477L82.3895 200.067ZM103.129 203.56C104.334 204.766 105.155 206.303 105.487 207.975C105.819 209.648 105.648 211.381 104.995 212.957C104.342 214.532 103.237 215.878 101.819 216.825C100.401 217.773 98.7345 218.278 97.0293 218.278C95.3241 218.278 93.6572 217.773 92.2394 216.825C90.8215 215.878 89.7163 214.532 89.0635 212.957C88.4107 211.381 88.2396 209.648 88.5718 207.975C88.9041 206.303 89.7247 204.766 90.9301 203.56C91.7309 202.759 92.6817 202.123 93.7282 201.69C94.7747 201.256 95.8965 201.033 97.0293 201.033C98.1622 201.033 99.2839 201.256 100.33 201.69C101.377 202.123 102.328 202.759 103.129 203.56Z" fill="#E0E0E0"/>
<path d="M314.169 102.569C312.976 104.402 312.14 106.444 311.703 108.586L308.341 108.907V115.409L311.703 115.729C312.14 117.872 312.976 119.913 314.169 121.746L312.015 124.344L316.618 128.947L319.216 126.794C321.049 127.986 323.09 128.823 325.233 129.26L325.554 132.622H332.088L332.409 129.268C334.552 128.831 336.593 127.994 338.426 126.802L341.024 128.955L345.627 124.352L343.473 121.755C344.666 119.922 345.502 117.88 345.939 115.738L349.293 115.417V108.915L345.931 108.594C345.494 106.452 344.657 104.41 343.465 102.577L345.619 99.9799L341.015 95.3767L338.418 97.5304C336.585 96.3378 334.544 95.5012 332.401 95.0644L332.08 91.7024H325.578L325.258 95.0644C323.115 95.5012 321.074 96.3378 319.241 97.5304L316.618 95.3521L312.015 99.9553L314.169 102.569ZM334.908 106.038C336.115 107.245 336.937 108.783 337.27 110.457C337.603 112.132 337.432 113.867 336.778 115.444C336.125 117.021 335.019 118.369 333.6 119.317C332.18 120.266 330.512 120.772 328.805 120.772C327.098 120.772 325.429 120.266 324.009 119.317C322.59 118.369 321.484 117.021 320.831 115.444C320.177 113.867 320.006 112.132 320.339 110.457C320.672 108.783 321.494 107.245 322.701 106.038C324.322 104.423 326.517 103.517 328.805 103.517C331.092 103.517 333.287 104.423 334.908 106.038Z" fill="#E0E0E0"/>
<path d="M322.783 160.405C322.044 161.531 321.526 162.786 321.254 164.104L319.19 164.293V168.288L321.254 168.485C321.526 169.801 322.044 171.054 322.783 172.176L321.459 173.771L324.287 176.59L325.873 175.275C327.001 176.01 328.255 176.529 329.572 176.804L329.761 178.859H333.732L333.929 176.804C335.244 176.529 336.495 176.01 337.62 175.275L339.214 176.59L342.034 173.771L340.719 172.176C341.453 171.052 341.972 169.8 342.248 168.485L344.303 168.288V164.293L342.239 164.104C341.964 162.787 341.445 161.533 340.71 160.405L342.026 158.819L339.206 155.991L337.611 157.314C336.489 156.576 335.236 156.058 333.921 155.786L333.732 153.714H329.737L329.548 155.777C328.231 156.048 326.979 156.567 325.857 157.306L324.262 155.983L321.434 158.811L322.783 160.405ZM335.507 162.551C336.247 163.291 336.751 164.234 336.955 165.261C337.159 166.288 337.054 167.352 336.653 168.319C336.253 169.286 335.574 170.113 334.704 170.695C333.833 171.276 332.81 171.586 331.763 171.586C330.716 171.586 329.693 171.276 328.822 170.695C327.952 170.113 327.273 169.286 326.872 168.319C326.472 167.352 326.367 166.288 326.571 165.261C326.775 164.234 327.279 163.291 328.019 162.551C329.013 161.559 330.359 161.003 331.763 161.003C333.167 161.003 334.513 161.559 335.507 162.551Z" fill="#F0F0F0"/>
<path d="M72.2128 261.24H59.5293V294.597H72.2128V261.24Z" fill="#E0E0E0"/>
<path d="M88.0194 271.844H75.3359V294.597H88.0194V271.844Z" fill="#E0E0E0"/>
<path d="M103.375 283.22H90.6914V294.597H103.375V283.22Z" fill="#E0E0E0"/>
<path d="M364.902 271.424H216.326C215.049 271.422 213.825 270.914 212.922 270.011C212.019 269.108 211.511 267.884 211.509 266.608V50.1914C211.511 48.9146 212.019 47.6906 212.922 46.7878C213.825 45.8849 215.049 45.3767 216.326 45.3745H364.902C366.179 45.3767 367.403 45.8849 368.306 46.7878C369.209 47.6906 369.717 48.9146 369.719 50.1914V266.608C369.717 267.884 369.209 269.108 368.306 270.011C367.403 270.914 366.179 271.422 364.902 271.424ZM216.326 45.58C215.103 45.5822 213.932 46.0687 213.067 46.9331C212.203 47.7974 211.716 48.9691 211.714 50.1914V266.608C211.716 267.83 212.203 269.002 213.067 269.866C213.932 270.73 215.103 271.217 216.326 271.219H364.902C366.125 271.219 367.298 270.733 368.163 269.868C369.028 269.004 369.514 267.831 369.514 266.608V50.1914C369.514 48.9684 369.028 47.7955 368.163 46.9307C367.298 46.0659 366.125 45.58 364.902 45.58H216.326Z" fill="#E0E0E0"/>
<path d="M193.573 271.424H45.0048C43.7265 271.424 42.5005 270.917 41.5958 270.014C40.6912 269.111 40.1819 267.886 40.1797 266.608V50.1914C40.1819 48.9132 40.6912 47.688 41.5958 46.7849C42.5005 45.8817 43.7265 45.3745 45.0048 45.3745H193.573C194.851 45.3745 196.076 45.882 196.979 46.7854C197.883 47.6887 198.39 48.9139 198.39 50.1914V266.608C198.39 267.885 197.883 269.11 196.979 270.014C196.076 270.917 194.851 271.424 193.573 271.424ZM45.0048 45.58C43.781 45.58 42.6073 46.0656 41.7411 46.9302C40.875 47.7947 40.3874 48.9677 40.3852 50.1914V266.608C40.3808 267.217 40.4971 267.821 40.7274 268.386C40.9576 268.95 41.2972 269.463 41.7266 269.895C42.156 270.328 42.6667 270.671 43.2293 270.905C43.792 271.14 44.3954 271.26 45.0048 271.26H193.573C194.179 271.26 194.778 271.141 195.338 270.909C195.897 270.677 196.406 270.338 196.834 269.909C197.262 269.481 197.602 268.973 197.833 268.413C198.065 267.854 198.185 267.254 198.185 266.649V50.1914C198.185 49.5859 198.065 48.9862 197.833 48.4267C197.602 47.8672 197.262 47.3589 196.834 46.9307C196.406 46.5025 195.897 46.1628 195.338 45.931C194.778 45.6993 194.179 45.58 193.573 45.58H45.0048Z" fill="#E0E0E0"/>
<path d="M411 321.624H0V321.83H411V321.624Z" fill="#E0E0E0"/>
<path d="M67.0753 338.434H53.874V338.639H67.0753V338.434Z" fill="#E0E0E0"/>
<path d="M195.43 336.206H151.429V336.412H195.43V336.206Z" fill="#E0E0E0"/>
<path d="M97.695 346.07H67.8975V346.276H97.695V346.07Z" fill="#E0E0E0"/>
<path d="M357.907 336.099H322.405V336.305H357.907V336.099Z" fill="#E0E0E0"/>
<path d="M370.435 336.099H365.231V336.305H370.435V336.099Z" fill="#E0E0E0"/>
<path d="M315.624 341.22H271.326V341.426H315.624V341.22Z" fill="#E0E0E0"/>
<path d="M373.542 382.501C373.542 384.663 298.304 386.422 205.5 386.422C112.697 386.422 37.459 384.696 37.459 382.501C37.459 380.306 112.697 378.572 205.5 378.572C298.304 378.572 373.542 380.331 373.542 382.501Z" fill="#F5F5F5"/>
<path d="M309.614 356.855C308.761 355.633 307.714 354.559 306.515 353.674C306.026 353.273 305.442 353.002 304.82 352.887C304.198 352.772 303.556 352.816 302.956 353.016C301.46 353.624 300.778 355.482 300.983 357.06C301.253 358.819 301.895 360.501 302.865 361.992C306.745 367.681 310.337 372.884 316.33 377.109C316.33 370.073 313.182 362.88 309.614 356.855Z" fill="#16B364"/>
<path d="M329.383 357.841C328.043 357.101 325.544 358.145 324.32 359.058C322.07 360.749 320.232 362.926 318.944 365.428C317.061 368.79 316.848 373.5 316.609 376.501C321.352 372.645 326.186 368.7 329.441 363.521C330.061 362.649 330.469 361.644 330.633 360.587C330.705 360.058 330.626 359.519 330.405 359.033C330.184 358.548 329.829 358.134 329.383 357.841Z" fill="#16B364"/>
<path d="M317.037 380.06C316.99 380.059 316.945 380.042 316.909 380.012C316.873 379.982 316.849 379.941 316.84 379.895C315.721 374.706 313.717 369.747 310.913 365.239C310.885 365.192 310.876 365.136 310.888 365.082C310.9 365.029 310.933 364.982 310.979 364.951C311.027 364.924 311.084 364.917 311.137 364.93C311.191 364.944 311.237 364.978 311.266 365.025C314.092 369.578 316.114 374.583 317.242 379.821C317.252 379.875 317.242 379.93 317.213 379.976C317.184 380.021 317.139 380.054 317.086 380.068L317.037 380.06Z" fill="#263238"/>
<path d="M316.412 377.158H316.346C316.295 377.14 316.253 377.102 316.23 377.052C316.207 377.003 316.205 376.946 316.223 376.895C317.489 373.403 319.353 370.157 321.731 367.302C321.748 367.281 321.769 367.264 321.793 367.251C321.817 367.238 321.843 367.23 321.871 367.228C321.898 367.225 321.925 367.228 321.951 367.235C321.977 367.243 322.001 367.256 322.022 367.274C322.043 367.291 322.061 367.312 322.074 367.336C322.087 367.36 322.095 367.386 322.097 367.414C322.1 367.441 322.097 367.468 322.089 367.494C322.081 367.52 322.068 367.544 322.051 367.565C319.7 370.381 317.859 373.586 316.61 377.035C316.593 377.073 316.565 377.105 316.53 377.127C316.495 377.149 316.454 377.16 316.412 377.158Z" fill="#263238"/>
<path d="M349.572 250.907L331.307 249.526L338.311 257.746L311.661 278.88L267.027 278.781L198.184 316.273H74.7692L28.4824 380.43H64.3463L89.7707 345.602H198.184L266.953 309.179L322.224 309.302L358.039 280.886L364.787 288.802L366.308 270.545L367.837 252.288L349.572 250.907Z" fill="#16B364"/>
<path d="M270.315 79.2111C277.404 73.2453 278.316 62.6619 272.35 55.5722C266.384 48.4826 255.801 47.5716 248.711 53.5374C241.621 59.5031 240.71 70.0866 246.676 77.1762C252.642 84.2658 263.225 85.1769 270.315 79.2111Z" fill="#16B364"/>
<path d="M251.088 76.4543L246.781 76.7996L246.033 82.1919L251.236 80.9096L251.088 76.4543Z" fill="#16B364"/>
<path d="M278.148 63.4173C278.099 63.4175 278.051 63.399 278.014 63.3654C277.978 63.3319 277.955 63.2859 277.951 63.2365C277.635 60.5535 276.664 57.9893 275.125 55.7692C273.585 53.5491 271.524 51.741 269.123 50.5037C269.075 50.4775 269.039 50.4339 269.022 50.3819C269.005 50.33 269.009 50.2735 269.033 50.2242C269.057 50.1769 269.099 50.1409 269.15 50.1241C269.2 50.1072 269.256 50.1107 269.304 50.1338C271.766 51.4031 273.878 53.2583 275.455 55.5359C277.032 57.8136 278.024 60.4439 278.346 63.1954C278.349 63.2219 278.347 63.2489 278.34 63.2747C278.332 63.3004 278.32 63.3244 278.303 63.3452C278.286 63.366 278.265 63.3831 278.241 63.3955C278.218 63.4079 278.192 63.4153 278.165 63.4173H278.148Z" fill="#16B364"/>
<path d="M278.255 68.3986H278.214C278.188 68.3928 278.163 68.3818 278.14 68.3662C278.118 68.3506 278.099 68.3308 278.085 68.3079C278.07 68.2849 278.06 68.2594 278.056 68.2326C278.051 68.2059 278.052 68.1785 278.058 68.152C278.244 67.3677 278.266 66.5534 278.124 65.76C278.114 65.7066 278.126 65.6516 278.157 65.6069C278.188 65.5623 278.235 65.5316 278.288 65.5216C278.315 65.5157 278.342 65.5153 278.369 65.5205C278.395 65.5256 278.421 65.5363 278.443 65.5517C278.466 65.5672 278.485 65.5871 278.499 65.6102C278.513 65.6333 278.523 65.6591 278.526 65.686C278.682 66.5335 278.659 67.404 278.461 68.2424C278.448 68.2873 278.421 68.3269 278.384 68.3551C278.347 68.3832 278.302 68.3985 278.255 68.3986Z" fill="#16B364"/>
<path d="M253.258 62.2585C252.749 63.0401 252.389 63.9098 252.198 64.8231L250.768 64.9629V67.7412L252.198 67.8727C252.389 68.7886 252.748 69.661 253.258 70.4456L252.354 71.5142L254.319 73.4788L255.42 72.5664C256.205 73.0761 257.077 73.4357 257.993 73.6267L258.124 75.057H260.903L261.043 73.6267C261.956 73.4356 262.826 73.076 263.607 72.5664L264.684 73.5117L266.673 71.5142L265.753 70.4456C266.269 69.6646 266.629 68.7908 266.813 67.8727L268.252 67.7412V64.9382L266.813 64.7985C266.629 63.8829 266.269 63.0118 265.753 62.2338L266.673 61.1241L264.684 59.1842L263.574 60.0966C262.793 59.587 261.923 59.2274 261.01 59.0362L260.87 57.606H258.108L257.977 59.0362C257.061 59.2273 256.188 59.5869 255.404 60.0966L254.31 59.1842L252.354 61.1488L253.258 62.2585ZM262.169 63.6888C262.693 64.2144 263.05 64.8838 263.195 65.6123C263.339 66.3408 263.264 67.0956 262.979 67.7816C262.695 68.4675 262.213 69.0537 261.596 69.4662C260.978 69.8786 260.252 70.0987 259.51 70.0987C258.767 70.0987 258.041 69.8786 257.423 69.4662C256.806 69.0537 256.324 68.4675 256.04 67.7816C255.755 67.0956 255.68 66.3408 255.825 65.6123C255.969 64.8838 256.326 64.2144 256.85 63.6888C257.199 63.3391 257.614 63.0616 258.07 62.8723C258.526 62.683 259.016 62.5856 259.51 62.5856C260.004 62.5856 260.493 62.683 260.949 62.8723C261.405 63.0616 261.82 63.3391 262.169 63.6888Z" fill="white"/>
<path d="M148.075 166.406C148.075 166.406 152.481 159.83 158.013 161.194C163.545 162.559 163.874 171.584 163.874 171.584L160.808 170.524C160.808 170.524 161.811 163.989 157.873 163.06C153.936 162.131 150.253 167.392 150.253 167.392L148.486 166.455" fill="#263238"/>
<path d="M119.289 197.748L120.966 193.392L133.115 161.885L179.92 176.023L170.196 213.86L119.289 197.748Z" fill="#16B364"/>
<path d="M158.77 151.988C158.055 152.226 154.043 157.043 153.238 158.416C152.432 159.788 152.342 160.684 152.958 161.153C153.407 161.549 153.918 161.868 154.471 162.098C154.66 162.098 153.805 163.52 154.89 164.227C155.975 164.934 156.534 164.794 156.534 164.794C156.534 164.794 156.254 166.874 157.668 167.441C159.082 168.008 159.699 167.343 159.937 167.441C160.175 167.54 161.449 165.123 161.449 165.123L163.093 167.671C163.692 167.019 164.201 166.289 164.606 165.501C165.362 164.079 165.313 160.068 165.313 160.068L164.557 156.476L165.839 151.322C165.839 151.322 159.6 150.5 159.551 150.623C159.501 150.746 158.77 151.988 158.77 151.988Z" fill="#E9B376"/>
<path opacity="0.2" d="M171.675 208.106L121.245 192.677L119.289 197.749L170.196 213.86L171.675 208.106Z" fill="black"/>
<path d="M281.996 157.068C281.996 157.068 282.168 157.626 281.502 158.712C280.837 159.797 279.39 159.04 279.398 159.229C279.187 159.787 278.89 160.308 278.519 160.775C278.075 161.408 277.171 161.35 275.765 160.61C274.359 159.871 269.378 156.056 269.115 155.358C269.115 155.358 267.857 154.659 267.709 154.618C267.561 154.577 268.153 148.313 268.153 148.313L273.348 149.365L276.907 148.461C276.907 148.461 280.919 148.239 282.366 148.938C282.62 149.053 282.851 149.176 283.064 149.3C283.244 149.402 283.395 149.549 283.503 149.725C283.611 149.902 283.672 150.103 283.682 150.31C283.691 150.517 283.647 150.723 283.555 150.909C283.463 151.094 283.325 151.253 283.155 151.371L282.119 152.111C282.119 152.111 283.138 152.662 283.853 153.089C284.084 153.222 284.271 153.42 284.391 153.658C284.511 153.896 284.558 154.164 284.527 154.429C284.52 154.539 284.495 154.647 284.453 154.749C284.382 154.928 284.245 155.072 284.072 155.155C283.898 155.237 283.7 155.251 283.516 155.193C283.55 155.555 283.457 155.916 283.253 156.216C283.049 156.516 282.747 156.736 282.398 156.837C281.946 157.002 281.996 157.068 281.996 157.068Z" fill="#E9B376"/>
<path opacity="0.1" d="M279.332 154.256C279.101 154.257 278.873 154.203 278.667 154.1C278.534 154.029 278.417 153.932 278.322 153.815C278.228 153.698 278.157 153.563 278.116 153.418C277.935 152.849 277.912 152.24 278.05 151.659C277.698 152.033 277.3 152.362 276.866 152.637C276.533 152.875 276.151 153.037 275.749 153.114C275.534 153.154 275.314 153.149 275.102 153.1C274.889 153.05 274.69 152.957 274.516 152.826C274.492 152.81 274.472 152.79 274.456 152.766C274.441 152.742 274.431 152.715 274.426 152.687C274.422 152.659 274.423 152.63 274.431 152.603C274.438 152.575 274.451 152.549 274.468 152.527C274.486 152.505 274.508 152.487 274.533 152.473C274.559 152.46 274.586 152.452 274.615 152.45C274.643 152.448 274.672 152.452 274.698 152.461C274.725 152.471 274.75 152.486 274.77 152.506C274.9 152.601 275.048 152.668 275.205 152.702C275.363 152.736 275.525 152.737 275.683 152.703C276.03 152.64 276.359 152.499 276.645 152.292C277.29 151.888 277.849 151.36 278.289 150.738C278.305 150.636 278.347 150.54 278.41 150.458C278.473 150.377 278.556 150.312 278.65 150.27C278.69 150.259 278.733 150.261 278.772 150.274C278.812 150.287 278.846 150.311 278.872 150.344C278.894 150.378 278.906 150.418 278.906 150.459C278.906 150.5 278.894 150.54 278.872 150.574C278.798 150.689 278.732 150.804 278.65 150.911C278.367 151.668 278.318 152.493 278.51 153.278C278.562 153.466 278.682 153.627 278.848 153.73C278.992 153.807 279.153 153.848 279.316 153.848C279.479 153.848 279.64 153.807 279.785 153.73C280.245 153.418 280.697 153.048 281.231 152.629L282.382 151.716C282.426 151.683 282.481 151.668 282.536 151.675C282.59 151.681 282.64 151.71 282.674 151.753C282.708 151.797 282.723 151.852 282.716 151.907C282.709 151.962 282.681 152.011 282.637 152.045C282.209 152.366 281.815 152.67 281.486 152.949C280.952 153.377 280.483 153.771 280.007 154.067C279.807 154.199 279.571 154.265 279.332 154.256Z" fill="#263238"/>
<path opacity="0.1" d="M276.374 160.339C276.136 160.316 275.916 160.204 275.757 160.027C275.413 159.689 275.107 159.314 274.845 158.909C274.7 158.736 274.598 158.531 274.548 158.311C274.498 158.091 274.501 157.862 274.557 157.643C274.628 157.472 274.74 157.322 274.884 157.206C275.027 157.09 275.197 157.011 275.379 156.977C275.704 156.92 276.038 156.934 276.357 157.018C276.686 157.084 277.01 157.171 277.327 157.281C277.236 157.156 277.153 157.024 277.081 156.887C276.936 156.675 276.864 156.421 276.876 156.165C276.888 155.908 276.983 155.663 277.146 155.465C277.327 155.344 277.536 155.27 277.753 155.252C277.97 155.233 278.189 155.269 278.388 155.358C279.604 155.711 280.778 156.196 281.889 156.805C281.936 156.832 281.97 156.876 281.985 156.928C282.001 156.98 281.996 157.036 281.972 157.084C281.959 157.108 281.941 157.129 281.92 157.146C281.899 157.163 281.875 157.176 281.849 157.183C281.823 157.191 281.796 157.193 281.769 157.19C281.742 157.187 281.716 157.179 281.692 157.166C280.606 156.574 279.46 156.1 278.273 155.752C278.001 155.67 277.623 155.588 277.451 155.752C277.278 155.917 277.311 156.352 277.451 156.673C277.676 157.092 277.997 157.453 278.388 157.725L278.815 157.972C278.859 158.002 278.89 158.047 278.902 158.099C278.914 158.151 278.906 158.205 278.881 158.251C278.856 158.297 278.815 158.331 278.766 158.346C278.717 158.361 278.664 158.357 278.618 158.333C278.463 158.262 278.314 158.176 278.174 158.079C277.582 157.757 276.944 157.527 276.283 157.396C276.013 157.337 275.732 157.337 275.461 157.396C275.346 157.415 275.237 157.461 275.144 157.531C275.051 157.602 274.976 157.694 274.927 157.799C274.897 157.959 274.903 158.123 274.946 158.28C274.989 158.436 275.066 158.581 275.174 158.703C275.411 159.079 275.687 159.428 275.996 159.747C276.152 159.895 276.267 159.961 276.349 159.945C276.376 159.939 276.403 159.938 276.43 159.943C276.456 159.949 276.482 159.959 276.504 159.975C276.527 159.99 276.545 160.01 276.56 160.033C276.574 160.056 276.584 160.082 276.587 160.109C276.597 160.162 276.585 160.217 276.554 160.262C276.524 160.307 276.476 160.337 276.423 160.347L276.374 160.339Z" fill="#263238"/>
<path opacity="0.1" d="M277.96 155.678C277.929 155.678 277.898 155.672 277.87 155.659C277.842 155.646 277.816 155.628 277.796 155.604C277.588 155.333 277.462 155.008 277.434 154.667C277.411 154.42 277.463 154.171 277.582 153.952C277.649 153.833 277.744 153.731 277.858 153.655C277.972 153.579 278.103 153.532 278.239 153.517C278.293 153.514 278.346 153.532 278.388 153.567C278.429 153.602 278.455 153.652 278.461 153.706C278.464 153.76 278.446 153.813 278.411 153.854C278.375 153.895 278.326 153.921 278.272 153.928C278.202 153.936 278.134 153.961 278.075 154.001C278.016 154.041 277.968 154.095 277.935 154.158C277.86 154.308 277.829 154.476 277.845 154.643C277.863 154.901 277.961 155.148 278.124 155.35C278.16 155.389 278.18 155.44 278.18 155.493C278.18 155.547 278.16 155.598 278.124 155.637C278.076 155.67 278.018 155.685 277.96 155.678Z" fill="#263238"/>
<path opacity="0.1" d="M283.459 155.358C283.424 155.366 283.388 155.366 283.352 155.358C282.401 154.734 281.387 154.211 280.328 153.796C280.278 153.776 280.238 153.737 280.216 153.688C280.195 153.639 280.194 153.583 280.212 153.533C280.222 153.508 280.236 153.484 280.254 153.465C280.272 153.445 280.295 153.429 280.319 153.419C280.344 153.408 280.37 153.402 280.397 153.402C280.424 153.402 280.451 153.407 280.475 153.418C281.56 153.837 282.596 154.371 283.566 155.013C283.589 155.026 283.61 155.044 283.626 155.066C283.642 155.087 283.653 155.112 283.659 155.138C283.666 155.164 283.666 155.191 283.662 155.218C283.657 155.244 283.647 155.27 283.632 155.292C283.61 155.316 283.583 155.334 283.553 155.345C283.524 155.357 283.491 155.361 283.459 155.358Z" fill="#263238"/>
<path d="M157.101 262.859L149.316 279.833L156.435 283.73L167.022 266.583L157.101 262.859Z" fill="#E9B376"/>
<path d="M150.895 278.995C151.364 280.384 153.493 281.37 154.808 281.148L155.564 279.825C156.345 278.781 157.036 278.469 158.17 279.283C158.729 279.677 159.082 280.803 158.992 282.151C158.854 283.424 159.006 284.711 159.436 285.916C159.436 285.916 163.398 291.547 165.025 293.199C165.995 294.177 167.253 295.558 167.417 297.251C167.464 297.8 167.445 298.352 167.36 298.895C167.23 299.395 167.036 299.875 166.784 300.326L153.041 292.878C152.63 292.165 152.098 291.528 151.471 290.996C151.144 290.845 150.785 290.778 150.426 290.801C150.068 290.824 149.72 290.936 149.416 291.128L144.401 288.456L145.223 286.434C145.437 285.9 145.675 285.283 145.93 284.634C147.024 281.847 149.037 278.88 149.35 278.123C149.876 276.718 150.895 278.995 150.895 278.995Z" fill="#263238"/>
<path d="M161.639 288.826C161.623 288.781 161.592 288.743 161.552 288.718C161.512 288.693 161.464 288.682 161.417 288.686C160.969 288.713 160.537 288.86 160.167 289.114C159.97 289.254 160.167 289.591 160.373 289.451C160.699 289.227 161.08 289.097 161.474 289.073C161.504 289.072 161.532 289.064 161.557 289.05C161.583 289.036 161.605 289.016 161.621 288.992C161.637 288.968 161.647 288.94 161.65 288.911C161.653 288.882 161.649 288.853 161.639 288.826Z" fill="#16B364"/>
<path d="M160.891 287.7C160.875 287.655 160.844 287.617 160.804 287.592C160.764 287.567 160.716 287.555 160.669 287.56C160.221 287.591 159.79 287.742 159.419 287.996C159.222 288.127 159.419 288.473 159.625 288.333C159.952 288.111 160.332 287.977 160.726 287.946C160.754 287.945 160.782 287.938 160.807 287.924C160.831 287.911 160.852 287.892 160.868 287.868C160.884 287.845 160.895 287.819 160.898 287.791C160.902 287.763 160.9 287.735 160.891 287.708V287.7Z" fill="#16B364"/>
<path d="M160.084 286.549C160.065 286.507 160.034 286.471 159.994 286.446C159.955 286.421 159.909 286.408 159.863 286.409C159.423 286.456 159.003 286.617 158.646 286.878C158.449 287.009 158.646 287.355 158.851 287.215C159.178 286.992 159.558 286.861 159.953 286.837C159.981 286.834 160.009 286.826 160.033 286.811C160.058 286.797 160.079 286.777 160.095 286.753C160.111 286.729 160.121 286.702 160.125 286.674C160.129 286.646 160.126 286.617 160.117 286.59L160.084 286.549Z" fill="#16B364"/>
<path opacity="0.2" d="M167.409 298.131C167.409 298.378 167.409 298.641 167.344 298.912C167.208 299.411 167.012 299.891 166.76 300.342L153.016 292.895C152.605 292.182 152.074 291.545 151.446 291.013C151.12 290.862 150.761 290.795 150.402 290.818C150.043 290.841 149.696 290.953 149.391 291.144L144.377 288.473L145.199 286.45L145.314 286.155L167.409 298.131Z" fill="white"/>
<path d="M159.526 286.919L159.683 286.557C159.89 286.044 160.141 285.549 160.431 285.078C160.74 284.58 161.177 284.174 161.696 283.902C161.834 283.817 161.99 283.769 162.151 283.762C162.313 283.755 162.473 283.789 162.617 283.861C162.756 283.966 162.861 284.109 162.921 284.272C162.981 284.435 162.992 284.612 162.954 284.782C162.905 285.062 162.801 285.329 162.647 285.567C162.493 285.806 162.293 286.011 162.058 286.171C161.377 286.501 160.652 286.728 159.904 286.845L159.526 286.919ZM162.239 284.174C162.112 284.178 161.989 284.212 161.877 284.272C161.426 284.511 161.045 284.866 160.776 285.3C160.564 285.639 160.377 285.993 160.217 286.36C160.789 286.271 161.343 286.094 161.861 285.834C162.05 285.707 162.212 285.543 162.338 285.352C162.463 285.162 162.55 284.948 162.592 284.724C162.592 284.543 162.592 284.305 162.444 284.215C162.384 284.176 162.31 284.161 162.239 284.174Z" fill="#16B364"/>
<path d="M159.978 287.018L159.682 286.771C159.081 286.308 158.557 285.753 158.129 285.127C157.998 284.875 157.92 284.6 157.898 284.318C157.877 284.035 157.914 283.751 158.005 283.483C158.056 283.317 158.152 283.169 158.283 283.056C158.414 282.942 158.574 282.868 158.745 282.842C158.911 282.846 159.074 282.891 159.217 282.975C159.361 283.058 159.481 283.176 159.567 283.319C159.889 283.809 160.073 284.377 160.101 284.963C160.133 285.511 160.116 286.061 160.052 286.607L159.978 287.018ZM158.778 283.261C158.605 283.261 158.466 283.467 158.408 283.639C158.333 283.855 158.303 284.084 158.322 284.312C158.34 284.54 158.406 284.762 158.515 284.963C158.828 285.432 159.214 285.848 159.657 286.196C159.69 285.796 159.69 285.395 159.657 284.995C159.63 284.486 159.469 283.992 159.189 283.565C159.115 283.45 158.959 283.261 158.778 283.261Z" fill="#16B364"/>
<path d="M232.676 222.91L224.899 239.884L232.01 243.781L242.597 226.634L232.676 222.91Z" fill="#E9B376"/>
<path d="M226.469 239.046C226.946 240.435 229.067 241.421 230.382 241.199L231.138 239.876C231.919 238.832 232.618 238.52 233.744 239.333C234.303 239.728 234.657 240.854 234.566 242.202C234.427 243.472 234.579 244.756 235.01 245.959C235.01 245.959 238.98 251.598 240.6 253.25C241.57 254.228 242.827 255.609 242.992 257.302C243.037 257.85 243.021 258.402 242.942 258.946C242.803 259.444 242.607 259.924 242.359 260.377L228.615 252.929C228.204 252.216 227.673 251.579 227.045 251.047C226.718 250.896 226.359 250.829 226.001 250.852C225.642 250.875 225.294 250.987 224.99 251.178L219.976 248.507L220.798 246.485C221.011 245.951 221.25 245.334 221.505 244.685C222.598 241.89 224.612 238.931 224.932 238.174C225.45 236.736 226.469 239.046 226.469 239.046Z" fill="#263238"/>
<path d="M237.214 248.869C237.196 248.827 237.166 248.791 237.128 248.766C237.09 248.741 237.045 248.728 237 248.729C236.551 248.757 236.119 248.908 235.75 249.164C235.545 249.304 235.75 249.641 235.948 249.501C236.275 249.281 236.655 249.15 237.049 249.123C237.078 249.122 237.107 249.114 237.132 249.1C237.158 249.086 237.18 249.067 237.197 249.043C237.213 249.019 237.224 248.992 237.229 248.963C237.233 248.934 237.231 248.904 237.222 248.877L237.214 248.869Z" fill="#16B364"/>
<path d="M236.465 247.726C236.449 247.681 236.418 247.643 236.378 247.618C236.338 247.593 236.29 247.582 236.243 247.586C235.797 247.619 235.367 247.767 234.994 248.014C234.796 248.153 234.994 248.499 235.199 248.359C235.525 248.133 235.905 248 236.301 247.973C236.329 247.971 236.356 247.964 236.381 247.95C236.405 247.937 236.427 247.918 236.442 247.895C236.458 247.871 236.469 247.845 236.473 247.817C236.477 247.789 236.474 247.761 236.465 247.734V247.726Z" fill="#16B364"/>
<path d="M235.659 246.6C235.641 246.557 235.61 246.52 235.57 246.495C235.531 246.47 235.484 246.458 235.437 246.46C234.99 246.492 234.559 246.643 234.188 246.896C233.991 247.027 234.188 247.373 234.393 247.233C234.72 247.01 235.1 246.879 235.495 246.855C235.523 246.852 235.551 246.844 235.575 246.829C235.6 246.815 235.621 246.795 235.637 246.771C235.653 246.747 235.663 246.721 235.667 246.692C235.671 246.664 235.668 246.635 235.659 246.608V246.6Z" fill="#16B364"/>
<path opacity="0.2" d="M242.984 258.182C242.978 258.457 242.956 258.731 242.918 259.004C242.788 259.505 242.592 259.986 242.334 260.434L228.59 252.987C228.18 252.275 227.652 251.639 227.029 251.104C226.702 250.953 226.343 250.886 225.984 250.909C225.625 250.932 225.278 251.044 224.974 251.236L219.951 248.564L220.773 246.542L220.896 246.246L242.984 258.182Z" fill="white"/>
<path d="M235.093 246.97L235.249 246.608C235.458 246.092 235.711 245.594 236.005 245.12C236.312 244.625 236.746 244.222 237.263 243.953C237.404 243.875 237.562 243.833 237.723 243.833C237.884 243.833 238.043 243.875 238.184 243.953C238.323 244.057 238.429 244.2 238.489 244.363C238.549 244.527 238.56 244.704 238.521 244.874C238.472 245.154 238.367 245.421 238.213 245.659C238.06 245.898 237.859 246.103 237.625 246.263C236.948 246.597 236.225 246.825 235.479 246.937L235.093 246.97ZM237.805 244.216C237.678 244.223 237.554 244.26 237.444 244.323C236.99 244.559 236.609 244.915 236.342 245.351C236.13 245.69 235.943 246.044 235.783 246.411C236.34 246.314 236.88 246.137 237.386 245.885C237.576 245.758 237.738 245.594 237.864 245.404C237.989 245.213 238.076 244.999 238.118 244.775C238.118 244.594 238.118 244.356 237.97 244.266C237.923 244.235 237.869 244.218 237.814 244.216H237.805Z" fill="#16B364"/>
<path d="M235.552 247.068L235.257 246.822C234.655 246.36 234.13 245.805 233.703 245.178C233.574 244.926 233.497 244.651 233.476 244.368C233.455 244.086 233.49 243.802 233.58 243.534C233.622 243.372 233.712 243.227 233.838 243.118C233.965 243.009 234.121 242.941 234.287 242.923C234.453 242.906 234.621 242.939 234.767 243.018C234.914 243.098 235.033 243.22 235.109 243.369C235.431 243.86 235.618 244.427 235.651 245.013C235.676 245.562 235.657 246.112 235.594 246.657L235.552 247.068ZM234.352 243.312C234.171 243.312 234.04 243.517 233.974 243.69C233.903 243.907 233.876 244.135 233.894 244.363C233.912 244.59 233.976 244.811 234.081 245.013C234.396 245.481 234.782 245.897 235.224 246.246C235.257 245.847 235.257 245.446 235.224 245.046C235.196 244.537 235.035 244.043 234.755 243.616C234.706 243.526 234.541 243.312 234.352 243.312Z" fill="#16B364"/>
<path d="M188.131 168.715C188.131 168.715 186.233 177.601 189.011 185.385L178.087 224.841C178.087 224.841 149.407 274.655 150.27 274.868C151.133 275.082 165.066 283.401 165.066 283.401C165.066 283.401 192.899 240.221 196.935 234.475C200.971 228.73 217.575 184.736 217.575 184.736L188.131 168.715Z" fill="#263238"/>
<path opacity="0.3" d="M198.924 172.349C198.39 173.943 194.51 178.316 193.918 180.141C193.746 180.675 189.504 178.349 189.323 178.908C192.743 183.692 205.599 190.137 214.271 194.123C215.635 190.761 215.997 189.29 217.099 186.405C218.808 182.081 220.674 178.686 221.644 176.196C213.901 174.535 205.344 173.228 198.924 172.349Z" fill="black"/>
<path d="M266.567 180.396C255.807 174.897 226.346 167.31 226.346 167.31L227.579 158.539L192.957 151.708C191.275 155.64 189.901 159.697 188.847 163.841C184.022 184.695 205.287 187.219 209.504 187.49L247.973 194.345L227.653 231.5L241.89 236.983C241.89 236.983 260.303 209.224 269.123 194.345C272.535 188.534 269.493 181.892 266.567 180.396Z" fill="#263238"/>
<path opacity="0.3" d="M219.795 160.388L204.999 157.528L205.574 155.177L220.321 158.038L219.795 160.388Z" fill="white"/>
<path opacity="0.3" d="M221.439 158.26L227.448 159.468L227.11 161.868L220.962 160.61L221.439 158.26Z" fill="white"/>
<path opacity="0.3" d="M194.272 152.982L204.448 154.955L203.848 157.29L193.713 155.333L194.272 152.982Z" fill="white"/>
<g opacity="0.3">
<path d="M192.669 155.095L191.699 154.848L192.579 152.621L193.253 152.744L192.669 155.095Z" fill="white"/>
</g>
<path opacity="0.3" d="M226.371 167.228L208.961 162.172C209.314 162.279 220.329 164.638 226.576 165.748L226.371 167.228Z" fill="black"/>
<path opacity="0.3" d="M248.055 193.926L257.418 190.934C257.418 190.934 250.949 196.902 245.959 197.765L248.055 193.926Z" fill="black"/>
<path d="M192.497 101.106C191.831 101.106 169.678 116.798 166.563 120.563C163.447 124.327 157.241 152.226 157.241 152.226L165.552 154.298L175.687 127.591L194.593 117.949C194.593 117.949 199.13 109.301 199.254 108.907C199.377 108.512 192.497 101.106 192.497 101.106Z" fill="#16B364"/>
<path opacity="0.7" d="M192.497 101.106C191.831 101.106 169.678 116.798 166.563 120.563C163.447 124.327 157.241 152.226 157.241 152.226L165.552 154.298L175.687 127.591L194.593 117.949C194.593 117.949 199.13 109.301 199.254 108.907C199.377 108.512 192.497 101.106 192.497 101.106Z" fill="white"/>
<path d="M272.994 148.782L246.995 130.821C246.995 130.821 238.38 106.26 235.709 102.38C232.24 97.3412 225.631 97.0042 225.631 97.0042L229.642 117.99C229.642 117.99 231.968 126.374 234.196 132.399C236.489 138.581 237.377 141.943 243.008 145.288C247.891 148.19 268.745 155.974 268.745 155.974C268.383 155.818 272.994 148.782 272.994 148.782Z" fill="#16B364"/>
<path opacity="0.7" d="M272.994 148.782L246.995 130.821C246.995 130.821 238.38 106.26 235.709 102.38C232.24 97.3412 225.631 97.0042 225.631 97.0042L229.642 117.99C229.642 117.99 231.968 126.374 234.196 132.399C236.489 138.581 237.377 141.943 243.008 145.288C247.891 148.19 268.745 155.974 268.745 155.974C268.383 155.818 272.994 148.782 272.994 148.782Z" fill="white"/>
<path d="M191.075 151.322C191.075 151.322 189.299 151.207 189.94 149.604C190.554 148.402 191.427 147.352 192.497 146.53L193.944 136.181L192.497 101.106L198.974 99.4619L206.101 97.8179L209.142 95.0724L217.362 94.686L221.398 96.9219H225.64C225.64 96.9876 233.975 115.943 231.887 131.076C229.799 146.209 228.303 155.736 227.95 156.739C227.235 158.695 225.673 158.079 225.673 158.079L191.075 151.322Z" fill="#16B364"/>
<path opacity="0.7" d="M191.075 151.322C191.075 151.322 189.299 151.207 189.94 149.604C190.554 148.402 191.427 147.352 192.497 146.53L193.944 136.181L193.22 118.664L192.497 101.106L198.974 99.4619L206.101 97.8179L209.142 95.0724L217.149 94.686L221.423 96.9219H225.664C225.664 96.9876 234 115.943 231.912 131.076C229.824 146.209 228.328 155.736 227.974 156.739C227.259 158.695 225.697 158.079 225.697 158.079L191.075 151.322Z" fill="white"/>
<path opacity="0.1" d="M213.383 155.161C213.356 155.158 213.33 155.151 213.306 155.139C213.281 155.126 213.26 155.11 213.242 155.089C213.225 155.068 213.212 155.044 213.203 155.019C213.195 154.993 213.192 154.966 213.194 154.939C214.936 138.057 215.283 121.061 214.23 104.123C214.227 104.069 214.246 104.017 214.281 103.978C214.316 103.938 214.366 103.913 214.419 103.909C214.446 103.905 214.473 103.908 214.499 103.915C214.525 103.923 214.549 103.937 214.569 103.955C214.589 103.973 214.605 103.995 214.616 104.019C214.627 104.044 214.633 104.071 214.633 104.098C215.692 121.058 215.349 138.076 213.605 154.98C213.603 155.006 213.596 155.032 213.583 155.056C213.571 155.08 213.554 155.101 213.533 155.118C213.512 155.135 213.488 155.147 213.462 155.155C213.437 155.162 213.41 155.164 213.383 155.161Z" fill="#263238"/>
<path opacity="0.2" d="M195.274 123.735L195.505 129.194C195.505 129.194 209.824 118.623 212.66 115.088C216.326 110.534 216.605 108.019 216.605 108.019L195.274 123.735Z" fill="black"/>
<path d="M213.178 105.643L214.871 108.298C214.871 108.298 190.54 126.267 167.836 127.788L166.447 135.523L174.264 136.953C174.264 136.953 208.788 123.661 216.893 108.463L219.318 104.829L216.729 102.577L215.907 103.103L213.178 105.643Z" fill="#16B364"/>
<path opacity="0.2" d="M232.24 126.497C232.24 126.497 232.996 115.811 233.144 110.329C233.639 113.119 233.982 115.935 234.172 118.762C234.394 122.437 233.284 129.942 233.284 129.942L232.24 126.497Z" fill="black"/>
<path opacity="0.2" d="M206.487 98.2947C206.816 98.9112 212.085 105.627 212.085 105.627L216.335 102.659C216.335 102.659 212.644 106.712 212.619 106.769L211.526 106.876L206.487 98.2947Z" fill="black"/>
<path opacity="0.2" d="M216.729 102.577L219.901 103.967C220.497 102.638 220.987 101.263 221.365 99.8565C221.43 98.9852 221.365 97.5056 221.365 97.5056H221.792C221.99 98.9177 221.898 100.356 221.521 101.731C220.855 103.63 220.058 105.463 220.058 105.463L216.729 102.577Z" fill="black"/>
<path opacity="0.2" d="M246.995 130.805C247.234 132.514 246.173 134.824 245.277 136.296C246.354 135.893 247.571 135.408 248.089 134.389C248.606 133.369 248.993 133.295 248.911 132.153L246.995 130.805Z" fill="black"/>
<path d="M206.487 80.9669C206.487 80.9669 199.237 75.328 199.459 73.3387C199.681 71.3495 200.832 71.9167 200.832 71.9167C200.832 71.9167 198.21 67.2313 200.561 66.3188C202.912 65.4064 203.117 66.1955 203.117 66.1955C203.117 66.1955 202.016 62.3321 203.857 61.0827C205.262 60.121 205.953 61.9047 205.953 61.9047C205.953 61.9047 208.526 57.5234 211.822 57.4495C213.466 57.507 214.288 58.5263 214.124 59.7922V59.9566C214.124 59.9566 220.65 56.7836 223.815 58.477C226.98 60.1703 223.034 62.3321 223.034 62.3321C223.034 62.3321 229.487 61.3868 230.86 63.9761C231.953 66.0065 229.125 67.519 229.125 67.519C229.833 67.7512 230.494 68.1106 231.073 68.5793C231.454 68.9064 231.73 69.3378 231.867 69.8202C232.005 70.3026 231.998 70.8148 231.848 71.2934C231.697 71.7719 231.41 72.1958 231.021 72.5126C230.632 72.8294 230.159 73.0252 229.659 73.0757H229.602C229.265 73.0757 228.648 73.199 228.385 72.9688C228.385 72.9688 229.594 75.2704 227.226 76.1253C224.859 76.9802 223.609 74.2429 223.609 74.2429L206.487 80.9669Z" fill="#263238"/>
<path d="M209.323 96.1245C209.323 96.1245 209.57 92.7297 206.857 84.6165C206.857 84.6165 207.285 84.3946 207.285 84.3864C206.898 83.252 206.504 82.2081 206.134 81.2957L217.642 87.7566C217.486 90.3952 218.653 95.4341 219.286 97.5548L216.573 102.61L209.323 96.1245Z" fill="#E9B376"/>
<path opacity="0.2" d="M218.003 91.4062L211.468 90.2307C212.142 92.22 214.024 94.5216 218.537 94.5216C218.274 93.4995 218.095 92.4575 218.003 91.4062Z" fill="black"/>
<path d="M224.571 67.963C226.009 70.5029 226.724 76.183 222.532 75.1883C218.34 74.1937 222.105 63.5899 224.571 67.963Z" fill="#263238"/>
<path d="M205.78 75.8047C206.849 82.8986 207.309 86.9181 211.238 90.2308C217.149 95.2121 225.475 91.2583 226.552 83.9672C227.522 77.3912 225.615 66.9106 218.373 64.757C216.769 64.2707 215.067 64.2015 213.428 64.5558C211.789 64.9101 210.268 65.6763 209.007 66.782C207.747 67.8877 206.789 69.2964 206.225 70.8752C205.66 72.4539 205.507 74.1505 205.78 75.8047Z" fill="#E9B376"/>
<path d="M216.187 76.9636C216.252 77.6952 216.688 78.2459 217.165 78.1966C217.642 78.1473 217.987 77.5226 217.913 76.791C217.839 76.0594 217.411 75.5087 216.935 75.558C216.458 75.6073 216.105 76.232 216.187 76.9636Z" fill="#263238"/>
<path d="M223.338 76.4459C223.404 77.1774 223.848 77.7364 224.325 77.6871C224.801 77.6378 225.147 77.013 225.073 76.2815C224.999 75.5499 224.563 74.9991 224.086 75.0402C223.61 75.0813 223.273 75.7472 223.338 76.4459Z" fill="#263238"/>
<path d="M220.979 76.2732C220.979 76.2732 223.609 79.7009 224.48 81.1066C223.543 82.1176 221.751 81.8464 221.751 81.8464L220.979 76.2732Z" fill="#D58745"/>
<path d="M214.238 73.1086C214.298 73.1221 214.36 73.1193 214.417 73.1005C214.475 73.0817 214.527 73.0476 214.567 73.0017C214.849 72.6748 215.203 72.4177 215.601 72.2508C215.999 72.0839 216.43 72.0117 216.861 72.04C216.951 72.052 217.042 72.0288 217.115 71.9752C217.189 71.9216 217.239 71.8418 217.255 71.7523C217.263 71.7078 217.262 71.6621 217.252 71.6181C217.242 71.5741 217.222 71.5327 217.195 71.4964C217.168 71.4601 217.134 71.4299 217.095 71.4074C217.056 71.385 217.012 71.3708 216.967 71.3659C216.423 71.3163 215.875 71.3979 215.368 71.6038C214.862 71.8098 214.413 72.1341 214.057 72.5496C213.994 72.6142 213.958 72.7013 213.958 72.7921C213.958 72.8829 213.994 72.97 214.057 73.0346C214.108 73.0785 214.172 73.1045 214.238 73.1086Z" fill="#263238"/>
<path d="M226.256 73.0429C226.319 73.0226 226.374 72.9822 226.412 72.9278C226.466 72.8541 226.489 72.7625 226.477 72.6721C226.464 72.5817 226.418 72.4996 226.346 72.4428C225.92 72.109 225.419 71.8832 224.887 71.7844C224.354 71.6857 223.806 71.717 223.288 71.8757C223.246 71.8912 223.207 71.9151 223.173 71.9459C223.14 71.9766 223.113 72.0137 223.093 72.0549C223.074 72.0962 223.064 72.1408 223.062 72.1862C223.06 72.2316 223.067 72.2769 223.083 72.3195C223.098 72.3612 223.122 72.3994 223.152 72.4318C223.183 72.4643 223.219 72.4905 223.26 72.5088C223.3 72.5272 223.344 72.5373 223.388 72.5387C223.433 72.5401 223.477 72.5326 223.519 72.5168C223.93 72.3948 224.366 72.3753 224.787 72.4598C225.208 72.5443 225.602 72.7303 225.935 73.0018C225.981 73.0343 226.035 73.055 226.09 73.0622C226.146 73.0693 226.203 73.0627 226.256 73.0429Z" fill="#263238"/>
<path d="M220.872 83.9014C219.704 83.5808 217.584 82.8985 216.482 81.8628C216.363 82.1249 216.277 82.4011 216.227 82.6848C216.122 83.1718 216.139 83.6773 216.277 84.1562C216.573 85.1344 217.477 86.1619 219.828 86.7126H219.869C219.869 86.7126 221.135 86.9839 221.644 84.0986C221.669 84.0986 221.357 84.0329 220.872 83.9014Z" fill="#263238"/>
<path d="M220.872 83.9015L220.461 84.7235C218.25 84.1974 216.762 83.5316 216.228 82.7014C216.277 82.4177 216.363 82.1415 216.482 81.8794C217.559 82.8987 219.705 83.5809 220.872 83.9015Z" fill="white"/>
<path d="M219.827 86.6963C217.476 86.1456 216.539 85.1181 216.276 84.1399C217.158 84.3681 217.993 84.7493 218.742 85.266C219.243 85.6193 219.622 86.119 219.827 86.6963Z" fill="#DC5753"/>
<path d="M208.148 81.2381C208.784 80.9311 209.32 80.4493 209.693 79.8489C209.936 79.2378 209.991 78.5678 209.849 77.9255C209.763 77.2506 209.64 76.581 209.479 75.9198C210.129 76.2157 210.877 75.6732 211.197 75.0402C211.594 74.0461 211.694 72.9582 211.485 71.9084C211.896 71.9814 212.319 71.9438 212.71 71.7993C213.102 71.6549 213.448 71.4088 213.713 71.0864C213.969 70.7588 214.102 70.3519 214.09 69.9361C214.078 69.5203 213.922 69.1218 213.647 68.8095C216.3 69.0519 218.975 68.7727 221.522 67.9875C221.357 68.3163 221.579 68.7108 221.817 68.9985C222.8 70.1658 224.178 70.9297 225.689 71.144C225.911 71.144 226.182 71.144 226.297 70.9796C226.349 70.8721 226.363 70.7508 226.338 70.6343C226.123 69.1842 225.346 67.8767 224.177 66.9929C223.002 66.14 221.69 65.4949 220.297 65.0858C218.027 64.266 215.647 63.7949 213.236 63.6884C210.819 63.5831 208.416 64.1011 206.257 65.1927C205.775 65.4147 205.351 65.7436 205.016 66.1544C204.733 66.5683 204.537 67.0353 204.44 67.5272C203.675 70.4767 203.463 73.5424 203.816 76.5692" fill="#263238"/>
<path d="M203.486 82.0027C203.833 82.8225 204.338 83.5656 204.972 84.1892C205.607 84.8128 206.359 85.3045 207.185 85.6359C209.413 86.5073 210.777 84.5673 210.383 82.3479C210.021 80.3423 208.427 77.4735 206.092 77.5557C203.758 77.6379 202.648 79.9559 203.486 82.0027Z" fill="#E9B376"/>
<path opacity="0.2" d="M208.386 81.9367C208.339 81.9358 208.294 81.919 208.258 81.8891C208.222 81.8593 208.198 81.8181 208.188 81.7723C208.068 81.1992 207.802 80.6668 207.416 80.227C207.119 79.8576 206.704 79.602 206.24 79.5036C206.028 79.4636 205.808 79.4875 205.609 79.5723C205.41 79.6572 205.241 79.7992 205.122 79.9804C205.11 80.005 205.093 80.0269 205.072 80.0445C205.051 80.0622 205.027 80.0754 205.001 80.0831C204.974 80.0908 204.947 80.093 204.92 80.0895C204.892 80.0859 204.866 80.0768 204.843 80.0626C204.819 80.0497 204.798 80.0322 204.781 80.0111C204.764 79.9901 204.751 79.9659 204.744 79.9399C204.736 79.9139 204.734 79.8867 204.737 79.8598C204.739 79.8329 204.748 79.8068 204.761 79.7831C204.92 79.5277 205.153 79.3262 205.429 79.2046C205.704 79.0829 206.01 79.0468 206.306 79.1008C206.86 79.2043 207.362 79.4944 207.728 79.9228C208.144 80.4222 208.427 81.0189 208.55 81.6573C208.56 81.7116 208.548 81.7677 208.518 81.8137C208.487 81.8597 208.44 81.892 208.386 81.9039V81.9367Z" fill="black"/>
<path d="M312.862 253.094L282.768 298.715C271.951 312.689 262.925 325.019 246.6 329.77L188.699 351.61C185.305 352.889 182.298 355.022 179.97 357.802C177.641 360.583 176.07 363.917 175.407 367.483L177.552 378.942H115.409C115.409 378.942 116.231 333.995 120.029 320.44C123.588 307.74 132.457 296.602 150.665 292.944C165.806 289.878 223.502 279.028 234.69 278.666C239.449 278.518 240.624 281.823 240.403 282.193L243.041 281.897C243.041 281.897 274.072 254.516 280.853 247.89C286.106 242.761 294.876 245.745 294.876 245.745C294.876 245.745 304.239 237.098 310.93 241.347C310.947 241.314 317.103 245.712 312.862 253.094Z" fill="#DB8C7E"/>
<path opacity="0.3" d="M240.402 282.16C244.052 292.583 235.018 299.027 224.497 303.893C213.975 308.76 187.605 317.481 187.605 317.481L186.783 322.125L191.222 318.558C191.222 318.558 212.906 310.872 227.39 304.124C236.596 299.841 239.884 296.364 241.413 292.813C242.663 289.842 242.869 286.536 241.997 283.434L241.668 281.864L240.402 282.16Z" fill="black"/>
<path opacity="0.3" d="M294.893 245.712C294.893 245.712 300.77 251.072 296.027 256.801C292.032 261.626 259.407 303.507 259.407 303.507L263.567 300.096C263.567 300.096 297.269 260.344 299.406 256.867C302.554 251.672 297.622 245.655 294.893 245.712Z" fill="black"/>
</svg>
