<svg width="436" height="317" viewBox="0 0 436 317" fill="none" xmlns="http://www.w3.org/2000/svg">
<path d="M392.313 294.503H363.433V294.717H392.313V294.503Z" fill="#EBEBEB"/>
<path d="M288.824 296.833H281.246V297.047H288.824V296.833Z" fill="#EBEBEB"/>
<path d="M362.56 286.553H345.827V286.767H362.56V286.553Z" fill="#EBEBEB"/>
<path d="M83.4068 287.992H45.7451V288.207H83.4068V287.992Z" fill="#EBEBEB"/>
<path d="M96.696 287.992H91.1763V288.207H96.696V287.992Z" fill="#EBEBEB"/>
<path d="M196.331 291.607H114.642V291.822H196.331V291.607Z" fill="#EBEBEB"/>
<path d="M207.885 242.515H39.5016C38.181 242.515 36.9146 242 35.9808 241.082C35.047 240.165 34.5225 238.921 34.5225 237.624V5.11356C34.534 3.82376 35.0636 2.59062 35.9961 1.68258C36.9287 0.774532 38.1886 0.265087 39.5016 0.265137H207.885C208.539 0.265137 209.186 0.391652 209.79 0.63746C210.394 0.883269 210.943 1.24356 211.406 1.69775C211.868 2.15195 212.235 2.69116 212.485 3.28459C212.735 3.87803 212.864 4.51406 212.864 5.15639V237.624C212.864 238.266 212.735 238.902 212.485 239.496C212.235 240.089 211.868 240.628 211.406 241.082C210.943 241.537 210.394 241.897 209.79 242.143C209.186 242.388 208.539 242.515 207.885 242.515ZM39.5016 0.43646C38.2396 0.438724 37.0299 0.932215 36.1375 1.80885C35.2451 2.68549 34.7428 3.87381 34.7405 5.11356V237.624C34.7428 238.863 35.2451 240.052 36.1375 240.928C37.0299 241.805 38.2396 242.299 39.5016 242.301H207.885C209.147 242.299 210.357 241.805 211.249 240.928C212.141 240.052 212.644 238.863 212.646 237.624V5.11356C212.644 3.87381 212.141 2.68549 211.249 1.80885C210.357 0.932215 209.147 0.438724 207.885 0.43646H39.5016Z" fill="#EBEBEB"/>
<path d="M396.499 242.515H228.115C226.795 242.515 225.528 242 224.595 241.082C223.661 240.165 223.136 238.921 223.136 237.624V5.11356C223.148 3.82376 223.677 2.59062 224.61 1.68258C225.542 0.774532 226.802 0.265087 228.115 0.265137H396.499C397.819 0.265137 399.086 0.780464 400.019 1.69775C400.953 2.61504 401.478 3.85915 401.478 5.15639V237.624C401.478 238.921 400.953 240.165 400.019 241.082C399.086 242 397.819 242.515 396.499 242.515ZM228.115 0.43646C226.853 0.438724 225.644 0.932215 224.751 1.80885C223.859 2.68549 223.357 3.87381 223.354 5.11356V237.624C223.357 238.863 223.859 240.052 224.751 240.928C225.644 241.805 226.853 242.299 228.115 242.301H396.499C397.761 242.299 398.97 241.805 399.863 240.928C400.755 240.052 401.257 238.863 401.26 237.624V5.11356C401.257 3.87381 400.755 2.68549 399.863 1.80885C398.97 0.932215 397.761 0.438724 396.499 0.43646H228.115Z" fill="#EBEBEB"/>
<path d="M436 280.72H0V280.934H436V280.72Z" fill="#EBEBEB"/>
<path d="M79.2473 173.412L65.9231 169.369C65.7304 169.3 65.5685 169.167 65.4659 168.993C65.3632 168.818 65.3263 168.614 65.3617 168.416C65.3971 168.217 65.5025 168.038 65.6594 167.908C65.8163 167.778 66.0146 167.707 66.2196 167.707L81.5843 168.504C77.9567 162.31 75.8116 158.438 73.37 153.59C73.2888 153.407 73.2755 153.201 73.3325 153.009C73.3894 152.817 73.5131 152.65 73.6819 152.538C73.8507 152.426 74.0541 152.376 74.2568 152.396C74.4594 152.416 74.6486 152.505 74.7914 152.648C78.0701 156.271 80.8169 159.209 85.2554 163.844C86.3018 157.847 87.5226 152.322 89.0399 146.78C89.0792 146.553 89.2087 146.35 89.4001 146.217C89.5914 146.084 89.8288 146.03 90.0601 146.069C90.2914 146.108 90.4975 146.235 90.6333 146.423C90.769 146.611 90.8232 146.844 90.7839 147.071C90.3762 151.536 90.2278 156.021 90.3391 160.503L90.7577 160.648C94.4434 156.514 98.3121 152.542 102.364 148.733C102.527 148.608 102.73 148.543 102.937 148.551C103.144 148.56 103.341 148.64 103.494 148.778C103.646 148.916 103.743 149.103 103.768 149.305C103.792 149.507 103.743 149.711 103.628 149.881C99.71 154.762 96.0906 159.868 92.7895 165.171C98.0563 163.218 103.352 161.325 108.677 159.492C108.878 159.436 109.093 159.452 109.283 159.538C109.472 159.624 109.624 159.774 109.711 159.96C109.798 160.147 109.813 160.358 109.755 160.555C109.696 160.752 109.568 160.922 109.392 161.034C103.873 164.109 98.4139 167.253 92.9639 170.508L107.012 174.902C107.206 174.972 107.369 175.106 107.472 175.282C107.574 175.458 107.61 175.665 107.572 175.864C107.534 176.064 107.426 176.244 107.266 176.372C107.106 176.5 106.904 176.568 106.698 176.564L92.2663 175.708C95.1177 178.989 97.0971 181.241 99.4079 183.786C99.5382 183.942 99.6081 184.138 99.6052 184.34C99.6024 184.542 99.5271 184.736 99.3926 184.889C99.258 185.042 99.0729 185.143 98.8699 185.174C98.6669 185.206 98.4591 185.166 98.2831 185.062C95.3793 183.169 92.8243 181.49 89.1096 179.066C89.4933 181.978 89.8159 184.205 90.2083 186.45C90.2302 186.651 90.1786 186.854 90.0627 187.021C89.9469 187.189 89.7743 187.311 89.5755 187.365C89.3768 187.42 89.1649 187.403 88.9774 187.319C88.7899 187.234 88.639 187.087 88.5515 186.904C87.5836 184.479 86.7029 182.072 85.5867 178.869C81.3924 198.571 82.4737 217.699 86.5285 237.298L81.5058 236.441C78.5454 217.19 79.3444 197.561 83.8602 178.603C81.3401 181.173 79.5002 183.083 77.7562 185.019C77.6083 185.161 77.4137 185.247 77.2072 185.262C77.0007 185.276 76.7958 185.218 76.6291 185.097C76.4623 184.977 76.3447 184.802 76.2971 184.604C76.2496 184.406 76.2753 184.198 76.3697 184.017C77.5556 182.081 78.8375 180.119 80.564 177.575C76.0732 178.543 73.0038 179.211 69.6117 179.965C69.4082 180.001 69.1982 179.965 69.0194 179.863C68.8405 179.761 68.7043 179.6 68.6352 179.409C68.566 179.217 68.5684 179.008 68.6418 178.818C68.7153 178.628 68.855 178.47 69.0362 178.372C72.0795 176.77 74.9919 175.399 79.2473 173.412Z" fill="#EBEBEB"/>
<path d="M72.1579 180.222L82.3952 174.894C82.6516 174.766 82.8507 174.55 82.9539 174.287C83.0572 174.023 83.0573 173.732 82.9541 173.468C82.851 173.205 82.652 172.988 82.3957 172.861C82.1394 172.733 81.844 172.704 81.5668 172.778L68.9315 175.87C70.9895 170.045 72.2887 166.122 73.5619 161.805C73.6399 161.539 73.6167 161.254 73.4965 161.004C73.3764 160.753 73.1676 160.554 72.9091 160.444C72.6506 160.334 72.3601 160.32 72.0919 160.405C71.8236 160.49 71.5961 160.668 71.4516 160.905C69.3763 164.332 67.3968 167.416 64.4756 171.964C62.7316 167.321 60.8917 163.013 58.9035 158.781C58.7787 158.528 58.5633 158.33 58.2988 158.224C58.0342 158.118 57.739 158.111 57.4699 158.206C57.2008 158.3 56.9767 158.489 56.8406 158.736C56.7044 158.983 56.6659 159.27 56.7323 159.543C57.6043 162.901 58.328 166.285 58.8861 169.6L58.5024 169.823C55.1888 167.287 51.7996 164.857 48.3349 162.533C48.0936 162.369 47.798 162.301 47.5076 162.342C47.2172 162.384 46.9537 162.532 46.7701 162.757C46.5865 162.982 46.4965 163.267 46.5183 163.554C46.5401 163.842 46.6719 164.11 46.8874 164.306C50.5381 167.59 54.0261 171.033 57.3514 174.637C52.8693 173.877 48.3785 173.152 43.879 172.461C43.5946 172.422 43.3057 172.488 43.0682 172.647C42.8306 172.805 42.6613 173.044 42.5929 173.318C42.5246 173.592 42.5621 173.881 42.6981 174.13C42.8342 174.378 43.0592 174.568 43.3296 174.663C48.3 176.376 53.2355 178.089 58.1536 179.914L47.2623 185.704C46.9952 185.829 46.7867 186.05 46.6797 186.321C46.5727 186.592 46.5751 186.893 46.6865 187.162C46.798 187.431 47.0099 187.649 47.2791 187.769C47.5482 187.89 47.8542 187.905 48.1343 187.812L59.8627 184.891C58.1187 187.812 56.8631 190.03 55.5027 192.24C55.3539 192.479 55.2995 192.762 55.3499 193.038C55.4003 193.313 55.5519 193.56 55.776 193.733C56 193.905 56.2808 193.991 56.5649 193.973C56.849 193.955 57.1165 193.836 57.3165 193.637L63.6559 187.546C63.7606 189.259 63.8478 190.784 63.9001 192.189C63.9116 192.47 64.0288 192.737 64.229 192.939C64.4293 193.14 64.6984 193.262 64.9844 193.28C65.2704 193.298 65.5531 193.211 65.778 193.037C66.0029 192.862 66.154 192.612 66.2022 192.335C66.4899 190.621 66.769 188.84 67.0742 186.707C74.9222 205.304 77.5382 224.278 77.2417 244.279L82.0115 242.481C81.262 223.024 76.746 203.886 68.7048 186.09C70.5186 187.34 72.0359 188.403 73.4223 189.405C73.6536 189.605 73.9563 189.706 74.2637 189.687C74.5711 189.668 74.8582 189.529 75.0617 189.302C75.2652 189.075 75.3685 188.778 75.3489 188.476C75.3293 188.174 75.1883 187.892 74.9571 187.692C74.0153 186.707 72.9776 185.662 71.783 184.462C75.271 184.556 77.9393 184.634 80.503 184.719C80.7853 184.725 81.0602 184.63 81.2762 184.452C81.4922 184.273 81.6344 184.023 81.6761 183.749C81.7178 183.474 81.6562 183.194 81.5029 182.961C81.3495 182.729 81.1149 182.559 80.8431 182.483C78.2968 181.807 75.6547 181.113 72.1579 180.222Z" fill="#F0F0F0"/>
<path d="M90.2344 191.033L82.5957 187.049C82.4204 186.956 82.2857 186.804 82.2167 186.62C82.1477 186.436 82.1492 186.234 82.2208 186.052C82.2924 185.869 82.4292 185.718 82.6057 185.628C82.7822 185.537 82.9864 185.512 83.1799 185.559L92.5888 187.863C91.0541 183.529 90.1036 180.65 89.1618 177.43C89.067 177.231 89.0565 177.003 89.1325 176.797C89.2085 176.59 89.3649 176.422 89.5673 176.329C89.7697 176.236 90.0014 176.225 90.2115 176.3C90.4217 176.375 90.593 176.528 90.6878 176.727C92.24 179.246 93.6962 181.558 95.8675 184.942C97.1842 181.473 98.5446 178.261 100.036 175.1C100.124 174.921 100.276 174.78 100.463 174.705C100.65 174.629 100.859 174.625 101.05 174.692C101.24 174.759 101.399 174.893 101.495 175.068C101.591 175.242 101.618 175.446 101.57 175.639C100.899 178.209 100.35 180.779 99.931 183.272L100.175 183.409C102.687 181.484 105.262 179.643 107.901 177.884C107.986 177.818 108.083 177.77 108.187 177.742C108.29 177.713 108.399 177.705 108.506 177.718C108.612 177.731 108.716 177.764 108.809 177.816C108.903 177.868 108.986 177.937 109.052 178.021C109.119 178.104 109.168 178.199 109.197 178.301C109.226 178.403 109.234 178.509 109.221 178.614C109.208 178.719 109.174 178.821 109.121 178.913C109.068 179.005 108.997 179.086 108.913 179.151C106.163 181.601 103.547 184.171 101.065 186.861C104.413 186.29 107.773 185.744 111.145 185.225C111.349 185.191 111.558 185.234 111.731 185.345C111.904 185.457 112.028 185.628 112.078 185.825C112.127 186.023 112.099 186.231 111.999 186.409C111.899 186.587 111.734 186.72 111.537 186.784C107.834 188.046 104.14 189.354 100.454 190.707L108.564 194.99C108.742 195.082 108.88 195.236 108.95 195.421C109.02 195.607 109.019 195.811 108.945 195.996C108.872 196.18 108.732 196.331 108.552 196.421C108.373 196.51 108.166 196.532 107.971 196.481L99.2509 194.305C100.533 196.506 101.501 198.151 102.503 199.821C102.6 199.989 102.633 200.185 102.595 200.374C102.557 200.563 102.452 200.732 102.298 200.851C102.144 200.97 101.951 201.031 101.756 201.023C101.56 201.015 101.373 200.938 101.23 200.807L96.539 196.275C96.4518 197.637 96.3907 198.802 96.3471 199.89C96.3436 200.092 96.2628 200.286 96.1207 200.432C95.9785 200.579 95.7855 200.667 95.58 200.68C95.3745 200.693 95.1716 200.629 95.0116 200.502C94.8516 200.375 94.7462 200.193 94.7165 199.993C94.4985 198.699 94.2805 197.312 94.0363 195.658C88.2985 209.218 86.4325 223.07 86.6243 237.632L83.1363 236.322C83.6834 222.136 86.9741 208.182 92.833 195.204C91.429 196.181 90.217 197.003 89.188 197.774C89.0242 197.902 88.8168 197.963 88.6084 197.946C88.4 197.928 88.2063 197.833 88.067 197.68C87.9277 197.526 87.8533 197.327 87.8591 197.121C87.8649 196.916 87.9503 196.72 88.098 196.575C88.8392 195.804 89.6414 194.982 90.5919 194.005L83.9996 194.193C83.7973 194.201 83.5991 194.135 83.4434 194.008C83.2876 193.881 83.1852 193.702 83.156 193.505C83.1267 193.308 83.1727 193.108 83.285 192.942C83.3973 192.777 83.568 192.658 83.7641 192.609C85.6215 192.215 87.5922 191.701 90.2344 191.033Z" fill="#F5F5F5"/>
<path d="M68.7049 280.574H94.7079C95.584 280.576 96.4276 280.249 97.0662 279.66C97.7049 279.07 98.0903 278.264 98.1436 277.405L100.899 233.341C101.021 231.396 62.3916 231.396 62.5311 233.341L65.2867 277.405C65.3398 278.261 65.7228 279.065 66.3577 279.654C66.9926 280.242 67.8318 280.572 68.7049 280.574Z" fill="#F0F0F0"/>
<path d="M67.144 178.766C66.8059 178.492 66.5432 178.139 66.3802 177.739C66.2172 177.34 66.159 176.906 66.2109 176.479L66.7952 171.596L65.461 173.866C65.2764 174.185 65.0244 174.461 64.722 174.676C64.4196 174.892 64.0738 175.041 63.7079 175.114C63.3419 175.187 62.9643 175.182 62.6004 175.1C62.2364 175.018 61.8947 174.86 61.598 174.637L58.982 172.701L61.3626 176.479C61.6965 177.002 61.8274 177.626 61.7313 178.236C61.6352 178.847 61.3186 179.403 60.8394 179.802L57.7612 182.372L60.7784 181.695C61.4179 181.548 62.0904 181.643 62.6623 181.96C63.2342 182.277 63.6636 182.794 63.8652 183.409L64.9029 186.527L65.5656 183.212C65.6375 182.861 65.7833 182.528 65.9936 182.236C66.2039 181.943 66.4742 181.697 66.787 181.513C67.0998 181.329 67.4483 181.212 67.8101 181.168C68.1719 181.124 68.539 181.155 68.888 181.259L70.9197 181.841L67.144 178.766Z" fill="#E6E6E6"/>
<path d="M84.4708 170.354C84.7188 170.155 84.9113 169.897 85.0303 169.605C85.1492 169.313 85.1908 168.996 85.1509 168.684L84.7237 165.112L85.7003 166.773C85.8349 167.006 86.0185 167.207 86.2389 167.364C86.4593 167.521 86.7112 167.63 86.978 167.684C87.2447 167.738 87.52 167.734 87.7854 167.675C88.0508 167.615 88.3002 167.501 88.5169 167.339L90.4265 165.925L88.6825 168.684C88.4414 169.066 88.3475 169.521 88.4178 169.965C88.4882 170.41 88.7182 170.815 89.0662 171.108L91.316 173.01L89.1098 172.513C88.6436 172.408 88.1545 172.479 87.7383 172.71C87.3221 172.941 87.0089 173.317 86.8601 173.763L86.1014 176.042L85.6131 173.618C85.5608 173.361 85.4549 173.117 85.3019 172.903C85.1489 172.688 84.9523 172.507 84.7245 172.371C84.4966 172.235 84.2425 172.147 83.9782 172.112C83.7139 172.078 83.4451 172.097 83.1889 172.17L81.7065 172.598L84.4708 170.354Z" fill="#F5F5F5"/>
<path d="M94.7513 190.801C94.9275 190.655 95.0642 190.468 95.1494 190.257C95.2346 190.047 95.2656 189.819 95.2397 189.594L94.9345 187.024L95.6321 188.214C95.7297 188.38 95.8622 188.524 96.0207 188.636C96.1791 188.748 96.36 188.825 96.5513 188.863C96.7425 188.901 96.9398 188.899 97.1301 188.857C97.3204 188.814 97.4994 188.733 97.6551 188.617L99.0241 187.598L97.7772 189.576C97.611 189.848 97.5471 190.168 97.5965 190.481C97.6458 190.794 97.8055 191.08 98.0475 191.29L99.6607 192.652L98.0824 192.292C97.7522 192.215 97.4047 192.26 97.1058 192.417C96.8068 192.575 96.5772 192.835 96.4605 193.148L95.9198 194.785L95.571 193.071C95.534 192.886 95.4581 192.711 95.3481 192.557C95.2381 192.402 95.0965 192.272 94.9323 192.174C94.7681 192.077 94.585 192.014 94.3947 191.99C94.2043 191.966 94.011 191.981 93.827 192.035L92.7632 192.343L94.7513 190.801Z" fill="#E6E6E6"/>
<path d="M335.406 69.3594H312.586C311.95 69.3594 311.435 69.8656 311.435 70.4901V74.8503C311.435 75.4747 311.95 75.981 312.586 75.981H335.406C336.042 75.981 336.557 75.4747 336.557 74.8503V70.4901C336.557 69.8656 336.042 69.3594 335.406 69.3594Z" fill="#F5F5F5"/>
<path d="M327.733 77.5659H304.912C304.277 77.5659 303.761 78.0722 303.761 78.6966V83.0568C303.761 83.6813 304.277 84.1875 304.912 84.1875H327.733C328.368 84.1875 328.884 83.6813 328.884 83.0568V78.6966C328.884 78.0722 328.368 77.5659 327.733 77.5659Z" fill="#F5F5F5"/>
<path d="M354.024 77.5659H331.203C330.568 77.5659 330.052 78.0722 330.052 78.6966V83.0568C330.052 83.6813 330.568 84.1875 331.203 84.1875H354.024C354.659 84.1875 355.175 83.6813 355.175 83.0568V78.6966C355.175 78.0722 354.659 77.5659 354.024 77.5659Z" fill="#F0F0F0"/>
<path d="M366.222 16.6521H341.876C341.24 16.6521 340.725 17.1583 340.725 17.7828V22.5456C340.725 23.1701 341.24 23.6763 341.876 23.6763H366.222C366.858 23.6763 367.373 23.1701 367.373 22.5456V17.7828C367.373 17.1583 366.858 16.6521 366.222 16.6521Z" fill="#F5F5F5"/>
<path d="M366.222 34.0757H341.876C341.24 34.0757 340.725 34.5819 340.725 35.2064V39.9692C340.725 40.5937 341.24 41.0999 341.876 41.0999H366.222C366.858 41.0999 367.373 40.5937 367.373 39.9692V35.2064C367.373 34.5819 366.858 34.0757 366.222 34.0757Z" fill="#F5F5F5"/>
<path d="M358.087 25.3552H333.741C333.105 25.3552 332.59 25.8615 332.59 26.486V31.2487C332.59 31.8732 333.105 32.3794 333.741 32.3794H358.087C358.723 32.3794 359.238 31.8732 359.238 31.2487V26.486C359.238 25.8615 358.723 25.3552 358.087 25.3552Z" fill="#F5F5F5"/>
<path d="M385.973 25.3552H361.627C360.991 25.3552 360.476 25.8615 360.476 26.486V31.2487C360.476 31.8732 360.991 32.3794 361.627 32.3794H385.973C386.609 32.3794 387.124 31.8732 387.124 31.2487V26.486C387.124 25.8615 386.609 25.3552 385.973 25.3552Z" fill="#F0F0F0"/>
<path d="M190.907 230.008L358.375 230.008V225.28L190.907 225.28V230.008Z" fill="#F5F5F5"/>
<path d="M357.127 230.008H394.641V225.28H357.127V230.008Z" fill="#EBEBEB"/>
<path d="M208.312 241.504V230.008H200.508L208.312 241.504Z" fill="#E0E0E0"/>
<path d="M204.414 241.504L196.61 230.008H200.508L208.312 241.504H204.414Z" fill="#FAFAFA"/>
<path d="M388.529 241.504V230.008H380.724L388.529 241.504Z" fill="#E0E0E0"/>
<path d="M384.622 241.504L376.826 230.008H380.724L388.528 241.504H384.622Z" fill="#FAFAFA"/>
<path d="M367.836 225.922H372.248C372.718 225.923 373.183 225.83 373.616 225.649C374.049 225.468 374.439 225.204 374.765 224.871C375.091 224.538 375.345 224.144 375.512 223.712C375.679 223.28 375.755 222.82 375.736 222.359L375.178 206.032H364.889L364.33 222.359C364.312 222.822 364.388 223.283 364.556 223.716C364.724 224.149 364.98 224.544 365.307 224.877C365.635 225.21 366.028 225.474 366.463 225.654C366.897 225.834 367.364 225.925 367.836 225.922Z" fill="#F0F0F0"/>
<path d="M349.125 215.582C352.946 211.829 352.946 205.743 349.125 201.99C345.304 198.236 339.109 198.236 335.288 201.99C331.468 205.743 331.468 211.829 335.288 215.582C339.109 219.335 345.304 219.335 349.125 215.582Z" fill="#F0F0F0"/>
<path d="M341.527 225.777H342.888V219.412H342.208C340.762 219.453 339.324 219.208 337.976 218.692C336.629 218.177 335.401 217.401 334.364 216.411C333.327 215.421 332.503 214.237 331.941 212.929C331.378 211.621 331.088 210.215 331.088 208.795C331.088 207.374 331.378 205.968 331.941 204.66C332.503 203.352 333.327 202.168 334.364 201.178C335.401 200.188 336.629 199.412 337.976 198.897C339.324 198.381 340.762 198.137 342.208 198.177V196.832C339.142 196.988 336.25 198.273 334.105 200.43C331.961 202.588 330.723 205.459 330.637 208.473C330.551 211.487 331.624 214.422 333.643 216.694C335.661 218.966 338.476 220.407 341.527 220.732V225.777Z" fill="#EBEBEB"/>
<path d="M336.461 225.922H348.094C348.094 225.241 347.818 224.587 347.328 224.105C346.837 223.623 346.172 223.353 345.478 223.353H339.06C338.366 223.353 337.701 223.623 337.21 224.105C336.719 224.587 336.444 225.241 336.444 225.922H336.461Z" fill="#EBEBEB"/>
<path d="M368.498 225.922L359.308 216.894L350.108 225.922H368.498Z" fill="#F5F5F5"/>
<path d="M359.308 216.894L368.499 225.922H359.308V216.894Z" fill="#E6E6E6"/>
<path d="M295.224 214.11C295.268 214.966 295.294 215.652 295.294 216.106C295.294 217.975 294.879 219.822 294.078 221.517C293.277 223.213 292.109 224.716 290.655 225.922H274.497C273.048 224.718 271.884 223.218 271.084 221.528C270.285 219.837 269.869 217.995 269.867 216.131C269.867 215.677 269.867 214.992 269.936 214.135L295.224 214.11Z" fill="#F5F5F5"/>
<path d="M292.992 221.142C292.991 222.053 293.193 222.952 293.583 223.778C293.973 224.603 294.542 225.335 295.25 225.922H303.098C304 225.168 304.673 224.184 305.043 223.078C305.198 223.106 305.356 223.12 305.514 223.121C307.092 223.121 308.853 221.888 308.853 220.243C308.853 218.598 307.842 217.365 306.333 217.365C305.984 217.368 305.637 217.423 305.304 217.528V217.416C305.3 217.018 305.135 216.637 304.846 216.358C304.556 216.079 304.166 215.923 303.761 215.926H294.561C294.358 215.921 294.156 215.956 293.967 216.029C293.778 216.102 293.606 216.21 293.46 216.349C293.314 216.488 293.197 216.653 293.117 216.836C293.036 217.02 292.994 217.217 292.992 217.416C292.992 219.138 292.992 220.543 292.992 221.142ZM305.287 222.145C305.349 221.814 305.382 221.479 305.383 221.142C305.383 220.68 305.383 219.746 305.383 218.573C305.7 218.427 306.044 218.349 306.394 218.341C307.824 218.341 307.938 219.806 307.938 220.26C307.938 221.322 306.647 222.179 305.575 222.179L305.287 222.145Z" fill="#EBEBEB"/>
<path d="M220.128 225.923L221.41 211.454H202.74L201.45 225.923H220.128Z" fill="#F0F0F0"/>
<path d="M220.128 225.923L221.41 211.454H222.421L221.131 225.923H220.128Z" fill="#E0E0E0"/>
<path d="M218.349 224.449L219.378 212.936H204.51L203.481 224.449H218.349Z" fill="#FAFAFA"/>
<path d="M217.215 223.498L218.07 213.878H205.652L204.789 223.498H217.215Z" fill="#EBEBEB"/>
<path d="M241.178 225.922H222.421L224.496 202.554H243.262L241.178 225.922Z" fill="#F0F0F0"/>
<path d="M241.178 225.922H242.076L244.16 202.554H243.262L241.178 225.922Z" fill="#E0E0E0"/>
<path d="M239.477 223.541H224.54L226.197 204.935H241.134L239.477 223.541Z" fill="#E0E0E0"/>
<path d="M238.388 222.008H225.909L227.296 206.469H239.774L238.388 222.008Z" fill="#FAFAFA"/>
<path d="M229.377 214.897L230.604 216.103C231.687 217.166 233.443 217.166 234.526 216.103L235.753 214.897C236.836 213.833 236.836 212.109 235.753 211.045L234.526 209.84C233.443 208.776 231.687 208.776 230.604 209.84L229.377 211.045C228.294 212.109 228.294 213.833 229.377 214.897Z" fill="#EBEBEB"/>
<path d="M228.775 219.369L229.38 219.962C230.462 221.026 232.218 221.026 233.301 219.962L233.905 219.369C234.988 218.305 234.988 216.58 233.905 215.517L233.301 214.923C232.218 213.859 230.462 213.859 229.38 214.923L228.775 215.517C227.692 216.58 227.692 218.305 228.775 219.369Z" fill="#E6E6E6"/>
<path d="M60.5082 59.1487H87.1566C87.7923 59.1487 88.3076 58.6424 88.3076 58.018V52.647C88.3076 52.0225 87.7923 51.5163 87.1566 51.5163H60.5082C59.8725 51.5163 59.3572 52.0225 59.3572 52.647V58.018C59.3572 58.6424 59.8725 59.1487 60.5082 59.1487Z" fill="#F5F5F5"/>
<path d="M74.0244 49.6917H100.673C101.308 49.6917 101.824 49.1854 101.824 48.5609V43.19C101.824 42.5655 101.308 42.0592 100.673 42.0592H74.0244C73.3887 42.0592 72.8733 42.5655 72.8733 43.19V48.5609C72.8733 49.1854 73.3887 49.6917 74.0244 49.6917Z" fill="#F5F5F5"/>
<path d="M43.7309 49.6917H70.3792C71.0149 49.6917 71.5303 49.1854 71.5303 48.5609V43.19C71.5303 42.5655 71.0149 42.0592 70.3792 42.0592H43.7309C43.0952 42.0592 42.5799 42.5655 42.5799 43.19V48.5609C42.5799 49.1854 43.0952 49.6917 43.7309 49.6917Z" fill="#F0F0F0"/>
<path d="M218 316.106C311.376 316.106 387.072 311.765 387.072 306.41C387.072 301.054 311.376 296.713 218 296.713C124.624 296.713 48.9277 301.054 48.9277 306.41C48.9277 311.765 124.624 316.106 218 316.106Z" fill="#F5F5F5"/>
<path d="M342.469 22.9568H291.457C282.485 22.9568 275.212 30.1017 275.212 38.9155V174.928C275.212 183.742 282.485 190.887 291.457 190.887H342.469C351.441 190.887 358.715 183.742 358.715 174.928V38.9155C358.715 30.1017 351.441 22.9568 342.469 22.9568Z" fill="#2E90FA"/>
<path opacity="0.3" d="M342.652 22.9568H291.274C282.403 22.9568 275.212 30.0212 275.212 38.7356V175.108C275.212 183.823 282.403 190.887 291.274 190.887H342.652C351.523 190.887 358.715 183.823 358.715 175.108V38.7356C358.715 30.0212 351.523 22.9568 342.652 22.9568Z" fill="black"/>
<path d="M358.715 31.1974V64.511H275.212V31.1974C275.212 29.0119 276.096 26.9158 277.669 25.3704C279.242 23.825 281.376 22.9568 283.601 22.9568H350.326C352.551 22.9568 354.685 23.825 356.258 25.3704C357.831 26.9158 358.715 29.0119 358.715 31.1974Z" fill="#2E90FA"/>
<path d="M298.834 40.8858C298.834 42.5305 297.596 43.5413 295.599 43.5413H293.855V45.6657H292.442V38.2131H295.608C297.596 38.2388 298.834 39.2411 298.834 40.8858ZM297.413 40.8858C297.413 39.9521 296.776 39.4038 295.538 39.4038H293.864V42.3677H295.512C296.776 42.3677 297.413 41.828 297.413 40.8858Z" fill="white"/>
<path d="M303.456 39.9434V41.2112C303.352 41.1999 303.246 41.1999 303.142 41.2112C302.911 41.1948 302.68 41.2284 302.464 41.3096C302.248 41.3907 302.053 41.5175 301.892 41.6809C301.732 41.8444 301.61 42.0405 301.535 42.2553C301.46 42.4702 301.434 42.6986 301.459 42.9244V45.6655H300.107V39.9776H301.398V40.8343C301.632 40.5221 301.945 40.2756 302.306 40.1193C302.667 39.963 303.064 39.9023 303.456 39.9434Z" fill="white"/>
<path d="M309.926 43.2757H305.383C305.47 43.69 305.709 44.0583 306.055 44.3097C306.401 44.5612 306.83 44.678 307.258 44.6377C307.55 44.6479 307.841 44.5984 308.113 44.4922C308.385 44.386 308.631 44.2255 308.836 44.0209L309.56 44.8775C309.121 45.3046 308.567 45.5999 307.963 45.7288C307.359 45.8578 306.73 45.815 306.15 45.6056C305.57 45.3962 305.063 45.0288 304.688 44.5463C304.312 44.0639 304.085 43.4865 304.032 42.8816C304.019 42.4941 304.088 42.1082 304.235 41.7481C304.381 41.388 304.602 41.0615 304.882 40.7889C305.163 40.5163 305.498 40.3036 305.866 40.164C306.235 40.0244 306.628 39.961 307.023 39.9777C307.417 39.9627 307.81 40.0289 308.176 40.172C308.543 40.3152 308.875 40.5321 309.151 40.8089C309.427 41.0856 309.64 41.4161 309.779 41.779C309.917 42.1419 309.976 42.5291 309.953 42.9159C309.953 42.9844 309.935 43.1472 309.926 43.2757ZM305.375 42.4191H308.688C308.646 42.0261 308.453 41.6637 308.149 41.4057C307.844 41.1478 307.451 41.0139 307.049 41.0313C306.647 41.0105 306.251 41.1391 305.941 41.3914C305.631 41.6437 305.429 42.0014 305.375 42.3934V42.4191Z" fill="white"/>
<path d="M320.94 42.436V45.6655H319.58V42.5731C319.58 41.5623 319.1 41.074 318.28 41.074C317.461 41.074 316.772 41.6479 316.772 42.7872V45.6655H315.42V42.5731C315.42 41.5623 314.941 41.074 314.112 41.074C313.284 41.074 312.604 41.6479 312.604 42.7872V45.6655H311.252V39.9776H312.543V40.7057C312.78 40.4436 313.073 40.2369 313.402 40.1005C313.731 39.9642 314.087 39.9017 314.443 39.9176C314.823 39.8926 315.203 39.9666 315.545 40.132C315.886 40.2975 316.177 40.5485 316.388 40.8599C316.654 40.5518 316.987 40.307 317.364 40.1438C317.74 39.9806 318.148 39.9033 318.559 39.9176C319.963 39.9433 320.94 40.7142 320.94 42.436Z" fill="white"/>
<path d="M322.483 38.2645C322.498 38.0479 322.597 37.8451 322.759 37.6972C322.921 37.5493 323.134 37.4673 323.355 37.4679C323.464 37.4597 323.574 37.4734 323.678 37.5082C323.782 37.5429 323.877 37.598 323.959 37.6701C324.04 37.7421 324.106 37.8297 324.152 37.9275C324.198 38.0252 324.224 38.1311 324.227 38.2388C324.227 38.466 324.135 38.6839 323.971 38.8445C323.808 39.0052 323.586 39.0954 323.355 39.0954C323.124 39.0954 322.902 39.0052 322.738 38.8445C322.575 38.6839 322.483 38.466 322.483 38.2388V38.2645ZM322.675 39.9777H324.026V45.6656H322.64L322.675 39.9777Z" fill="white"/>
<path d="M331.412 40.0032V45.6654H330.122V44.9459C329.89 45.2054 329.602 45.4114 329.279 45.5491C328.957 45.6868 328.607 45.7529 328.256 45.7425C327.914 45.7746 327.569 45.7308 327.247 45.6146C326.925 45.4983 326.633 45.3124 326.394 45.0707C326.155 44.829 325.974 44.5376 325.864 44.218C325.755 43.8984 325.72 43.5588 325.762 43.2241V39.9775H327.113V43.0956C327.113 44.1321 327.619 44.6204 328.474 44.6204C328.698 44.6302 328.922 44.5913 329.13 44.5063C329.337 44.4213 329.523 44.2924 329.673 44.1287C329.824 43.965 329.936 43.7707 330.002 43.5595C330.067 43.3483 330.084 43.1256 330.052 42.9072V40.0289L331.412 40.0032Z" fill="white"/>
<path d="M342.871 42.436V45.6655H341.519V42.5731C341.519 41.5623 341.039 41.074 340.22 41.074C339.4 41.074 338.711 41.6479 338.711 42.7872V45.6655H337.351V42.5731C337.351 41.5623 336.88 41.074 336.052 41.074C335.223 41.074 334.543 41.6479 334.543 42.7872V45.6655H333.191V39.9776H334.482V40.7057C334.719 40.4436 335.013 40.2369 335.342 40.1005C335.671 39.9642 336.026 39.9017 336.383 39.9176C336.763 39.8926 337.143 39.9666 337.484 40.132C337.826 40.2975 338.116 40.5485 338.327 40.8599C338.593 40.5518 338.927 40.307 339.303 40.1438C339.679 39.9806 340.088 39.9033 340.499 39.9176C341.903 39.9433 342.871 40.7142 342.871 42.436Z" fill="white"/>
<path d="M334.395 164.469H299.532C294.793 164.469 290.952 168.243 290.952 172.898V173.541C290.952 178.196 294.793 181.97 299.532 181.97H334.395C339.134 181.97 342.975 178.196 342.975 173.541V172.898C342.975 168.243 339.134 164.469 334.395 164.469Z" fill="#2E90FA"/>
<path d="M303.456 174.56C303.456 176.153 302.157 177.216 300.125 177.378L299.855 178.697H298.634L298.904 177.378C297.906 177.318 296.941 177.002 296.105 176.462L296.916 174.98C297.595 175.457 298.388 175.752 299.218 175.836L299.637 173.815C298.503 173.481 297.256 173.035 297.256 171.588C297.256 169.994 298.59 168.915 300.657 168.778L300.927 167.459H302.148L301.878 168.786C302.667 168.848 303.433 169.082 304.119 169.472L303.377 170.954C302.832 170.606 302.21 170.392 301.564 170.328L301.136 172.436C302.261 172.753 303.456 173.181 303.456 174.56ZM299.968 172.093L300.317 170.38C299.628 170.508 299.235 170.877 299.227 171.339C299.218 171.802 299.549 171.913 299.968 172.093ZM301.477 174.868C301.477 174.526 301.197 174.303 300.77 174.149L300.439 175.794C301.119 175.657 301.494 175.322 301.494 174.868H301.477Z" fill="white"/>
<path d="M337.612 128.663H294.509V130.376H337.612V128.663Z" fill="#2E90FA"/>
<path d="M337.612 100.531H294.509V102.245H337.612V100.531Z" fill="#2E90FA"/>
<path d="M337.612 73.4197H294.509V75.1329H337.612V73.4197Z" fill="#2E90FA"/>
<path d="M321.019 92.9682C323.948 90.0913 323.948 85.4268 321.019 82.5499C318.09 79.6729 313.342 79.6729 310.414 82.5499C307.485 85.4268 307.485 90.0913 310.414 92.9682C313.342 95.8451 318.09 95.8451 321.019 92.9682Z" fill="#2E90FA"/>
<path d="M321.079 86.1663L316.771 90.4065L314.757 92.3853L312.743 90.4065L314.757 88.4277L319.065 84.1875L321.079 86.1663Z" fill="white"/>
<path d="M316.771 90.4064L314.757 92.3851L310.484 88.1878L312.499 86.209L314.757 88.4276L316.771 90.4064Z" fill="white"/>
<path d="M315.716 122.307C319.858 122.307 323.216 119.008 323.216 114.94C323.216 110.871 319.858 107.573 315.716 107.573C311.575 107.573 308.217 110.871 308.217 114.94C308.217 119.008 311.575 122.307 315.716 122.307Z" fill="#2E90FA"/>
<path d="M321.079 113.346L316.771 117.587L314.757 119.565L312.743 117.587L314.757 115.608L319.065 111.368L321.079 113.346Z" fill="white"/>
<path d="M316.771 117.587L314.757 119.566L310.484 115.368L312.499 113.389L314.757 115.608L316.771 117.587Z" fill="white"/>
<path d="M315.716 151.457C319.858 151.457 323.216 148.159 323.216 144.09C323.216 140.022 319.858 136.723 315.716 136.723C311.575 136.723 308.217 140.022 308.217 144.09C308.217 148.159 311.575 151.457 315.716 151.457Z" fill="#2E90FA"/>
<path d="M321.079 142.497L316.771 146.737L314.757 148.716L312.743 146.737L314.757 144.758L319.065 140.518L321.079 142.497Z" fill="white"/>
<path d="M316.771 146.737L314.757 148.716L310.484 144.519L312.499 142.54L314.757 144.758L316.771 146.737Z" fill="white"/>
<path d="M305.889 52.7068L307.293 54.9083L309.857 55.5336L308.156 57.5295L308.339 60.125L305.889 59.1485L303.43 60.125L303.613 57.5295L301.913 55.5336L304.485 54.9083L305.889 52.7068Z" fill="white"/>
<path d="M315.716 52.7068L317.12 54.9083L319.692 55.5336L317.992 57.5295L318.175 60.125L315.716 59.1485L313.266 60.125L313.449 57.5295L311.749 55.5336L314.312 54.9083L315.716 52.7068Z" fill="white"/>
<path d="M325.552 52.7068L326.948 54.9083L329.52 55.5336L327.82 57.5295L328.003 60.125L325.552 59.1485L323.093 60.125L323.277 57.5295L321.576 55.5336L324.149 54.9083L325.552 52.7068Z" fill="white"/>
<path d="M244.36 13.397H193.348C184.376 13.397 177.103 20.5419 177.103 29.3557V165.368C177.103 174.182 184.376 181.327 193.348 181.327H244.36C253.332 181.327 260.606 174.182 260.606 165.368V29.3557C260.606 20.5419 253.332 13.397 244.36 13.397Z" fill="#2E90FA"/>
<path opacity="0.5" d="M243.82 13.397H193.889C189.437 13.397 185.168 15.1343 182.02 18.2267C178.872 21.3192 177.103 25.5134 177.103 29.8868V164.837C177.103 167.004 177.537 169.149 178.382 171.15C179.226 173.151 180.463 174.969 182.023 176.5C183.582 178.032 185.434 179.246 187.471 180.074C189.509 180.903 191.693 181.328 193.898 181.327H243.82C246.025 181.328 248.209 180.903 250.246 180.074C252.284 179.246 254.135 178.032 255.695 176.5C257.255 174.969 258.492 173.151 259.336 171.15C260.18 169.149 260.614 167.004 260.614 164.837V29.8868C260.614 27.7206 260.18 25.5756 259.336 23.5744C258.492 21.5732 257.255 19.755 255.695 18.2237C254.135 16.6924 252.284 15.4779 250.246 14.6497C248.209 13.8215 246.025 13.3958 243.82 13.397Z" fill="white"/>
<path d="M260.614 21.6803V54.9854H177.103V21.6803C177.103 19.4948 177.987 17.3987 179.56 15.8533C181.133 14.3079 183.267 13.4397 185.492 13.4397H252.217C254.443 13.4397 256.577 14.3076 258.152 15.8528C259.726 17.398 260.612 19.494 260.614 21.6803Z" fill="#2E90FA"/>
<path d="M194.325 35.3861L194.814 34.3154C195.531 34.8602 196.409 35.1609 197.316 35.172C198.493 35.172 198.999 34.7608 198.999 34.204C198.999 32.6021 194.482 33.6558 194.482 30.8803C194.482 29.6811 195.459 28.6532 197.543 28.6532C198.431 28.643 199.306 28.871 200.072 29.3128L199.627 30.3921C198.993 30.022 198.272 29.8212 197.534 29.8096C196.357 29.8096 195.886 30.255 195.886 30.8204C195.886 32.4051 200.386 31.3686 200.386 34.1098C200.386 35.3005 199.4 36.3284 197.316 36.3284C196.241 36.3465 195.189 36.0152 194.325 35.3861Z" fill="white"/>
<path d="M205.138 35.8231C204.756 36.0875 204.297 36.2228 203.83 36.2085C203.562 36.2495 203.288 36.2285 203.03 36.1472C202.772 36.066 202.536 35.9267 202.343 35.7404C202.149 35.5541 202.002 35.326 201.913 35.0742C201.825 34.8224 201.798 34.5538 201.833 34.2897V31.5571H200.883V30.4864H201.833V29.1843H203.176V30.4864H204.728V31.5571H203.176V34.2555C203.176 34.8123 203.455 35.1121 203.978 35.1121C204.25 35.117 204.516 35.0359 204.737 34.8808L205.138 35.8231Z" fill="white"/>
<path d="M211.102 32.8162V36.1484H209.82V35.4546C209.608 35.7242 209.329 35.9364 209.011 36.0712C208.692 36.2061 208.343 36.2592 207.998 36.2255C206.673 36.2255 205.835 35.5145 205.835 34.5123C205.835 33.5101 206.489 32.7991 208.242 32.7991H209.742V32.7134C209.742 31.9425 209.262 31.4799 208.303 31.4799C207.675 31.4762 207.062 31.6747 206.559 32.0453L206.01 31.103C206.728 30.6158 207.588 30.3695 208.46 30.4006C210.152 30.3834 211.102 31.163 211.102 32.8162ZM209.742 34.3752V33.6728H208.347C207.422 33.6728 207.17 34.0069 207.17 34.4266C207.17 34.8464 207.588 35.2147 208.277 35.2147C208.581 35.2374 208.885 35.1673 209.147 35.014C209.41 34.8607 209.617 34.6316 209.742 34.3581V34.3752Z" fill="white"/>
<path d="M218.541 32.8763V36.1314H217.18V33.0476C217.18 32.0368 216.675 31.5399 215.803 31.5399C215.576 31.5279 215.35 31.5651 215.14 31.6489C214.929 31.7326 214.741 31.8608 214.587 32.0244C214.432 32.188 214.317 32.3829 214.248 32.5953C214.18 32.8076 214.16 33.0323 214.189 33.2532V36.1228H212.838V30.4435H214.128V31.1802C214.379 30.9108 214.687 30.6995 215.031 30.5617C215.375 30.4239 215.746 30.3631 216.117 30.3835C216.451 30.3582 216.788 30.4063 217.101 30.5242C217.415 30.6422 217.698 30.8271 217.93 31.0657C218.162 31.3042 218.337 31.5903 218.443 31.9035C218.548 32.2166 218.582 32.5489 218.541 32.8763Z" fill="white"/>
<path d="M225.987 28.2334V36.1314H224.688V35.3862C224.451 35.6541 224.155 35.8658 223.823 36.0053C223.491 36.1448 223.13 36.2084 222.769 36.1914C221.983 36.1914 221.229 35.8845 220.673 35.3383C220.117 34.7921 219.805 34.0513 219.805 33.2789C219.805 32.5065 220.117 31.7656 220.673 31.2194C221.229 30.6733 221.983 30.3664 222.769 30.3664C223.118 30.3506 223.467 30.4108 223.789 30.5426C224.112 30.6744 224.401 30.8745 224.636 31.1288V28.2163L225.987 28.2334ZM224.653 33.2875C224.639 32.9519 224.526 32.6276 224.326 32.355C224.126 32.0824 223.849 31.8736 223.529 31.7543C223.21 31.6351 222.862 31.6108 222.528 31.6844C222.194 31.7581 221.89 31.9264 221.653 32.1685C221.416 32.4106 221.257 32.7158 221.195 33.0462C221.133 33.3765 221.172 33.7174 221.306 34.0265C221.439 34.3355 221.663 34.5992 221.948 34.7846C222.233 34.97 222.567 35.0689 222.909 35.0692C223.146 35.077 223.382 35.0358 223.602 34.9481C223.822 34.8603 224.021 34.7282 224.185 34.5601C224.35 34.3921 224.476 34.1919 224.557 33.9727C224.638 33.7534 224.67 33.52 224.653 33.2875Z" fill="white"/>
<path d="M232.615 32.8162V36.1484H231.333V35.4546C231.121 35.7254 230.843 35.9385 230.524 36.0735C230.205 36.2084 229.856 36.2608 229.51 36.2255C228.194 36.2255 227.356 35.5145 227.356 34.5123C227.356 33.5101 228.002 32.7991 229.763 32.7991H231.263V32.7134C231.263 31.9425 230.783 31.4799 229.815 31.4799C229.187 31.4743 228.573 31.673 228.071 32.0453L227.531 31.103C228.249 30.6158 229.109 30.3695 229.981 30.4006C231.647 30.3834 232.615 31.163 232.615 32.8162ZM231.263 34.3752V33.6728H229.859C228.935 33.6728 228.691 34.0069 228.691 34.4266C228.691 34.8464 229.1 35.2147 229.798 35.2147C230.102 35.2374 230.406 35.1673 230.668 35.014C230.931 34.8607 231.138 34.6316 231.263 34.3581V34.3752Z" fill="white"/>
<path d="M237.698 30.3835V31.6513C237.594 31.6396 237.488 31.6396 237.384 31.6513C237.149 31.6338 236.914 31.6682 236.694 31.7518C236.475 31.8354 236.277 31.9662 236.116 32.1345C235.954 32.3029 235.833 32.5046 235.762 32.7248C235.69 32.945 235.669 33.1783 235.701 33.4074V36.1656H234.35V30.4435H235.64V31.3001C235.873 30.9858 236.186 30.7362 236.546 30.5756C236.907 30.4149 237.304 30.3488 237.698 30.3835Z" fill="white"/>
<path d="M244.465 28.2334V36.1314H243.166V35.3862C242.929 35.6541 242.633 35.8658 242.301 36.0053C241.969 36.1448 241.608 36.2084 241.248 36.1914C240.461 36.1914 239.707 35.8845 239.151 35.3383C238.595 34.7921 238.283 34.0513 238.283 33.2789C238.283 32.5065 238.595 31.7656 239.151 31.2194C239.707 30.6733 240.461 30.3664 241.248 30.3664C241.597 30.35 241.945 30.4099 242.268 30.5417C242.59 30.6736 242.879 30.8741 243.114 31.1288V28.2163L244.465 28.2334ZM243.131 33.2875C243.117 32.9519 243.004 32.6276 242.804 32.355C242.604 32.0824 242.327 31.8736 242.008 31.7543C241.688 31.6351 241.34 31.6108 241.006 31.6844C240.672 31.7581 240.368 31.9264 240.131 32.1685C239.894 32.4106 239.735 32.7158 239.673 33.0462C239.611 33.3765 239.65 33.7174 239.784 34.0265C239.917 34.3355 240.141 34.5992 240.426 34.7846C240.711 34.97 241.045 35.0689 241.387 35.0692C241.625 35.0784 241.861 35.038 242.082 34.9508C242.302 34.8636 242.502 34.7314 242.666 34.5631C242.831 34.3948 242.958 34.1941 243.038 33.9742C243.118 33.7543 243.15 33.5203 243.131 33.2875Z" fill="white"/>
<path d="M236.992 154.909H202.129C197.39 154.909 193.549 158.683 193.549 163.338V163.981C193.549 168.636 197.39 172.41 202.129 172.41H236.992C241.731 172.41 245.572 168.636 245.572 163.981V163.338C245.572 158.683 241.731 154.909 236.992 154.909Z" fill="#2E90FA"/>
<path d="M240.218 119.103H197.115V120.816H240.218V119.103Z" fill="#2E90FA"/>
<path d="M240.218 90.9719H197.115V92.6851H240.218V90.9719Z" fill="#2E90FA"/>
<path d="M240.218 63.8599H197.115V65.5731H240.218V63.8599Z" fill="#2E90FA"/>
<path d="M225.305 107.072C226.256 103.112 223.76 99.1443 219.729 98.2097C215.698 97.2751 211.659 99.7275 210.708 103.687C209.756 107.647 212.253 111.615 216.284 112.549C220.314 113.484 224.353 111.032 225.305 107.072Z" fill="#2E90FA"/>
<path d="M223.38 103.795L219.064 108.027L217.049 110.006L215.035 108.027L217.049 106.057L221.366 101.816L223.38 103.795Z" fill="white"/>
<path d="M219.064 108.027L217.049 110.006L212.785 105.808L214.791 103.838L217.049 106.057L219.064 108.027Z" fill="white"/>
<path d="M221.534 141.337C225.36 139.78 227.177 135.471 225.592 131.712C224.007 127.953 219.621 126.168 215.794 127.725C211.968 129.282 210.151 133.591 211.736 137.35C213.321 141.109 217.707 142.894 221.534 141.337Z" fill="#2E90FA"/>
<path d="M224.034 132.937L219.718 137.177L217.703 139.156L215.689 137.177L217.703 135.198L222.02 130.958L224.034 132.937Z" fill="white"/>
<path d="M219.718 137.177L217.704 139.156L213.439 134.959L215.445 132.98L217.704 135.199L219.718 137.177Z" fill="white"/>
<path d="M218.009 85.5666C222.107 85.5666 225.429 82.3029 225.429 78.2768C225.429 74.2508 222.107 70.9871 218.009 70.9871C213.91 70.9871 210.588 74.2508 210.588 78.2768C210.588 82.3029 213.91 85.5666 218.009 85.5666Z" fill="#263238"/>
<path opacity="0.5" d="M218.009 85.5666C222.107 85.5666 225.429 82.3029 225.429 78.2768C225.429 74.2508 222.107 70.9871 218.009 70.9871C213.91 70.9871 210.588 74.2508 210.588 78.2768C210.588 82.3029 213.91 85.5666 218.009 85.5666Z" fill="white"/>
<path d="M220.211 74.1548L213.816 80.436L215.808 82.3925L222.202 76.1112L220.211 74.1548Z" fill="white"/>
<path d="M213.821 76.1135L220.215 82.3948L222.207 80.4383L215.813 74.157L213.821 76.1135Z" fill="white"/>
<path d="M252.27 22.614V42.1619L256.473 38.0416V22.614H252.27Z" fill="#2E90FA"/>
<path d="M260.667 22.614V42.1619L256.473 38.0416V22.614H260.667Z" fill="#2E90FA"/>
<g opacity="0.3">
<path d="M260.676 22.6055V42.1705L256.473 38.033L252.27 42.1705V22.6055H260.676Z" fill="black"/>
</g>
<path d="M258.522 3.06622C258.809 3.60265 259.297 4.00774 259.884 4.195C260.471 4.38225 261.108 4.33684 261.661 4.06846C262.05 3.88207 262.483 3.80324 262.914 3.84044C263.345 3.87764 263.757 4.02945 264.107 4.27958C264.456 4.52971 264.73 4.86869 264.898 5.26012C265.067 5.65154 265.123 6.08061 265.062 6.50124C264.98 7.10104 265.137 7.70875 265.499 8.19837C265.861 8.68799 266.401 9.02196 267.007 9.13103C267.433 9.2025 267.831 9.3871 268.158 9.66487C268.486 9.94264 268.729 10.303 268.863 10.707C268.997 11.111 269.016 11.5432 268.917 11.9569C268.819 12.3707 268.608 12.7501 268.306 13.0543C267.878 13.4902 267.639 14.0721 267.639 14.6776C267.639 15.2831 267.878 15.865 268.306 16.3009C268.607 16.606 268.818 16.9861 268.916 17.4002C269.014 17.8143 268.995 18.2467 268.861 18.6511C268.728 19.0554 268.484 19.4163 268.158 19.695C267.831 19.9737 267.433 20.1596 267.007 20.2327C266.404 20.3456 265.87 20.6816 265.512 21.171C265.155 21.6605 265.004 22.2661 265.088 22.8625C265.148 23.2825 265.09 23.7104 264.921 24.1005C264.752 24.4906 264.478 24.8283 264.128 25.0773C263.779 25.3263 263.367 25.4773 262.937 25.5142C262.507 25.5511 262.075 25.4725 261.687 25.2867C261.134 25.0228 260.498 24.9797 259.912 25.1666C259.327 25.3535 258.838 25.7557 258.548 26.289C258.345 26.6635 258.043 26.9767 257.672 27.1951C257.302 27.4135 256.879 27.5289 256.447 27.5289C256.015 27.5289 255.591 27.4135 255.221 27.1951C254.851 26.9767 254.548 26.6635 254.345 26.289C254.052 25.7412 253.55 25.3291 252.95 25.1415C252.349 24.9539 251.698 25.0061 251.136 25.2867C250.748 25.4725 250.316 25.5511 249.886 25.5142C249.456 25.4773 249.045 25.3263 248.695 25.0773C248.346 24.8283 248.072 24.4906 247.903 24.1005C247.734 23.7104 247.676 23.2825 247.735 22.8625C247.822 22.262 247.667 21.6521 247.304 21.1615C246.941 20.6709 246.399 20.3378 245.791 20.2327C245.365 20.1596 244.967 19.9737 244.64 19.695C244.313 19.4163 244.07 19.0554 243.936 18.6511C243.803 18.2467 243.784 17.8143 243.881 17.4002C243.979 16.9861 244.19 16.606 244.492 16.3009C244.919 15.865 245.158 15.2831 245.158 14.6776C245.158 14.0721 244.919 13.4902 244.492 13.0543C244.193 12.7489 243.984 12.3695 243.887 11.9566C243.791 11.5437 243.81 11.1129 243.944 10.71C244.077 10.3071 244.32 9.94746 244.645 9.66936C244.97 9.39126 245.366 9.20519 245.791 9.13103C246.398 9.02392 246.939 8.69043 247.302 8.2003C247.664 7.71018 247.819 7.10138 247.735 6.50124C247.674 6.08061 247.731 5.65154 247.899 5.26012C248.067 4.86869 248.341 4.52971 248.691 4.27958C249.04 4.02945 249.453 3.87764 249.884 3.84044C250.314 3.80324 250.747 3.88207 251.136 4.06846C251.691 4.33502 252.329 4.3795 252.916 4.1925C253.504 4.00551 253.994 3.60167 254.284 3.06622C254.484 2.68303 254.787 2.36143 255.161 2.13686C255.535 1.91229 255.965 1.79346 256.403 1.79346C256.841 1.79346 257.271 1.91229 257.645 2.13686C258.019 2.36143 258.322 2.68303 258.522 3.06622Z" fill="#2E90FA"/>
<path d="M258.522 3.06622C258.809 3.60265 259.297 4.00774 259.884 4.195C260.471 4.38225 261.108 4.33684 261.661 4.06846C262.05 3.88207 262.483 3.80324 262.914 3.84044C263.345 3.87764 263.757 4.02945 264.107 4.27958C264.456 4.52971 264.73 4.86869 264.898 5.26012C265.067 5.65154 265.123 6.08061 265.062 6.50124C264.98 7.10104 265.137 7.70875 265.499 8.19837C265.861 8.68799 266.401 9.02196 267.007 9.13103C267.433 9.2025 267.831 9.3871 268.158 9.66487C268.486 9.94264 268.729 10.303 268.863 10.707C268.997 11.111 269.016 11.5432 268.917 11.9569C268.819 12.3707 268.608 12.7501 268.306 13.0543C267.878 13.4902 267.639 14.0721 267.639 14.6776C267.639 15.2831 267.878 15.865 268.306 16.3009C268.607 16.606 268.818 16.9861 268.916 17.4002C269.014 17.8143 268.995 18.2467 268.861 18.6511C268.728 19.0554 268.484 19.4163 268.158 19.695C267.831 19.9737 267.433 20.1596 267.007 20.2327C266.404 20.3456 265.87 20.6816 265.512 21.171C265.155 21.6605 265.004 22.2661 265.088 22.8625C265.148 23.2825 265.09 23.7104 264.921 24.1005C264.752 24.4906 264.478 24.8283 264.128 25.0773C263.779 25.3263 263.367 25.4773 262.937 25.5142C262.507 25.5511 262.075 25.4725 261.687 25.2867C261.134 25.0228 260.498 24.9797 259.912 25.1666C259.327 25.3535 258.838 25.7557 258.548 26.289C258.345 26.6635 258.043 26.9767 257.672 27.1951C257.302 27.4135 256.879 27.5289 256.447 27.5289C256.015 27.5289 255.591 27.4135 255.221 27.1951C254.851 26.9767 254.548 26.6635 254.345 26.289C254.052 25.7412 253.55 25.3291 252.95 25.1415C252.349 24.9539 251.698 25.0061 251.136 25.2867C250.748 25.4725 250.316 25.5511 249.886 25.5142C249.456 25.4773 249.045 25.3263 248.695 25.0773C248.346 24.8283 248.072 24.4906 247.903 24.1005C247.734 23.7104 247.676 23.2825 247.735 22.8625C247.822 22.262 247.667 21.6521 247.304 21.1615C246.941 20.6709 246.399 20.3378 245.791 20.2327C245.365 20.1596 244.967 19.9737 244.64 19.695C244.313 19.4163 244.07 19.0554 243.936 18.6511C243.803 18.2467 243.784 17.8143 243.881 17.4002C243.979 16.9861 244.19 16.606 244.492 16.3009C244.919 15.865 245.158 15.2831 245.158 14.6776C245.158 14.0721 244.919 13.4902 244.492 13.0543C244.193 12.7489 243.984 12.3695 243.887 11.9566C243.791 11.5437 243.81 11.1129 243.944 10.71C244.077 10.3071 244.32 9.94746 244.645 9.66936C244.97 9.39126 245.366 9.20519 245.791 9.13103C246.398 9.02392 246.939 8.69043 247.302 8.2003C247.664 7.71018 247.819 7.10138 247.735 6.50124C247.674 6.08061 247.731 5.65154 247.899 5.26012C248.067 4.86869 248.341 4.52971 248.691 4.27958C249.04 4.02945 249.453 3.87764 249.884 3.84044C250.314 3.80324 250.747 3.88207 251.136 4.06846C251.691 4.33502 252.329 4.3795 252.916 4.1925C253.504 4.00551 253.994 3.60167 254.284 3.06622C254.484 2.68303 254.787 2.36143 255.161 2.13686C255.535 1.91229 255.965 1.79346 256.403 1.79346C256.841 1.79346 257.271 1.91229 257.645 2.13686C258.019 2.36143 258.322 2.68303 258.522 3.06622Z" fill="#2E90FA"/>
<g opacity="0.5">
<path d="M258.522 3.06622C258.809 3.60265 259.297 4.00774 259.884 4.195C260.471 4.38225 261.108 4.33684 261.661 4.06846C262.05 3.88207 262.483 3.80324 262.914 3.84044C263.345 3.87764 263.757 4.02945 264.107 4.27958C264.456 4.52971 264.73 4.86869 264.898 5.26012C265.067 5.65154 265.123 6.08061 265.062 6.50124C264.98 7.10104 265.137 7.70875 265.499 8.19837C265.861 8.68799 266.401 9.02196 267.007 9.13103C267.433 9.2025 267.831 9.3871 268.158 9.66487C268.486 9.94264 268.729 10.303 268.863 10.707C268.997 11.111 269.016 11.5432 268.917 11.9569C268.819 12.3707 268.608 12.7501 268.306 13.0543C267.878 13.4902 267.639 14.0721 267.639 14.6776C267.639 15.2831 267.878 15.865 268.306 16.3009C268.607 16.606 268.818 16.9861 268.916 17.4002C269.014 17.8143 268.995 18.2467 268.861 18.6511C268.728 19.0554 268.484 19.4163 268.158 19.695C267.831 19.9737 267.433 20.1596 267.007 20.2327C266.404 20.3456 265.87 20.6816 265.512 21.171C265.155 21.6605 265.004 22.2661 265.088 22.8625C265.148 23.2825 265.09 23.7104 264.921 24.1005C264.752 24.4906 264.478 24.8283 264.128 25.0773C263.779 25.3263 263.367 25.4773 262.937 25.5142C262.507 25.5511 262.075 25.4725 261.687 25.2867C261.134 25.0228 260.498 24.9797 259.912 25.1666C259.327 25.3535 258.838 25.7557 258.548 26.289C258.345 26.6635 258.043 26.9767 257.672 27.1951C257.302 27.4135 256.879 27.5289 256.447 27.5289C256.015 27.5289 255.591 27.4135 255.221 27.1951C254.851 26.9767 254.548 26.6635 254.345 26.289C254.052 25.7412 253.55 25.3291 252.95 25.1415C252.349 24.9539 251.698 25.0061 251.136 25.2867C250.748 25.4725 250.316 25.5511 249.886 25.5142C249.456 25.4773 249.045 25.3263 248.695 25.0773C248.346 24.8283 248.072 24.4906 247.903 24.1005C247.734 23.7104 247.676 23.2825 247.735 22.8625C247.822 22.262 247.667 21.6521 247.304 21.1615C246.941 20.6709 246.399 20.3378 245.791 20.2327C245.365 20.1596 244.967 19.9737 244.64 19.695C244.313 19.4163 244.07 19.0554 243.936 18.6511C243.803 18.2467 243.784 17.8143 243.881 17.4002C243.979 16.9861 244.19 16.606 244.492 16.3009C244.919 15.865 245.158 15.2831 245.158 14.6776C245.158 14.0721 244.919 13.4902 244.492 13.0543C244.193 12.7489 243.984 12.3695 243.887 11.9566C243.791 11.5437 243.81 11.1129 243.944 10.71C244.077 10.3071 244.32 9.94746 244.645 9.66936C244.97 9.39126 245.366 9.20519 245.791 9.13103C246.398 9.02392 246.939 8.69043 247.302 8.2003C247.664 7.71018 247.819 7.10138 247.735 6.50124C247.674 6.08061 247.731 5.65154 247.899 5.26012C248.067 4.86869 248.341 4.52971 248.691 4.27958C249.04 4.02945 249.453 3.87764 249.884 3.84044C250.314 3.80324 250.747 3.88207 251.136 4.06846C251.691 4.33502 252.329 4.3795 252.916 4.1925C253.504 4.00551 253.994 3.60167 254.284 3.06622C254.484 2.68303 254.787 2.36143 255.161 2.13686C255.535 1.91229 255.965 1.79346 256.403 1.79346C256.841 1.79346 257.271 1.91229 257.645 2.13686C258.019 2.36143 258.322 2.68303 258.522 3.06622Z" fill="white"/>
</g>
<path d="M252.644 12.2576H251.563C251.323 12.2583 251.091 12.3461 250.913 12.5042C250.734 12.6622 250.621 12.8794 250.595 13.1142L250.334 18.014C250.326 18.1307 250.344 18.2477 250.384 18.3576C250.425 18.4676 250.488 18.5682 250.57 18.6532C250.651 18.7383 250.75 18.806 250.859 18.8523C250.969 18.8985 251.087 18.9222 251.206 18.922H252.287C252.535 18.9182 252.772 18.8225 252.952 18.6542C253.131 18.4859 253.239 18.2573 253.255 18.014L253.516 13.1142C253.516 12.887 253.425 12.6691 253.261 12.5085C253.097 12.3478 252.876 12.2576 252.644 12.2576Z" fill="white"/>
<path d="M261.269 12.2577H258.731L259.438 10.6215C259.518 10.4502 259.548 10.2604 259.525 10.0733L259.377 8.78838C259.349 8.53923 259.228 8.30891 259.038 8.14141C258.849 7.97391 258.603 7.88098 258.348 7.88037H257.083C257.005 9.16407 256.527 10.3932 255.714 11.401L254.938 12.3605C254.739 12.6056 254.621 12.9043 254.598 13.2171L254.354 17.7914C254.345 17.9358 254.367 18.0804 254.418 18.2163C254.468 18.3522 254.547 18.4765 254.648 18.5815C254.749 18.6866 254.871 18.7703 255.007 18.8273C255.142 18.8844 255.288 18.9138 255.435 18.9135H259.856C260.052 18.9114 260.246 18.8692 260.425 18.7896C260.603 18.71 260.763 18.5946 260.894 18.451L261.304 18.0055C261.447 17.8268 261.548 17.6191 261.6 17.3973L262.472 13.7053C262.51 13.5359 262.511 13.3605 262.475 13.1907C262.439 13.0209 262.367 12.8605 262.263 12.7202C262.145 12.5726 261.994 12.4539 261.821 12.3736C261.649 12.2934 261.46 12.2536 261.269 12.2577Z" fill="white"/>
<path d="M218.009 42.1621L219.413 44.3722L221.985 44.9975L220.285 46.9934L220.468 49.5804L218.009 48.6124L215.558 49.5804L215.741 46.9934L214.041 44.9975L216.613 44.3722L218.009 42.1621Z" fill="white"/>
<path d="M206.332 165.026C206.332 166.619 205.033 167.681 203.001 167.853L202.731 169.163H201.51L201.781 167.853C200.782 167.786 199.818 167.467 198.981 166.928L199.792 165.446C200.471 165.923 201.264 166.218 202.094 166.302L202.513 164.281C201.379 163.947 200.132 163.501 200.132 162.053C200.132 160.46 201.467 159.389 203.533 159.244L203.804 157.925H205.024L204.754 159.252C205.544 159.313 206.31 159.548 206.995 159.938L206.254 161.42C205.706 161.073 205.081 160.862 204.431 160.803L204.013 162.901C205.129 163.218 206.332 163.647 206.332 165.026ZM202.844 162.559L203.193 160.846C202.504 160.974 202.112 161.351 202.103 161.805C202.094 162.259 202.417 162.379 202.853 162.559H202.844ZM204.353 165.334C204.353 164.992 204.074 164.777 203.647 164.623L203.315 166.259C203.987 166.131 204.362 165.788 204.362 165.334H204.353Z" fill="white"/>
<path d="M144.543 22.9568H93.531C84.5589 22.9568 77.2856 30.1017 77.2856 38.9155V174.928C77.2856 183.742 84.5589 190.887 93.531 190.887H144.543C153.515 190.887 160.788 183.742 160.788 174.928V38.9155C160.788 30.1017 153.515 22.9568 144.543 22.9568Z" fill="#263238"/>
<path opacity="0.7" d="M144.29 22.9568H93.7839C84.6722 22.9568 77.2856 30.213 77.2856 39.1639V174.68C77.2856 183.631 84.6722 190.887 93.7839 190.887H144.29C153.402 190.887 160.788 183.631 160.788 174.68V39.1639C160.788 30.213 153.402 22.9568 144.29 22.9568Z" fill="white"/>
<path d="M160.788 31.1974V64.511H77.2856V31.1974C77.2856 29.0119 78.1694 26.9158 79.7426 25.3704C81.3158 23.825 83.4495 22.9568 85.6743 22.9568H152.4C154.625 22.9568 156.758 23.825 158.331 25.3704C159.905 26.9158 160.788 29.0119 160.788 31.1974Z" fill="#2E90FA"/>
<path d="M160.788 31.1974V64.511H77.2856V31.1974C77.2856 29.0119 78.1694 26.9158 79.7426 25.3704C81.3158 23.825 83.4495 22.9568 85.6743 22.9568H152.4C154.625 22.9568 156.758 23.825 158.331 25.3704C159.905 26.9158 160.788 29.0119 160.788 31.1974Z" fill="#2E90FA"/>
<path d="M112.175 43.6697C112.175 44.946 111.163 45.6913 109.21 45.6913H105.434V38.2388H109.001C110.823 38.2388 111.8 38.9926 111.8 40.1747C111.809 40.5099 111.723 40.841 111.55 41.1303C111.377 41.4195 111.125 41.6553 110.823 41.8108C111.228 41.926 111.582 42.1722 111.828 42.5095C112.073 42.8469 112.195 43.2556 112.175 43.6697ZM106.847 39.3181V41.3825H108.835C109.812 41.3825 110.37 41.0485 110.37 40.3632C110.37 39.6779 109.812 39.3267 108.835 39.3267L106.847 39.3181ZM110.753 43.5326C110.753 42.7874 110.186 42.4533 109.123 42.4533H106.847V44.6034H109.123C110.186 44.6034 110.745 44.2779 110.745 43.5326H110.753Z" fill="white"/>
<path d="M118.4 42.3591V45.6656H117.127V44.9717C116.913 45.2395 116.634 45.4504 116.316 45.585C115.997 45.7197 115.65 45.7739 115.305 45.7427C113.979 45.7427 113.142 45.0317 113.142 44.0295C113.142 43.0272 113.796 42.3162 115.549 42.3162H117.049V42.2306C117.049 41.4511 116.569 40.9971 115.601 40.9971C114.973 40.9933 114.36 41.1919 113.857 41.5624L113.325 40.5944C114.044 40.1073 114.903 39.8609 115.776 39.892C117.441 39.9434 118.4 40.7144 118.4 42.3591ZM117.049 43.9524V43.2928H115.645C114.729 43.2928 114.476 43.6354 114.476 44.0552C114.476 44.4749 114.886 44.8432 115.584 44.8432C115.892 44.8645 116.2 44.7899 116.463 44.63C116.725 44.4701 116.93 44.2331 117.049 43.9524Z" fill="white"/>
<path d="M119.464 45.1259L119.988 44.1151C120.593 44.4818 121.29 44.6775 122.002 44.6805C122.874 44.6805 123.223 44.4492 123.223 44.0552C123.223 42.9673 119.639 43.9866 119.639 41.7166C119.639 40.6458 120.624 39.9434 122.194 39.9434C122.944 39.9295 123.687 40.0972 124.356 40.4317L123.842 41.4425C123.337 41.1538 122.761 41.0057 122.176 41.0142C121.357 41.0142 120.964 41.2797 120.964 41.6567C120.964 42.8045 124.539 41.7851 124.539 44.0123C124.539 45.0745 123.545 45.7684 121.923 45.7684C121.059 45.7831 120.207 45.5606 119.464 45.1259Z" fill="white"/>
<path d="M125.568 38.2646C125.568 38.0374 125.66 37.8195 125.824 37.6589C125.987 37.4982 126.209 37.408 126.44 37.408C126.671 37.408 126.893 37.4982 127.057 37.6589C127.22 37.8195 127.312 38.0374 127.312 38.2646C127.312 38.4918 127.22 38.7096 127.057 38.8703C126.893 39.0309 126.671 39.1212 126.44 39.1212C126.324 39.1288 126.207 39.1118 126.098 39.0714C125.988 39.031 125.889 38.9682 125.806 38.8871C125.724 38.806 125.66 38.7085 125.619 38.6011C125.578 38.4938 125.56 38.379 125.568 38.2646ZM125.751 39.9778H127.103V45.6657H125.751V39.9778Z" fill="white"/>
<path d="M128.376 42.8473C128.372 42.4492 128.451 42.0546 128.61 41.6882C128.768 41.3218 129.002 40.9918 129.297 40.7188C129.592 40.4459 129.942 40.2361 130.324 40.1026C130.705 39.9692 131.111 39.9149 131.515 39.9434C132.012 39.9099 132.508 40.0163 132.945 40.2499C133.382 40.4836 133.742 40.8349 133.983 41.2626L132.945 41.8536C132.798 41.6092 132.587 41.4076 132.334 41.2692C132.081 41.1308 131.796 41.0605 131.507 41.0656C131.026 41.0656 130.564 41.2533 130.224 41.5874C129.884 41.9216 129.693 42.3748 129.693 42.8473C129.693 43.3199 129.884 43.7731 130.224 44.1072C130.564 44.4413 131.026 44.6291 131.507 44.6291C131.796 44.6341 132.081 44.5639 132.334 44.4255C132.587 44.287 132.798 44.0854 132.945 43.841L133.983 44.432C133.745 44.8629 133.385 45.2177 132.948 45.4545C132.511 45.6913 132.014 45.8002 131.515 45.7684C131.11 45.7943 130.704 45.7378 130.322 45.6024C129.94 45.4669 129.591 45.2555 129.296 44.9812C129.002 44.707 128.768 44.3759 128.61 44.0087C128.451 43.6415 128.372 43.2461 128.376 42.8473Z" fill="white"/>
<path d="M123.043 121.629C125.941 118.782 125.941 114.166 123.043 111.319C120.146 108.472 115.447 108.472 112.549 111.319C109.651 114.166 109.651 118.782 112.549 121.629C115.447 124.475 120.146 124.475 123.043 121.629Z" fill="#263238"/>
<path opacity="0.5" d="M123.043 121.629C125.941 118.782 125.941 114.166 123.043 111.319C120.146 108.472 115.447 108.472 112.549 111.319C109.651 114.166 109.651 118.782 112.549 121.629C115.447 124.475 120.146 124.475 123.043 121.629Z" fill="white"/>
<path d="M119.991 112.355L113.597 118.636L115.589 120.593L121.983 114.312L119.991 112.355Z" fill="white"/>
<path d="M113.598 114.319L119.992 120.6L121.984 118.644L115.59 112.363L113.598 114.319Z" fill="white"/>
<path d="M118.139 150.78C122.281 150.78 125.638 147.482 125.638 143.413C125.638 139.345 122.281 136.047 118.139 136.047C113.997 136.047 110.64 139.345 110.64 143.413C110.64 147.482 113.997 150.78 118.139 150.78Z" fill="#2E90FA"/>
<path d="M123.511 141.82L119.194 146.061L117.18 148.039L115.166 146.061L117.18 144.082L121.496 139.842L123.511 141.82Z" fill="white"/>
<path d="M119.194 146.06L117.18 148.039L112.916 143.842L114.921 141.863L117.18 144.082L119.194 146.06Z" fill="white"/>
<path d="M136.468 164.469H101.605C96.8665 164.469 93.0249 168.243 93.0249 172.898V173.541C93.0249 178.196 96.8665 181.97 101.605 181.97H136.468C141.207 181.97 145.048 178.196 145.048 173.541V172.898C145.048 168.243 141.207 164.469 136.468 164.469Z" fill="#2E90FA"/>
<path d="M104.3 174.877C104.3 176.47 103.001 177.532 100.96 177.695L100.699 179.014H99.478L99.7483 177.695C98.7474 177.633 97.7799 177.317 96.9404 176.778L97.7601 175.296C98.4387 175.774 99.2321 176.069 100.062 176.153L100.472 174.131C99.3472 173.797 98.1002 173.352 98.1002 171.904C98.1002 170.311 99.4256 169.232 101.501 169.095L101.771 167.775H102.983L102.722 169.103C103.512 169.164 104.277 169.398 104.963 169.788L104.213 171.27C103.668 170.922 103.046 170.707 102.399 170.645L101.972 172.752C103.097 173.069 104.3 173.498 104.3 174.877ZM100.812 172.41L101.161 170.696C100.463 170.825 100.08 171.193 100.062 171.656C100.045 172.118 100.376 172.23 100.821 172.444L100.812 172.41ZM102.321 175.185C102.321 174.842 102.042 174.62 101.614 174.466L101.283 176.11C101.946 175.973 102.329 175.639 102.329 175.185H102.321Z" fill="white"/>
<path d="M139.695 128.663H96.5918V130.376H139.695V128.663Z" fill="#2E90FA"/>
<path d="M139.695 100.531H96.5918V102.245H139.695V100.531Z" fill="#2E90FA"/>
<path d="M139.695 73.4197H96.5918V75.1329H139.695V73.4197Z" fill="#2E90FA"/>
<path d="M123.047 92.9872C125.945 90.1403 125.945 85.5247 123.047 82.6779C120.149 79.831 115.451 79.831 112.553 82.6779C109.655 85.5247 109.655 90.1403 112.553 92.9872C115.451 95.834 120.149 95.834 123.047 92.9872Z" fill="#263238"/>
<path opacity="0.5" d="M123.047 92.9872C125.945 90.1403 125.945 85.5247 123.047 82.6779C120.149 79.831 115.451 79.831 112.553 82.6779C109.655 85.5247 109.655 90.1403 112.553 92.9872C115.451 95.834 120.149 95.834 123.047 92.9872Z" fill="white"/>
<path d="M119.995 83.7136L113.601 89.9949L115.593 91.9513L121.987 85.6701L119.995 83.7136Z" fill="white"/>
<path d="M113.601 85.6704L119.996 91.9517L121.987 89.9952L115.593 83.7139L113.601 85.6704Z" fill="white"/>
<path d="M226.799 303.608L233.487 304.808L238.545 292.687L231.237 289.817L226.799 303.608Z" fill="#FFC2BC"/>
<path opacity="0.1" d="M229.197 295.916L231.106 290.28L234.472 291.085L238.545 292.687L236.365 297.963L229.197 295.916Z" fill="black"/>
<path d="M225.491 301.33C225.491 301.33 225.229 301.099 224.889 300.833C224.549 300.567 224.34 300.422 224.017 300.199C223.393 299.735 222.657 299.44 221.881 299.343C221.639 299.347 221.405 299.432 221.218 299.582C221.109 299.66 221.028 299.771 220.989 299.898C220.949 300.024 220.953 300.16 221 300.285C221.539 300.842 222.256 301.202 223.032 301.304L223.651 301.433C224.228 301.535 224.81 301.607 225.395 301.647C225.43 301.647 225.463 301.637 225.493 301.619C225.522 301.601 225.546 301.575 225.56 301.544C225.579 301.506 225.582 301.463 225.569 301.423C225.556 301.383 225.528 301.35 225.491 301.33ZM224.096 301.159C222.84 300.953 221.48 300.567 221.331 300.131C221.331 300.071 221.279 299.959 221.471 299.788C221.525 299.74 221.588 299.703 221.657 299.679C221.726 299.656 221.799 299.646 221.872 299.651C221.992 299.653 222.112 299.667 222.229 299.694C223.038 300 223.791 300.431 224.462 300.97C224.593 301.064 224.715 301.167 224.837 301.27C224.601 301.244 224.348 301.201 224.104 301.159H224.096Z" fill="#2E90FA"/>
<path d="M225.15 298.632C224.933 298.365 224.622 298.188 224.278 298.135C223.781 298.058 223.572 298.246 223.494 298.426C223.302 298.811 223.598 299.531 224.034 300.199C224.204 300.456 224.39 300.702 224.592 300.936C224.796 301.175 225.024 301.393 225.272 301.587C225.298 301.597 225.326 301.597 225.351 301.587C225.379 301.595 225.41 301.595 225.438 301.587C225.466 301.578 225.491 301.562 225.51 301.541C225.53 301.52 225.544 301.495 225.552 301.467C225.59 301.214 225.613 300.96 225.621 300.705C225.699 299.982 225.534 299.253 225.15 298.632ZM225.229 301.09C225.142 301.004 225.046 300.919 224.959 300.816C224.27 300.071 223.624 298.923 223.79 298.529C223.79 298.529 223.86 298.375 224.191 298.426H224.287C224.504 298.477 224.697 298.598 224.836 298.769C225.167 299.372 225.316 300.055 225.264 300.739C225.255 300.876 225.246 300.979 225.229 301.09Z" fill="#2E90FA"/>
<path d="M226.371 300.85L234.455 302.752C234.598 302.78 234.727 302.856 234.819 302.966C234.911 303.077 234.961 303.217 234.961 303.36L234.716 309.682C234.696 309.96 234.565 310.22 234.351 310.405C234.137 310.589 233.858 310.683 233.574 310.667C233.496 310.676 233.417 310.676 233.339 310.667C230.435 309.939 227.889 309.185 224.252 308.337C219.971 307.335 220.93 308.054 215.881 306.941C212.838 306.264 213.169 303 214.503 303.146C220.607 303.857 221.645 302.392 224.462 301.013C225.061 300.746 225.735 300.688 226.371 300.85Z" fill="#263238"/>
<path d="M274.933 304.799H281.334L283.226 294.383L275.395 292.944L274.933 304.799Z" fill="#FFC2BC"/>
<path opacity="0.1" d="M275.395 292.944L283.226 294.383L281.953 301.398L275.134 301.124L275.395 292.944Z" fill="black"/>
<path d="M284.603 299.479L273.111 298.837L272.762 294.383L285.624 295.248L284.603 299.479Z" fill="#2E90FA"/>
<path opacity="0.5" d="M284.603 299.479L273.111 298.837L272.762 294.383L285.624 295.248L284.603 299.479Z" fill="white"/>
<path d="M274 304.962C274 304.962 273.703 304.799 273.32 304.611C272.936 304.422 272.744 304.345 272.395 304.217C271.714 303.89 270.951 303.762 270.198 303.848C269.976 303.903 269.785 304.042 269.666 304.234C269.591 304.341 269.551 304.468 269.551 304.598C269.551 304.728 269.591 304.855 269.666 304.962C270.277 305.384 271.025 305.57 271.767 305.484H272.352C272.881 305.452 273.408 305.389 273.93 305.296C273.962 305.286 273.991 305.269 274.014 305.245C274.037 305.221 274.053 305.191 274.061 305.159C274.072 305.124 274.073 305.086 274.062 305.051C274.051 305.016 274.029 304.985 274 304.962ZM272.683 305.125C271.497 305.21 270.215 305.125 269.936 304.765C269.884 304.705 269.84 304.611 269.936 304.405C269.969 304.343 270.016 304.289 270.074 304.248C270.131 304.206 270.197 304.178 270.268 304.165C270.375 304.152 270.483 304.152 270.59 304.165C271.411 304.278 272.206 304.524 272.945 304.893C273.091 304.945 273.231 305.011 273.363 305.09L272.683 305.125Z" fill="#2E90FA"/>
<path d="M274.104 305.116C274.079 304.86 274.038 304.605 273.982 304.354C273.854 303.619 273.505 302.939 272.98 302.4C272.852 302.294 272.703 302.215 272.542 302.167C272.382 302.12 272.213 302.106 272.047 302.126C271.567 302.169 271.427 302.401 271.41 302.598C271.331 303.026 271.802 303.668 272.395 304.217C272.601 304.421 272.823 304.61 273.058 304.782C273.303 304.972 273.569 305.133 273.852 305.262C273.874 305.27 273.899 305.27 273.921 305.262C273.95 305.27 273.98 305.27 274.009 305.262C274.037 305.249 274.061 305.228 274.078 305.202C274.095 305.177 274.104 305.147 274.104 305.116ZM271.724 302.649C271.724 302.606 271.724 302.486 272.064 302.452H272.151C272.369 302.448 272.581 302.524 272.744 302.666C273.194 303.185 273.495 303.811 273.616 304.482C273.642 304.589 273.66 304.698 273.668 304.808L273.355 304.602C272.561 304.011 271.689 303.043 271.724 302.649Z" fill="#2E90FA"/>
<path d="M274.68 304.285L282.476 304.242C282.618 304.243 282.755 304.29 282.866 304.378C282.977 304.465 283.054 304.586 283.086 304.722L284.534 310.941C284.565 311.072 284.569 311.207 284.547 311.339C284.525 311.471 284.476 311.598 284.404 311.712C284.332 311.825 284.238 311.924 284.127 312.002C284.016 312.08 283.89 312.136 283.757 312.166H283.539C280.732 312.166 278.229 311.995 274.732 312.02C270.608 312.02 271.654 312.517 266.806 312.612C263.885 312.672 263.318 309.408 264.573 309.245C270.241 308.508 270.817 306.821 272.997 304.816C273.474 304.446 274.072 304.257 274.68 304.285Z" fill="#263238"/>
<path d="M260.501 150.909L230.312 289.68L241.439 292.584C249.758 274.698 256.734 256.392 261.931 242.044C264.399 235.251 265.419 228.86 267.277 222.873C269.526 215.754 272.552 209.21 274.087 203.231C282.153 171.93 281.508 156.254 281.508 156.254L283.252 152.125L260.501 150.909Z" fill="#263238"/>
<path opacity="0.3" d="M279.04 180.693C277.95 187.007 276.372 194.545 274.114 203.299C273.381 206.143 268.472 219.84 267.303 222.941C265.943 202.897 270.608 168.975 270.608 168.975L279.04 180.693Z" fill="black"/>
<path d="M269.771 151.62L272.047 227.858L274.044 294.674L284.508 295.385C287.429 279.032 289.574 264.204 291.109 250.841C292.12 242.112 290.411 235.73 290.952 228.252C291.048 227.01 291.144 225.734 291.257 224.432C293.108 203.02 293.234 181.497 291.632 160.066C291.327 155.98 291.117 153.213 291.117 153.213L269.745 150.532L269.771 151.62Z" fill="#263238"/>
<path d="M239.966 296.49L228.961 293.158L229.711 288.755L241.989 292.627L239.966 296.49Z" fill="#2E90FA"/>
<path opacity="0.5" d="M239.966 296.49L228.961 293.158L229.711 288.755L241.989 292.627L239.966 296.49Z" fill="white"/>
<path d="M268.271 103.264C266.221 106.247 264.691 109.544 263.745 113.021C263.279 114.588 262.912 116.181 262.647 117.792L261.888 119.84L255.156 117.21L254.092 116.799C255.732 109.543 262.08 102.981 266.789 103.093C267.289 103.077 267.788 103.135 268.271 103.264Z" fill="#2E90FA"/>
<path opacity="0.2" d="M268.271 103.264C266.221 106.247 264.691 109.544 263.745 113.021C263.279 114.588 262.912 116.181 262.647 117.792L261.888 119.84L255.156 117.21L254.092 116.799C255.732 109.543 262.08 102.981 266.789 103.093C267.289 103.077 267.788 103.135 268.271 103.264Z" fill="white"/>
<path d="M259.856 150.258C260.667 148.476 260.562 145.007 263.239 144.347C266.797 143.491 269.727 143.234 283.731 144.399C290.341 144.955 291.806 150.138 291.579 152.802C291.553 153.156 291.43 153.496 291.222 153.787L290.943 154.181C290.289 154.429 260.318 151.166 260.022 151.346C259.896 151.196 259.814 151.016 259.784 150.824C259.755 150.633 259.78 150.437 259.856 150.258Z" fill="#2E90FA"/>
<path opacity="0.2" d="M259.856 150.258C260.667 148.476 260.562 145.007 263.239 144.347C266.797 143.491 269.727 143.234 283.731 144.399C290.341 144.955 291.806 150.138 291.579 152.802C291.553 153.156 291.43 153.496 291.222 153.787L290.943 154.181C290.289 154.429 260.318 151.166 260.022 151.346C259.896 151.196 259.814 151.016 259.784 150.824C259.755 150.633 259.78 150.437 259.856 150.258Z" fill="white"/>
<path d="M267.146 103.213C266.955 103.564 260.999 104.172 261.47 129.768C261.531 133.066 260.676 140.047 260.676 140.047L259.804 142.18C259.454 143.046 259.299 143.976 259.35 144.906C259.402 145.836 259.658 146.744 260.101 147.568L260.537 148.365L290.734 151.38H291.606C291.606 151.38 293.551 135.892 296.149 125.536C297.021 122.161 297.893 118.015 297.893 118.015C297.28 114.113 296.988 110.168 297.021 106.219C297.021 106.219 297.021 106.177 297.021 106.168C293.362 105.103 289.629 104.301 285.851 103.769C281.839 103.169 277.788 102.845 273.73 102.802C269.954 102.999 267.155 103.204 267.146 103.213Z" fill="#2E90FA"/>
<path d="M285.816 90.3806C284.734 94.1583 283.383 101.123 285.903 103.898L283.993 105.86C283.231 106.627 282.272 107.175 281.216 107.447C280.161 107.719 279.051 107.704 278.004 107.402C276.957 107.101 276.014 106.526 275.274 105.738C274.535 104.95 274.028 103.979 273.808 102.93C278.229 102.245 277.296 97.8845 278.098 93.6786L285.816 90.3806Z" fill="#FFC2BC"/>
<path opacity="0.2" d="M275.753 89.3528C276.625 92.3681 277.915 97.2165 276.991 100.566C280.959 100.908 283.592 97.3707 283.758 96.2399C283.27 94.9084 282.885 93.5425 282.607 92.1539L275.753 89.3528Z" fill="black"/>
<path d="M286.984 84.4787C286.505 90.9032 286.453 93.6273 283.113 96.8824C278.09 101.791 270.164 99.812 268.672 93.3874C267.33 87.5967 268.332 78.0798 274.776 75.587C276.191 75.0373 277.725 74.8509 279.233 75.0456C280.741 75.2403 282.174 75.8095 283.396 76.6995C284.618 77.5896 285.589 78.771 286.217 80.1322C286.845 81.4933 287.109 82.9893 286.984 84.4787Z" fill="#FFC2BC"/>
<path d="M290.76 81.4975C290.095 83.9263 289.654 86.4092 289.443 88.9158H286.95C286.725 89.135 286.567 89.4118 286.495 89.7147C286.422 90.0176 286.438 90.3344 286.54 90.629C286.119 90.4481 285.761 90.1504 285.511 89.7724C285.331 89.4008 285.241 88.9931 285.249 88.5817C285.187 87.0044 285.016 85.4331 284.735 83.8789C283.453 83.3649 281.97 83.502 280.776 82.8167C278.086 81.3118 275.748 79.2689 273.913 76.8204C272.921 77.2771 272.038 77.9355 271.324 78.7521C270.61 79.5687 270.081 80.5249 269.771 81.5575C269.481 81.6134 269.181 81.5839 268.908 81.4726C268.634 81.3614 268.401 81.1733 268.236 80.9321C267.919 80.4416 267.742 79.8767 267.722 79.296C267.547 77.7822 267.945 76.2581 268.838 75.013C269.497 74.1582 270.459 73.5775 271.533 73.3854C271.989 73.3931 272.443 73.3383 272.884 73.2226C273.338 73.017 273.756 72.486 274.192 72.2118C275.206 71.6621 276.32 71.314 277.47 71.1876C278.621 71.0612 279.786 71.1589 280.898 71.4752C283.658 72.359 286.158 73.8909 288.179 75.9381C289.321 77.0431 291.187 80.0156 290.76 81.4975Z" fill="#263238"/>
<path d="M289.26 90.6548C288.621 91.7303 287.574 92.5128 286.348 92.8306C284.726 93.2332 283.95 91.8027 284.429 90.3122C284.865 88.9673 286.243 87.1684 287.848 87.3912C288.409 87.4893 288.909 87.8024 289.236 88.2617C289.563 88.7211 289.691 89.2891 289.592 89.8411C289.542 90.1326 289.429 90.4101 289.26 90.6548Z" fill="#FFC2BC"/>
<path d="M276.86 86.0891C276.86 86.6544 276.538 87.0913 276.171 87.0999C275.805 87.1084 275.5 86.6373 275.5 86.0805C275.5 85.5237 275.823 85.0783 276.189 85.0697C276.555 85.0611 276.86 85.5323 276.86 86.0891Z" fill="#263238"/>
<path d="M270.39 86.0205C270.39 86.5858 270.067 87.0227 269.692 87.0313C269.317 87.0398 269.021 86.5687 269.029 86.0033C269.038 85.438 269.343 85.0011 269.718 84.9925C270.093 84.984 270.416 85.4466 270.39 86.0205Z" fill="#263238"/>
<path d="M272.936 87.1855C272.409 88.4632 271.708 89.6648 270.852 90.7576C271.142 90.962 271.474 91.1023 271.825 91.1688C272.176 91.2354 272.537 91.2266 272.884 91.1431L272.936 87.1855Z" fill="#EC837E"/>
<path d="M274.916 93.0448C274.593 93.181 274.257 93.2843 273.913 93.3532C273.875 93.3608 273.835 93.3534 273.802 93.3326C273.77 93.3118 273.747 93.2792 273.738 93.2418C273.735 93.206 273.744 93.1701 273.765 93.1403C273.786 93.1106 273.817 93.0889 273.852 93.0791C274.557 92.9518 275.221 92.6628 275.791 92.2356C276.361 91.8084 276.82 91.255 277.131 90.6206C277.139 90.5855 277.161 90.5551 277.192 90.5358C277.223 90.5166 277.26 90.5101 277.296 90.5178C277.312 90.5199 277.328 90.5251 277.342 90.5332C277.356 90.5413 277.368 90.552 277.378 90.5647C277.388 90.5775 277.395 90.5921 277.399 90.6075C277.403 90.623 277.403 90.6391 277.401 90.6549C276.924 91.7411 276.031 92.5995 274.916 93.0448Z" fill="#263238"/>
<path d="M279.128 82.911C279.09 82.9236 279.05 82.9255 279.011 82.9164C278.972 82.9073 278.937 82.8876 278.91 82.8596C278.65 82.5975 278.329 82.4007 277.976 82.2859C277.622 82.1711 277.246 82.1416 276.878 82.2C276.813 82.2107 276.747 82.1972 276.692 82.1623C276.638 82.1275 276.598 82.0737 276.581 82.0116C276.569 81.9847 276.562 81.9556 276.561 81.926C276.56 81.8964 276.566 81.867 276.577 81.8396C276.589 81.8123 276.606 81.7876 276.628 81.767C276.649 81.7465 276.675 81.7306 276.703 81.7203C277.147 81.6459 277.602 81.6779 278.03 81.8136C278.459 81.9494 278.847 82.1848 279.163 82.4998C279.21 82.5423 279.241 82.5996 279.251 82.662C279.26 82.7244 279.248 82.7882 279.215 82.8425C279.206 82.8595 279.194 82.8745 279.179 82.8863C279.164 82.8982 279.146 82.9066 279.128 82.911Z" fill="#263238"/>
<path d="M268.681 83.2109C268.635 83.2289 268.586 83.2336 268.538 83.2245C268.49 83.2153 268.446 83.1928 268.41 83.1595C268.385 83.1348 268.365 83.1054 268.351 83.0731C268.338 83.0407 268.331 83.006 268.331 82.971C268.331 82.936 268.338 82.9013 268.351 82.8689C268.365 82.8366 268.385 82.8072 268.41 82.7826C268.74 82.382 269.164 82.066 269.646 81.8616C270.127 81.6572 270.652 81.5705 271.175 81.609C271.21 81.6111 271.244 81.6202 271.276 81.6357C271.307 81.6512 271.335 81.6728 271.358 81.6992C271.381 81.7256 271.398 81.7563 271.408 81.7894C271.419 81.8224 271.422 81.8572 271.419 81.8917C271.408 81.9637 271.369 82.0288 271.311 82.0734C271.252 82.1181 271.179 82.1389 271.105 82.1315C270.673 82.1057 270.242 82.1826 269.847 82.3556C269.453 82.5286 269.106 82.7926 268.838 83.1252C268.793 83.1661 268.739 83.1955 268.681 83.2109Z" fill="#263238"/>
<path d="M284.839 101.851L287.255 104.086C287.255 104.086 278.535 110.083 278.386 109.697C277.786 108.87 277.13 108.084 276.424 107.341L284.839 101.851Z" fill="#2E90FA"/>
<path d="M276.023 101.645L272.945 102.844C272.945 102.844 273.468 109.32 273.738 109.012C274.604 108.447 275.507 107.941 276.442 107.496L276.023 101.645Z" fill="#2E90FA"/>
<path opacity="0.2" d="M284.839 101.851L287.255 104.086C287.255 104.086 278.535 110.083 278.386 109.697C277.786 108.87 277.13 108.084 276.424 107.341L284.839 101.851Z" fill="white"/>
<path opacity="0.2" d="M276.023 101.645L272.945 102.844C272.945 102.844 273.468 109.32 273.738 109.012C274.604 108.447 275.507 107.941 276.442 107.496L276.023 101.645Z" fill="white"/>
<path d="M274.384 128.38C274.942 129.194 279.485 128.38 279.485 128.38L283.383 128.645C283.593 128.648 283.797 128.575 283.957 128.441C284.118 128.308 284.223 128.121 284.255 127.917L285.336 123.077C285.351 122.965 285.322 122.852 285.253 122.761C285.185 122.67 285.083 122.608 284.97 122.589L281.892 122.049C280.653 121.827 279.375 122.091 278.334 122.786L275.073 124.962L274.384 128.38Z" fill="#FFC2BC"/>
<path d="M275.238 124.722L275.037 128.448C275.037 128.448 257.51 134.916 252.488 132.089C249.191 130.239 252.488 122.392 255.156 117.192L261.888 119.668L259.664 125.33L275.238 124.722Z" fill="#FFC2BC"/>
<g opacity="0.1">
<path d="M274.384 128.38C274.942 129.194 279.485 128.38 279.485 128.38L283.383 128.645C283.593 128.648 283.797 128.575 283.957 128.441C284.118 128.308 284.223 128.121 284.255 127.917L285.336 123.077C285.351 122.965 285.322 122.852 285.253 122.761C285.185 122.67 285.083 122.608 284.97 122.589L281.892 122.049C280.653 121.827 279.375 122.091 278.334 122.786L275.073 124.962L274.384 128.38Z" fill="black"/>
<path d="M275.238 124.722L275.037 128.448C275.037 128.448 257.51 134.916 252.488 132.089C249.191 130.239 252.488 122.392 255.156 117.192L261.888 119.668L259.664 125.33L275.238 124.722Z" fill="black"/>
</g>
<path d="M295.983 108.995L283.06 126.47L264.129 123.043L263.257 126.71C263.257 126.71 281.569 136.509 286.6 133.64C291.632 130.77 300.029 113.398 300.029 113.398L295.983 108.995Z" fill="#FFC2BC"/>
<path d="M263.274 126.701C262.707 127.506 258.173 126.641 258.173 126.641L254.275 126.855C254.062 126.857 253.856 126.782 253.695 126.645C253.535 126.508 253.431 126.317 253.403 126.11L252.383 121.27C252.368 121.158 252.397 121.044 252.466 120.953C252.534 120.862 252.636 120.801 252.749 120.782L255.845 120.276C257.087 120.072 258.362 120.355 259.394 121.064L264.111 123.163L263.274 126.701Z" fill="#FFC2BC"/>
<path d="M298.433 107.341C301.477 110.871 300.587 119.608 296.201 125.159L285.519 118.991C285.519 118.991 291.789 108.592 295.242 106.545C296.724 105.688 297.352 106.065 298.433 107.341Z" fill="#2E90FA"/>
<path opacity="0.2" d="M298.433 107.341C301.477 110.871 300.587 119.608 296.201 125.159L285.519 118.991C285.519 118.991 291.789 108.592 295.242 106.545C296.724 105.688 297.352 106.065 298.433 107.341Z" fill="white"/>
<path d="M202.261 305.93L209.036 306.846L215.96 293.569L208.461 292.344L202.261 305.93Z" fill="#FFC2BC"/>
<path opacity="0.2" d="M208.461 292.344L215.96 293.569L212.184 300.79L205.086 299.745L208.461 292.344Z" fill="black"/>
<path d="M211.025 304.363L202.645 303.917C202.506 303.905 202.368 303.943 202.256 304.023C202.144 304.104 202.065 304.221 202.034 304.354L200.334 310.35C200.298 310.476 200.288 310.607 200.304 310.736C200.321 310.865 200.363 310.99 200.429 311.103C200.494 311.216 200.582 311.316 200.687 311.395C200.792 311.475 200.912 311.533 201.04 311.567H201.276C203.987 311.669 205.941 311.61 209.376 311.789C211.478 311.901 217.791 312.458 220.712 312.646C223.634 312.834 224.139 309.999 222.971 309.682C217.739 308.26 213.815 306.436 212.184 304.877C211.882 304.562 211.465 304.377 211.025 304.363Z" fill="#263238"/>
<path d="M211.434 305.219C211.401 305.211 211.372 305.193 211.351 305.166C211.33 305.14 211.32 305.107 211.321 305.074C211.314 305.043 211.318 305.011 211.332 304.983C211.346 304.955 211.37 304.932 211.399 304.919C211.652 304.782 213.963 303.557 214.704 303.977C214.787 304.024 214.855 304.093 214.9 304.177C214.945 304.26 214.965 304.354 214.957 304.448C214.976 304.612 214.95 304.779 214.881 304.93C214.812 305.08 214.702 305.21 214.564 305.305C214.162 305.544 213.687 305.638 213.222 305.57C212.614 305.522 212.014 305.405 211.434 305.219ZM214.32 304.26C213.48 304.366 212.667 304.625 211.922 305.022C212.708 305.335 213.587 305.335 214.373 305.022C214.459 304.955 214.527 304.869 214.571 304.77C214.615 304.672 214.634 304.564 214.626 304.457C214.626 304.42 214.618 304.383 214.603 304.349C214.588 304.315 214.566 304.285 214.538 304.26C214.467 304.242 214.392 304.242 214.32 304.26Z" fill="#2E90FA"/>
<path d="M211.416 305.33C211.395 305.311 211.377 305.287 211.365 305.26C211.353 305.234 211.347 305.205 211.347 305.176C211.347 305.073 211.591 303.138 212.428 302.546C212.527 302.468 212.643 302.413 212.766 302.383C212.89 302.353 213.018 302.351 213.143 302.375C213.266 302.38 213.383 302.427 213.474 302.509C213.565 302.59 213.624 302.701 213.64 302.821C213.736 303.54 212.28 304.962 211.547 305.305H211.469L211.416 305.33ZM213.003 302.624C212.87 302.623 212.74 302.669 212.637 302.752C212.117 303.333 211.788 304.056 211.695 304.825C212.437 304.345 213.378 303.257 213.309 302.812C213.309 302.769 213.309 302.649 213.091 302.632H213.003V302.624Z" fill="#2E90FA"/>
<path d="M166.116 267.365L171.078 267.545C179.341 267.167 187.545 265.971 195.564 263.973C202.74 262.26 214.634 256.863 214.634 256.863C210.806 272.95 203.909 297.467 203.909 297.467L214.565 298.674C214.565 298.674 242.312 246.747 230.069 240.802C219.125 235.062 176.789 238.831 176.789 238.831L172.429 234.334L142.843 236.69C142.843 236.69 137.183 267.322 166.116 267.365Z" fill="#263238"/>
<path d="M215.245 300.79L203.054 297.158L204.519 292.164L217.73 297.107L215.245 300.79Z" fill="#2E90FA"/>
<path opacity="0.5" d="M215.245 300.79L203.054 297.158L204.519 292.164L217.73 297.107L215.245 300.79Z" fill="white"/>
<path opacity="0.4" d="M169.788 256.007C172.761 264.573 195.355 263.716 198.503 263.305C179.903 266.826 176.398 267.305 171.078 267.545L166.117 267.365C164.567 267.364 163.019 267.253 161.486 267.031C163.788 252.306 166.195 245.667 169.788 256.007Z" fill="black"/>
<path d="M108.878 291.136L108.006 297.869L123.816 300.405L124.688 293.663L108.878 291.136Z" fill="#FFC2BC"/>
<path d="M109.41 298.803L114.329 292.079C114.407 291.969 114.446 291.837 114.438 291.703C114.43 291.569 114.376 291.442 114.285 291.342L110.091 286.725C109.909 286.529 109.655 286.411 109.386 286.398C109.116 286.386 108.852 286.478 108.652 286.656C108.603 286.712 108.564 286.776 108.538 286.845C106.986 289.038 105.983 290.682 103.978 293.432C102.757 295.102 98.8679 300.045 97.185 302.349C95.502 304.654 97.6035 306.632 98.5017 305.776C102.557 302.195 106.193 299.925 108.434 299.437C108.828 299.352 109.176 299.126 109.41 298.803Z" fill="#263238"/>
<path d="M108.355 298.632C108.383 298.615 108.414 298.606 108.447 298.606C108.479 298.606 108.511 298.615 108.538 298.632C108.567 298.645 108.591 298.667 108.605 298.695C108.62 298.723 108.624 298.755 108.617 298.786C108.617 299.077 108.416 301.647 107.658 302.024C107.577 302.074 107.483 302.101 107.387 302.101C107.292 302.101 107.198 302.074 107.117 302.024C106.969 301.949 106.844 301.838 106.754 301.701C106.664 301.565 106.612 301.407 106.603 301.244C106.612 300.782 106.784 300.337 107.091 299.985C107.462 299.491 107.886 299.037 108.355 298.632ZM108.268 299.146C107.571 299.627 107.09 300.354 106.925 301.176C106.938 301.284 106.976 301.387 107.036 301.478C107.097 301.569 107.178 301.644 107.274 301.698C107.387 301.758 107.475 301.75 107.492 301.698C107.562 301.669 107.621 301.618 107.658 301.553C108.01 300.794 108.217 299.978 108.268 299.146Z" fill="#2E90FA"/>
<path d="M108.364 298.58C108.417 298.559 108.476 298.559 108.529 298.58C108.608 298.649 110.116 299.925 110.177 300.936C110.189 301.057 110.174 301.18 110.133 301.295C110.093 301.41 110.027 301.516 109.942 301.604C109.871 301.704 109.767 301.777 109.648 301.81C109.529 301.843 109.401 301.834 109.288 301.784C108.608 301.476 108.181 299.505 108.285 298.717V298.649C108.292 298.632 108.303 298.618 108.317 298.606C108.33 298.594 108.346 298.585 108.364 298.58ZM109.898 301.013C109.674 300.27 109.228 299.61 108.617 299.12C108.621 300.001 108.928 300.856 109.489 301.544C109.513 301.557 109.54 301.565 109.567 301.567C109.595 301.569 109.623 301.566 109.649 301.557C109.675 301.548 109.699 301.534 109.72 301.516C109.74 301.497 109.757 301.475 109.768 301.45V301.373C109.841 301.267 109.878 301.141 109.872 301.013H109.898Z" fill="#2E90FA"/>
<path opacity="0.2" d="M124.679 293.655L123.807 300.405L115.654 299.094L116.535 292.353L124.679 293.655Z" fill="black"/>
<path d="M170.415 249.634C172.822 253.377 181.141 298.538 165.611 308.628C154.17 316.038 118.156 302.015 118.156 302.015L119.307 290.802C119.307 290.802 148.563 296.182 152.182 293.286C155.801 290.391 143.723 259.022 143.13 251.681C142.537 244.34 170.415 249.634 170.415 249.634Z" fill="#263238"/>
<path d="M117.354 302.829L117.746 290.314L123.031 290.408L121.618 304.225L117.354 302.829Z" fill="#2E90FA"/>
<path opacity="0.5" d="M117.354 302.829L117.746 290.314L123.031 290.408L121.618 304.225L117.354 302.829Z" fill="white"/>
<path d="M173.676 235.516C172.743 233.803 169.901 230.437 167.162 229.966C163.526 229.34 162.75 229.203 148.72 231.319C142.101 232.313 141.622 237.418 141.988 240.065C142.038 240.42 142.185 240.755 142.415 241.033L142.72 241.401C143.4 241.607 173.24 236.459 173.546 236.621C173.669 236.467 173.747 236.282 173.77 236.087C173.793 235.892 173.761 235.694 173.676 235.516Z" fill="#2E90FA"/>
<path opacity="0.2" d="M173.676 235.516C172.743 233.803 169.901 230.437 167.162 229.966C163.526 229.34 162.75 229.203 148.72 231.319C142.101 232.313 141.622 237.418 141.988 240.065C142.038 240.42 142.185 240.755 142.415 241.033L142.72 241.401C143.4 241.607 173.24 236.459 173.546 236.621C173.669 236.467 173.747 236.282 173.77 236.087C173.793 235.892 173.761 235.694 173.676 235.516Z" fill="white"/>
<path d="M206.063 186.15C207.997 186.01 209.871 185.423 211.53 184.437C212.674 183.649 213.649 182.648 214.399 181.49C214.639 181.144 214.741 180.723 214.687 180.308C214.561 179.335 214.169 178.415 213.553 177.644C213.384 177.443 213.143 177.314 212.88 177.284C212.617 177.254 212.352 177.324 212.141 177.481C211.129 178.192 209.978 178.937 209.071 179.631C206.516 180.102 204.092 182.415 203.883 184.959C204.572 185.293 205.365 185.79 206.063 186.15Z" fill="#FFC2BC"/>
<path d="M207.179 182.783L207.876 186.099C207.876 186.099 191.09 197.774 187.89 197.945C185.693 198.065 183.146 198.177 180.513 198.262C177.496 198.365 174.348 198.425 171.488 198.408C166.317 198.365 162.088 198.031 161.224 197.14C158.608 194.425 161.407 190.142 165.497 190.185C170.825 190.236 180.138 191.478 188.98 191.144C192.006 191.033 207.179 182.783 207.179 182.783Z" fill="#FFC2BC"/>
<path opacity="0.2" d="M180.504 198.262C177.487 198.365 174.339 198.425 171.479 198.408L168.296 193.937C172.507 194.961 176.598 196.411 180.504 198.262Z" fill="black"/>
<path d="M170.041 189.225C170.041 189.225 162.637 187.846 161.382 191.358C160.126 194.87 163.422 201.123 173.712 200.027L174.758 189.336L170.041 189.225Z" fill="#2E90FA"/>
<path opacity="0.2" d="M170.041 189.225C170.041 189.225 162.637 187.846 161.382 191.358C160.126 194.87 163.422 201.123 173.712 200.027L174.758 189.336L170.041 189.225Z" fill="white"/>
<path d="M164.381 189.311C164.582 189.653 170.215 196.926 171 202.597C171.566 206.691 171 211.163 170.921 215.72C170.86 219.01 172.046 225.999 172.046 225.999L172.979 228.107C173.356 228.962 173.54 229.887 173.519 230.818C173.498 231.75 173.272 232.666 172.857 233.503L172.447 234.36L142.354 238.318L142.171 238.223C142.171 238.223 139.494 236.022 140.384 233.221V231.054C141.587 227.19 141.256 222.213 138.273 211.942C137.323 208.593 136.268 204.481 136.268 204.481C137.061 197.08 134.611 193.345 134.585 193.345C134.559 193.345 134.585 193.303 134.585 193.294C138.207 192.12 141.911 191.204 145.668 190.553C149.659 189.82 153.698 189.368 157.754 189.199C161.573 189.191 164.372 189.302 164.381 189.311Z" fill="#2E90FA"/>
<path d="M161.408 163.261C163.3 165.411 163.71 168.401 164.512 171.168C165.166 173.395 166.587 177.918 165.706 180.059C164.704 182.501 159.768 180.436 158.129 182.509C151.606 190.793 147.665 187.229 145.162 185.182C143.906 184.171 139.137 183.169 137.907 182.132C136.678 181.096 134.576 180.573 135.483 176.547C139.11 160.417 145.136 159.467 153.176 159.903C156.254 160.066 159.332 160.897 161.408 163.261Z" fill="#263238"/>
<path d="M145.302 177.07C146.514 180.813 148.092 187.726 145.659 190.587L147.63 192.489C148.416 193.242 149.396 193.77 150.466 194.014C151.535 194.259 152.653 194.211 153.696 193.875C154.74 193.54 155.67 192.929 156.385 192.111C157.1 191.293 157.574 190.298 157.754 189.234C153.315 188.694 154.109 184.308 153.167 180.119L145.302 177.07Z" fill="#FFC2BC"/>
<path opacity="0.2" d="M155.33 175.699C154.51 178.74 153.429 183.631 154.458 186.947C150.499 187.418 147.752 183.957 147.56 182.835C148.002 181.489 148.337 180.111 148.563 178.715L155.33 175.699Z" fill="black"/>
<path d="M143.95 171.202C144.63 177.609 144.778 180.333 148.222 183.486C153.402 188.231 161.302 186.004 162.541 179.537C163.692 173.712 162.384 164.229 155.879 161.933C154.446 161.422 152.904 161.28 151.4 161.519C149.896 161.758 148.478 162.371 147.283 163.3C146.088 164.228 145.154 165.442 144.57 166.825C143.987 168.208 143.773 169.715 143.95 171.202Z" fill="#FFC2BC"/>
<path d="M145.52 174.569C146.03 175.427 146.301 176.402 146.304 177.395C146.591 177.18 146.795 176.876 146.885 176.533C146.976 176.19 146.946 175.827 146.801 175.502C146.592 174.826 146.235 174.5 145.52 174.569Z" fill="#263238"/>
<path d="M141.866 177.447C142.543 178.5 143.614 179.25 144.848 179.537C146.487 179.888 147.22 178.432 146.688 176.967C146.217 175.639 144.778 173.883 143.2 174.149C142.641 174.266 142.152 174.596 141.84 175.066C141.528 175.536 141.418 176.109 141.535 176.659C141.588 176.941 141.701 177.209 141.866 177.447Z" fill="#FFC2BC"/>
<path d="M153.28 172.701C153.28 173.267 153.629 173.695 153.996 173.695C154.362 173.695 154.658 173.207 154.632 172.65C154.606 172.093 154.275 171.656 153.908 171.665C153.542 171.673 153.254 172.144 153.28 172.701Z" fill="#263238"/>
<path d="M159.742 172.444C159.742 173.001 160.091 173.438 160.466 173.429C160.841 173.421 161.129 172.949 161.094 172.384C161.059 171.819 160.754 171.39 160.379 171.39C160.004 171.39 159.69 171.862 159.742 172.444Z" fill="#263238"/>
<path d="M160.213 171.425L161.556 171.014C161.556 171.014 160.919 172.033 160.213 171.425Z" fill="#263238"/>
<path d="M158.077 173.472C158.644 174.732 159.383 175.911 160.274 176.976C159.99 177.191 159.663 177.343 159.313 177.421C158.964 177.499 158.602 177.502 158.251 177.43L158.077 173.472Z" fill="#EC837E"/>
<path d="M156.289 179.391C156.615 179.518 156.954 179.609 157.3 179.665C157.319 179.669 157.338 179.669 157.356 179.666C157.374 179.662 157.392 179.655 157.407 179.644C157.423 179.634 157.436 179.621 157.446 179.605C157.456 179.59 157.463 179.572 157.466 179.554C157.469 179.518 157.46 179.482 157.439 179.453C157.419 179.423 157.388 179.401 157.353 179.391C156.643 179.289 155.968 179.023 155.384 178.613C154.8 178.203 154.324 177.662 153.995 177.036C153.984 177.003 153.961 176.974 153.931 176.956C153.901 176.937 153.865 176.929 153.83 176.933C153.797 176.939 153.767 176.958 153.748 176.985C153.728 177.012 153.72 177.046 153.725 177.078C154.24 178.148 155.16 178.978 156.289 179.391Z" fill="#263238"/>
<path d="M151.728 168.538C151.766 168.549 151.807 168.549 151.846 168.538C151.884 168.527 151.919 168.507 151.946 168.478C152.198 168.21 152.511 168.004 152.86 167.879C153.209 167.754 153.583 167.713 153.952 167.759C154.017 167.767 154.083 167.751 154.138 167.715C154.192 167.679 154.232 167.624 154.248 167.561C154.259 167.533 154.264 167.503 154.263 167.473C154.262 167.443 154.255 167.414 154.242 167.387C154.229 167.359 154.21 167.335 154.187 167.315C154.164 167.295 154.138 167.28 154.109 167.27C153.663 167.209 153.208 167.255 152.785 167.404C152.361 167.553 151.98 167.801 151.676 168.127C151.628 168.169 151.597 168.227 151.589 168.29C151.581 168.353 151.597 168.417 151.632 168.469C151.641 168.488 151.655 168.503 151.672 168.515C151.688 168.527 151.708 168.535 151.728 168.538Z" fill="#263238"/>
<path d="M162.193 168.512C162.239 168.526 162.288 168.528 162.336 168.518C162.383 168.507 162.427 168.485 162.463 168.452C162.514 168.401 162.543 168.332 162.543 168.26C162.543 168.187 162.514 168.118 162.463 168.067C162.12 167.677 161.687 167.374 161.2 167.185C160.712 166.995 160.185 166.925 159.664 166.979C159.628 166.982 159.594 166.992 159.563 167.009C159.532 167.025 159.505 167.048 159.483 167.075C159.461 167.102 159.444 167.134 159.435 167.167C159.426 167.201 159.423 167.236 159.428 167.27C159.441 167.342 159.482 167.405 159.543 167.447C159.603 167.489 159.678 167.505 159.751 167.493C160.182 167.459 160.614 167.525 161.014 167.686C161.414 167.847 161.77 168.097 162.053 168.418C162.087 168.465 162.136 168.498 162.193 168.512Z" fill="#263238"/>
<path d="M153.751 171.699L155.094 171.279C155.094 171.279 154.449 172.333 153.751 171.699Z" fill="#263238"/>
<path d="M150.185 164.94C152.112 167.253 145.145 173.301 145.52 174.568C143.627 174.688 142.224 170.791 142.128 168.769C142.031 166.728 142.68 164.719 143.959 163.107C144.77 162.088 146.27 161.899 147.586 161.728C147.968 161.648 148.364 161.678 148.729 161.813C148.948 161.93 149.135 162.098 149.272 162.303C149.408 162.508 149.492 162.743 149.513 162.987C149.61 163.674 149.838 164.337 150.185 164.94Z" fill="#263238"/>
<path d="M147.586 161.728C148.842 162.707 149.767 164.035 150.242 165.539C150.717 167.043 150.718 168.652 150.246 170.157C151.091 169.48 151.791 168.644 152.304 167.699C152.573 167.206 152.698 166.65 152.664 166.091C152.631 165.533 152.439 164.995 152.112 164.538C153.032 165.204 153.809 166.043 154.397 167.006C154.986 167.969 155.374 169.037 155.539 170.148C155.933 169.864 156.258 169.498 156.492 169.076C156.725 168.654 156.862 168.187 156.891 167.707C156.932 167.236 156.867 166.762 156.701 166.318C156.535 165.874 156.273 165.471 155.931 165.137C156.601 165.714 157.113 166.447 157.417 167.269C157.722 168.091 157.811 168.975 157.675 169.84C158.12 169.503 158.475 169.065 158.71 168.564C158.946 168.063 159.054 167.513 159.027 166.962C158.979 166.373 158.797 165.802 158.496 165.29C158.194 164.779 157.78 164.34 157.283 164.006C158.198 164.502 158.965 165.225 159.506 166.103C160.048 166.981 160.346 167.983 160.37 169.009C162.358 167.116 161.687 164.401 159.245 162.91C155.667 161.028 151.48 160.604 147.586 161.728Z" fill="#263238"/>
<path d="M146.627 188.506L144.29 190.81C144.29 190.81 153.202 196.532 153.333 196.147C153.902 195.29 154.528 194.472 155.207 193.697L146.627 188.506Z" fill="#2E90FA"/>
<path d="M155.434 188.017L158.547 189.131C158.547 189.131 158.242 195.615 157.954 195.316C157.076 194.77 156.161 194.284 155.216 193.859L155.434 188.017Z" fill="#2E90FA"/>
<path opacity="0.2" d="M146.627 188.506L144.29 190.81C144.29 190.81 153.202 196.532 153.333 196.147C153.902 195.29 154.528 194.472 155.207 193.697L146.627 188.506Z" fill="white"/>
<path opacity="0.2" d="M155.434 188.017L158.547 189.131C158.547 189.131 158.242 195.615 157.954 195.316C157.076 194.77 156.161 194.284 155.216 193.859L155.434 188.017Z" fill="white"/>
<path d="M98.7106 215.523L91.2026 216.226L93.8186 222.016C95.8552 221.14 97.8026 220.076 99.6349 218.838L98.7106 215.523Z" fill="#FFC2BC"/>
<path d="M88.4296 220.654L88.5517 220.868C88.7814 221.26 89.1156 221.583 89.5182 221.802C89.9208 222.02 90.3765 222.127 90.8363 222.111L93.8273 222.016L91.2113 216.226L89.3801 217.254C89.0894 217.415 88.8341 217.631 88.6288 217.889C88.4235 218.148 88.2724 218.443 88.184 218.759C88.0956 219.076 88.0719 219.406 88.114 219.731C88.1562 220.056 88.2634 220.37 88.4296 220.654Z" fill="#FFC2BC"/>
<path d="M100.394 218.624C100.394 218.624 113.517 219.806 125.804 214.11C125.804 214.11 134.062 207.351 138.526 201.672C145.153 193.226 138.988 190.681 134.096 196.13C130.469 200.173 122.063 207.985 122.063 207.985C111.503 213.981 97.7863 215.849 97.7863 215.849C95.1267 219.618 100.394 218.624 100.394 218.624Z" fill="#FFC2BC"/>
<path d="M142.328 192.917C145.45 195.376 140.794 201.8 134.725 209.527L127.199 199.933C127.199 199.933 136.748 188.523 142.328 192.917Z" fill="#2E90FA"/>
<path opacity="0.2" d="M142.328 192.917C145.45 195.376 140.794 201.8 134.725 209.527L127.199 199.933C127.199 199.933 136.748 188.523 142.328 192.917Z" fill="white"/>
</svg>
