<svg width="404" height="404" viewBox="0 0 404 404" fill="none" xmlns="http://www.w3.org/2000/svg">
<path d="M404 308.979H0V309.181H404V308.979Z" fill="#EBEBEB"/>
<path d="M191.496 272.942H35.4791C34.2569 272.94 33.0855 272.453 32.222 271.588C31.3585 270.723 30.8735 269.551 30.8735 268.329V49.0132C30.8842 47.798 31.3738 46.6361 32.2362 45.7798C33.0985 44.9235 34.2639 44.442 35.4791 44.4399H191.496C192.719 44.4399 193.893 44.926 194.758 45.7913C195.623 46.6565 196.11 47.83 196.11 49.0536V268.329C196.11 269.552 195.623 270.726 194.758 271.591C193.893 272.456 192.719 272.942 191.496 272.942ZM35.4791 44.6015C34.3105 44.6037 33.1904 45.0694 32.3648 45.8965C31.5392 46.7237 31.0755 47.8446 31.0755 49.0132V268.329C31.0755 269.497 31.5392 270.618 32.3648 271.445C33.1904 272.272 34.3105 272.738 35.4791 272.74H191.496C192.665 272.738 193.786 272.273 194.613 271.446C195.44 270.619 195.905 269.498 195.908 268.329V49.0132C195.905 47.8438 195.44 46.7229 194.613 45.8961C193.786 45.0692 192.665 44.6037 191.496 44.6015H35.4791Z" fill="#EBEBEB"/>
<path d="M366.275 272.942H210.25C209.027 272.94 207.855 272.453 206.99 271.589C206.125 270.724 205.638 269.552 205.636 268.329V49.0132C205.649 47.7973 206.14 46.6353 207.004 45.7793C207.868 44.9232 209.034 44.442 210.25 44.4399H366.275C367.489 44.4441 368.652 44.9266 369.512 45.7826C370.373 46.6387 370.862 47.7994 370.872 49.0132V268.329C370.872 269.549 370.388 270.721 369.527 271.585C368.665 272.45 367.496 272.938 366.275 272.942ZM210.25 44.6015C209.081 44.6037 207.96 45.0692 207.133 45.8961C206.306 46.7229 205.84 47.8438 205.838 49.0132V268.329C205.84 269.498 206.306 270.619 207.133 271.446C207.96 272.273 209.081 272.738 210.25 272.74H366.275C367.444 272.738 368.565 272.273 369.392 271.446C370.219 270.619 370.684 269.498 370.686 268.329V49.0132C370.684 47.8438 370.219 46.7229 369.392 45.8961C368.565 45.0692 367.444 44.6037 366.275 44.6015H210.25Z" fill="#EBEBEB"/>
<path d="M161.956 316.671H140.948V316.873H161.956V316.671Z" fill="#EBEBEB"/>
<path d="M86.1005 314.482H42.3877V314.684H86.1005V314.482Z" fill="#EBEBEB"/>
<path d="M140.14 324.178H118.873V324.38H140.14V324.178Z" fill="#EBEBEB"/>
<path d="M240.025 322.82H208.65V323.022H240.025V322.82Z" fill="#EBEBEB"/>
<path d="M255.853 322.82H247.216V323.022H255.853V322.82Z" fill="#EBEBEB"/>
<path d="M363.527 319.41H319.443V319.612H363.527V319.41Z" fill="#EBEBEB"/>
<path d="M307.897 301.812H344.782V200.433H307.897V301.812Z" fill="#F0F0F0"/>
<path d="M146.838 308.971H337.695V301.804H146.838V308.971Z" fill="#F0F0F0"/>
<path d="M307.896 200.424H139.76V301.804H307.896V200.424Z" fill="#F5F5F5"/>
<path d="M308.543 207.292H139.76V244.404H308.543V207.292Z" fill="#F0F0F0"/>
<path d="M308.543 251.167H139.76V288.278H308.543V251.167Z" fill="#F0F0F0"/>
<path d="M307.897 244.396H314.28V207.284H307.897V244.396Z" fill="#E6E6E6"/>
<path d="M307.897 288.27H314.28V251.159H307.897V288.27Z" fill="#E6E6E6"/>
<path d="M134.847 200.424L307.896 200.424V194.187L134.847 194.187V200.424Z" fill="#F0F0F0"/>
<path d="M349.937 194.187H307.896V200.424H349.937V194.187Z" fill="#E6E6E6"/>
<path d="M265.145 175.118H351.949V66.0053L265.145 66.0053V175.118Z" fill="#F0F0F0"/>
<path d="M245.979 175.118H348.62V66.0053L245.979 66.0053V175.118Z" fill="#F5F5F5"/>
<path d="M254.577 74.6027V166.521H340.023V74.6027H254.577Z" fill="white"/>
<path d="M306.757 130.508L323.087 122.937V118.178L306.757 110.591V116.295L316.68 120.57L306.757 124.844V130.508Z" fill="#E6E6E6"/>
<path d="M296.107 108.393H293.126L298.41 132.722H301.384L296.107 108.393Z" fill="#E6E6E6"/>
<path d="M287.834 124.844L277.952 120.57L287.874 116.295V110.591L271.488 118.178V122.937L287.817 130.508L287.834 124.844Z" fill="#E6E6E6"/>
<path d="M94.7135 308.979H100.402L100.402 123.802H94.7135L94.7135 308.979Z" fill="#F0F0F0"/>
<path d="M93.5262 307.686L93.3727 306.878C93.9577 306.69 94.4982 306.385 94.9609 305.981C95.4236 305.576 95.7987 305.082 96.0633 304.527C97.542 301.909 98.4389 296.326 94.3261 284.626C87.9914 266.591 91.7729 252.047 99.3115 223.056C100.62 218.006 102.107 212.286 103.65 206.088C109.444 182.923 104.087 168.557 99.7801 157.011C96.4431 148.05 93.8009 140.972 97.1784 132.771L97.9298 133.078C94.6978 140.98 97.2592 147.929 100.54 156.728C104.887 168.371 110.292 182.875 104.434 206.274C102.891 212.464 101.404 218.184 100.095 223.242C92.597 252.096 88.8317 266.575 95.0937 284.416C99.3196 296.447 98.3257 302.265 96.7097 305.02C96.389 305.658 95.9411 306.224 95.3936 306.682C94.8461 307.141 94.2106 307.482 93.5262 307.686Z" fill="#F0F0F0"/>
<path d="M87.2559 308.979H107.852L102.123 305.602H92.9846L87.2559 308.979Z" fill="#F0F0F0"/>
<path d="M56.8105 147.387H138.297L129.329 78.9172H65.7794L56.8105 147.387Z" fill="#F5F5F5"/>
<path d="M177.663 158.675H221.166L215.437 194.187H183.392L177.663 158.675Z" fill="#F0F0F0"/>
<path d="M195.14 170.229C207.002 165.939 216.084 159.491 205.919 146.442C195.754 133.393 180.006 133.457 169.389 139.235C155.863 146.587 158.578 167.878 158.578 167.878C158.578 167.878 183.279 174.528 195.14 170.229Z" fill="#E0E0E0"/>
<path d="M206.67 158.368C197.596 152.187 191.165 145.036 201.693 137.489C212.221 129.942 225.206 133.813 233.011 140.818C242.958 149.755 237.213 165.438 237.213 165.438C237.213 165.438 215.736 164.517 206.67 158.368Z" fill="#E6E6E6"/>
<path d="M190.688 142.685C201.305 142.046 210.209 139.275 205.183 127.777C200.158 116.279 187.407 113.055 177.461 115.027C164.751 117.54 161.753 133.441 161.753 133.441C161.753 133.441 180.079 143.331 190.688 142.685Z" fill="#F0F0F0"/>
<path d="M204.02 135.905C195.189 133.061 188.264 128.803 194.995 120.166C201.725 111.528 213.175 111.577 221.174 115.39C231.371 120.238 230.466 134.346 230.466 134.346C230.466 134.346 212.852 138.742 204.02 135.905Z" fill="#EBEBEB"/>
<path d="M187.456 121.2C196.271 124.109 204.375 124.739 204.012 113.799C203.648 102.858 194.388 96.152 185.678 94.4875C174.568 92.419 167.005 104.337 167.005 104.337C167.005 104.337 178.657 118.267 187.456 121.2Z" fill="#F5F5F5"/>
<path d="M209.83 116.473C203.519 116.91 198.065 115.956 200.134 108.789C202.202 101.622 209.474 98.7699 215.486 99.1658C223.162 99.6749 226.143 108.862 226.143 108.862C226.143 108.862 216.132 116.045 209.83 116.473Z" fill="#FAFAFA"/>
<path d="M202 345.468C288.523 345.468 358.663 341.373 358.663 336.322C358.663 331.27 288.523 327.175 202 327.175C115.477 327.175 45.3369 331.27 45.3369 336.322C45.3369 341.373 115.477 345.468 202 345.468Z" fill="#F5F5F5"/>
<path d="M338.762 202.881H64.2441V212.73H338.762V202.881Z" fill="#2E90FA"/>
<path opacity="0.3" d="M137.716 202.881H64.2441V212.73H137.716V202.881Z" fill="white"/>
<path d="M138.887 212.73H132.496L135.841 336.176H138.887H141.934L145.287 212.73H138.887Z" fill="#2E90FA"/>
<path opacity="0.3" d="M135.841 336.176H138.887V215.38L132.601 216.528L135.841 336.176Z" fill="white"/>
<path d="M78.3112 212.73H71.9199L75.265 336.176H78.3112H81.3574L84.7025 212.73H78.3112Z" fill="#2E90FA"/>
<path opacity="0.3" d="M75.2653 336.176H78.3114V215.38L72.0171 216.528L75.2653 336.176Z" fill="white"/>
<path d="M324.695 212.73H318.304L321.649 336.176H324.695H327.741L331.094 212.73H324.695Z" fill="#2E90FA"/>
<path opacity="0.3" d="M321.649 336.176H324.695V215.38L318.409 216.528L321.649 336.176Z" fill="white"/>
<path d="M264.119 212.73H257.728L261.073 336.176H264.119H267.165L270.511 212.73H264.119Z" fill="#2E90FA"/>
<path opacity="0.3" d="M261.073 336.176H264.119V215.38L257.833 216.528L261.073 336.176Z" fill="white"/>
<path d="M194.55 150.151H129.28C128.75 150.13 128.223 150.234 127.741 150.456C127.26 150.678 126.838 151.01 126.509 151.426C126.181 151.842 125.955 152.33 125.851 152.85C125.747 153.369 125.767 153.906 125.91 154.417L134.605 195.908C134.884 197.081 135.539 198.132 136.469 198.9C137.399 199.668 138.554 200.113 139.76 200.166H205.078C205.607 200.186 206.133 200.082 206.614 199.861C207.095 199.639 207.517 199.308 207.845 198.893C208.173 198.478 208.399 197.991 208.504 197.472C208.609 196.954 208.589 196.418 208.448 195.908L199.746 154.417C199.465 153.235 198.805 152.178 197.867 151.408C196.929 150.637 195.764 150.196 194.55 150.151Z" fill="#263238"/>
<path d="M140.325 197.798C139.511 197.743 138.735 197.433 138.108 196.91C137.481 196.388 137.036 195.681 136.835 194.89L128.141 153.399C128.066 153.124 128.055 152.836 128.106 152.557C128.158 152.277 128.272 152.013 128.44 151.783C128.614 151.586 128.83 151.431 129.072 151.329C129.314 151.227 129.575 151.18 129.838 151.193H195.156C195.97 151.248 196.746 151.559 197.373 152.081C198 152.604 198.446 153.311 198.647 154.102L207.341 195.593C207.415 195.867 207.427 196.155 207.375 196.435C207.324 196.714 207.21 196.979 207.042 197.209C206.869 197.407 206.653 197.563 206.411 197.665C206.169 197.767 205.907 197.813 205.644 197.798H140.325Z" fill="white"/>
<path opacity="0.4" d="M189.605 194.477L181.364 155.136C181.317 154.903 181.323 154.663 181.38 154.432C181.437 154.202 181.544 153.987 181.694 153.802C181.843 153.618 182.032 153.469 182.246 153.366C182.46 153.262 182.694 153.207 182.931 153.205H193.532C193.9 153.208 194.255 153.336 194.54 153.568C194.825 153.8 195.022 154.122 195.1 154.481L203.341 193.791C203.387 194.024 203.382 194.264 203.325 194.494C203.268 194.725 203.161 194.94 203.011 195.124C202.861 195.309 202.673 195.458 202.459 195.561C202.245 195.664 202.011 195.719 201.774 195.722H191.173C190.81 195.721 190.457 195.597 190.173 195.371C189.889 195.146 189.689 194.831 189.605 194.477Z" fill="#2E90FA"/>
<path d="M133.579 156.647L133.223 154.942H146.313L146.668 156.647H133.579Z" fill="#2E90FA"/>
<path d="M139.623 160.881L139.267 159.176H162.206L162.57 160.881H139.623Z" fill="#EBEBEB"/>
<path d="M140.834 165.107L140.471 163.402H166.189L166.545 165.107H140.834Z" fill="#EBEBEB"/>
<path d="M142.038 169.341L141.683 167.636H162.384L162.747 169.341H142.038Z" fill="#EBEBEB"/>
<path d="M137.562 176.2L137.198 174.496H145.48L145.836 176.2H137.562Z" fill="#2E90FA"/>
<path d="M143.598 180.426L143.242 178.721H153.326L153.69 180.426H143.598Z" fill="#EBEBEB"/>
<path d="M156.106 180.426L155.742 178.721H165.834L166.19 180.426H156.106Z" fill="#EBEBEB"/>
<path d="M144.81 184.66L144.454 182.955H178.552L178.907 184.66H144.81Z" fill="#EBEBEB"/>
<path d="M146.014 188.886L145.658 187.181H171.66L172.015 188.886H146.014Z" fill="#EBEBEB"/>
<path d="M225.044 199.915H139.105C136.762 199.915 135.243 201.248 135.736 202.881H230.199C229.714 201.248 227.387 199.915 225.044 199.915Z" fill="#263238"/>
<path opacity="0.1" d="M110.866 139.663L102.616 100.345C102.571 100.113 102.578 99.8737 102.635 99.6442C102.693 99.4147 102.8 99.2007 102.95 99.0172C103.099 98.8338 103.287 98.6855 103.5 98.5827C103.714 98.4799 103.947 98.4251 104.183 98.4224H170.924C171.291 98.4248 171.645 98.5517 171.93 98.7822C172.215 99.0126 172.413 99.3331 172.492 99.6909L180.741 138.976C180.788 139.209 180.782 139.449 180.725 139.68C180.668 139.91 180.561 140.125 180.411 140.31C180.261 140.494 180.073 140.643 179.859 140.746C179.645 140.85 179.411 140.904 179.174 140.907H112.433C112.07 140.906 111.718 140.782 111.434 140.557C111.149 140.331 110.949 140.016 110.866 139.663Z" fill="#2E90FA"/>
<path d="M134.589 99.7153H120.578L120.263 98.2043H134.273L134.589 99.7153Z" fill="#2E90FA"/>
<path opacity="0.4" d="M132.31 102.123H126.686L126.371 100.612H131.995L132.31 102.123Z" fill="#2E90FA"/>
<path opacity="0.4" d="M141.667 102.123H133.005L132.69 100.612H141.352L141.667 102.123Z" fill="#2E90FA"/>
<path opacity="0.4" d="M145.44 104.523H127.187L126.872 103.012H145.133L145.44 104.523Z" fill="#2E90FA"/>
<path opacity="0.4" d="M143.121 106.931H127.688L127.373 105.42H142.806L143.121 106.931Z" fill="#2E90FA"/>
<path opacity="0.4" d="M153.358 132.471H143.533L143.848 133.974H153.674L153.358 132.471Z" fill="#2E90FA"/>
<path d="M141.109 129.175H126.719L126.404 127.664H140.794L141.109 129.175Z" fill="#2E90FA"/>
<path opacity="0.4" d="M146.895 134.871H133.514L133.829 136.382H147.21L146.895 134.871Z" fill="#2E90FA"/>
<path opacity="0.4" d="M142.838 132.471H133.013L133.328 133.974H143.154L142.838 132.471Z" fill="#2E90FA"/>
<path opacity="0.4" d="M152.163 130.064H132.512L132.827 131.575H152.478L152.163 130.064Z" fill="#2E90FA"/>
<path d="M134.096 88.5002H118.243L117.928 86.9973H133.781L134.096 88.5002Z" fill="#2E90FA"/>
<path opacity="0.4" d="M141.925 94.2046H124.44L124.755 95.7156H142.232L141.925 94.2046Z" fill="#2E90FA"/>
<path opacity="0.4" d="M138.426 91.8049H123.939L124.254 93.3078H138.742L138.426 91.8049Z" fill="#2E90FA"/>
<path opacity="0.4" d="M139.388 89.397H123.438L123.753 90.9079H139.703L139.388 89.397Z" fill="#2E90FA"/>
<path d="M133.918 110.841H122.897L122.582 109.33H133.603L133.918 110.841Z" fill="#2E90FA"/>
<path opacity="0.4" d="M151.226 116.538H129.692L130.008 118.049H151.533L151.226 116.538Z" fill="#2E90FA"/>
<path opacity="0.4" d="M138.112 114.138H129.191L129.507 115.649H138.427L138.112 114.138Z" fill="#2E90FA"/>
<path opacity="0.4" d="M147.791 114.138H138.871L139.186 115.649H148.107L147.791 114.138Z" fill="#2E90FA"/>
<path opacity="0.4" d="M148.341 111.73H128.69L129.006 113.241H148.648L148.341 111.73Z" fill="#2E90FA"/>
<path opacity="0.4" d="M148.3 123.753H131.195L131.51 125.256H148.615L148.3 123.753Z" fill="#2E90FA"/>
<path opacity="0.4" d="M135.671 121.345H130.694L131.009 122.856H135.978L135.671 121.345Z" fill="#2E90FA"/>
<path opacity="0.4" d="M143.452 121.345H136.35L136.665 122.856H143.768L143.452 121.345Z" fill="#2E90FA"/>
<path opacity="0.4" d="M149.843 118.946H130.193L130.508 120.448H150.159L149.843 118.946Z" fill="#2E90FA"/>
<path opacity="0.4" d="M165.317 118.542H158.279L157.964 117.031H165.01L165.317 118.542Z" fill="#2E90FA"/>
<path opacity="0.4" d="M177.033 118.542H166.19L165.875 117.031H176.718L177.033 118.542Z" fill="#2E90FA"/>
<path opacity="0.4" d="M181.638 120.949H158.78L158.465 119.438H181.323L181.638 120.949Z" fill="#2E90FA"/>
<path opacity="0.4" d="M178.6 123.349H159.281L158.966 121.838H178.285L178.6 123.349Z" fill="#2E90FA"/>
<path opacity="0.4" d="M187.254 108.983H165.365L165.68 110.486H187.569L187.254 108.983Z" fill="#2E90FA"/>
<path opacity="0.4" d="M183.004 106.575H164.864L165.179 108.086H183.311L183.004 106.575Z" fill="#2E90FA"/>
<path d="M179.723 104.175H159.75L160.065 105.678H180.038L179.723 104.175Z" fill="#2E90FA"/>
<path opacity="0.4" d="M188.24 132.964H161.285L161.6 134.475H188.555L188.24 132.964Z" fill="#2E90FA"/>
<path opacity="0.4" d="M171.951 130.565H160.784L161.099 132.068H172.266L171.951 130.565Z" fill="#2E90FA"/>
<path opacity="0.4" d="M184.07 130.565H172.904L173.219 132.068H184.385L184.07 130.565Z" fill="#2E90FA"/>
<path opacity="0.4" d="M184.879 128.157H160.283L160.598 129.668H185.194L184.879 128.157Z" fill="#2E90FA"/>
<path opacity="0.4" d="M184.2 140.172H162.788L163.103 141.683H184.515L184.2 140.172Z" fill="#2E90FA"/>
<path opacity="0.4" d="M168.517 137.772H162.287L162.602 139.283H168.832L168.517 137.772Z" fill="#2E90FA"/>
<path opacity="0.4" d="M178.261 137.772H169.373L169.688 139.283H178.576L178.261 137.772Z" fill="#2E90FA"/>
<path opacity="0.4" d="M186.39 135.364H161.786L162.101 136.875H186.697L186.39 135.364Z" fill="#2E90FA"/>
<path opacity="0.4" d="M120.877 142.038H104.119L104.434 143.549H121.192L120.877 142.038Z" fill="#2E90FA"/>
<path opacity="0.4" d="M115.924 139.638H103.618L103.933 141.141H116.231L115.924 139.638Z" fill="#2E90FA"/>
<path opacity="0.4" d="M129.086 139.638H116.789L117.104 141.141H129.41L129.086 139.638Z" fill="#2E90FA"/>
<path opacity="0.4" d="M127.721 137.231H103.117L103.432 138.742H128.028L127.721 137.231Z" fill="#2E90FA"/>
<path d="M315.887 187.181H305.513L306.725 202.881H314.675L315.887 187.181Z" fill="#2E90FA"/>
<path opacity="0.4" d="M315.887 187.181H305.513L306.725 202.881H314.675L315.887 187.181Z" fill="white"/>
<path d="M89.793 176.281H104.709L99.6183 202.881H84.7026L89.793 176.281Z" fill="#263238"/>
<path d="M108.789 169.155H87.7246L93.623 202.881H114.688L108.789 169.155Z" fill="#2E90FA"/>
<path d="M86.4805 169.155H87.7248L93.6232 202.881H92.3789L86.4805 169.155Z" fill="#2E90FA"/>
<path opacity="0.3" d="M86.4805 169.155H87.7248L93.6232 202.881H92.3789L86.4805 169.155Z" fill="black"/>
<path d="M96.6531 199.269L92.0151 172.759H105.767L110.397 199.269H96.6531Z" fill="white"/>
<path opacity="0.6" d="M109.743 199.269L105.113 172.759H105.767L110.397 199.269H109.743Z" fill="#2E90FA"/>
<path d="M213.126 126.048C213.425 126.694 213.328 127.381 212.9 127.575C212.472 127.769 211.89 127.405 211.591 126.767C211.292 126.129 211.397 125.434 211.817 125.24C212.238 125.046 212.827 125.369 213.126 126.048Z" fill="#263238"/>
<path d="M213.385 127.325C213.385 127.325 213.643 131.736 212.852 134.29C214.468 134.831 216.213 133.482 216.213 133.482L213.385 127.325Z" fill="#FF5652"/>
<path d="M213.207 120.707C213.138 120.764 213.054 120.798 212.965 120.804C212.439 120.818 211.924 120.956 211.462 121.208C211 121.459 210.604 121.816 210.306 122.25C210.28 122.3 210.244 122.344 210.2 122.379C210.156 122.415 210.105 122.441 210.051 122.456C209.997 122.472 209.94 122.476 209.884 122.469C209.828 122.463 209.774 122.444 209.726 122.416C209.677 122.388 209.634 122.35 209.6 122.305C209.566 122.26 209.542 122.209 209.528 122.154C209.514 122.1 209.512 122.043 209.521 121.987C209.53 121.931 209.549 121.878 209.579 121.83C209.945 121.275 210.439 120.815 211.02 120.49C211.601 120.165 212.251 119.985 212.916 119.964C213.005 119.959 213.092 119.982 213.167 120.03C213.241 120.078 213.298 120.148 213.331 120.23C213.363 120.313 213.368 120.403 213.346 120.489C213.324 120.574 213.275 120.651 213.207 120.707Z" fill="#263238"/>
<path d="M236.922 125.046C239.419 133.692 242.206 140.398 245.608 144.228C245.608 144.228 245.673 151.023 234.094 154.255C221.36 157.811 226.24 149.634 226.24 149.634C232.704 146.038 232.09 140.608 227.226 138.54L236.922 125.046Z" fill="#FF8B7B"/>
<path d="M248.307 142.572C248.08 139.412 247.781 135.809 245.834 135.712C243.685 135.615 231.242 141.174 228.583 145.093C225.925 149.011 231.12 152.849 231.12 152.849L248.307 142.572Z" fill="#263238"/>
<path d="M222.838 191.496L212.092 191.141L212.286 200.142C212.286 200.142 221.659 199.172 222.071 196.708L222.838 191.496Z" fill="#FF8B7B"/>
<path d="M206.412 195.56L205.281 200.166L212.286 200.15L212.092 191.149L206.412 195.56Z" fill="#FF8B7B"/>
<path d="M265.969 154.094L265.743 156.405C265.67 157.148 265.573 157.875 265.476 158.611C265.291 160.073 265.056 161.535 264.806 162.99C264.321 165.907 263.691 168.807 262.964 171.724C262.224 174.697 261.329 177.629 260.281 180.507C259.723 181.986 259.142 183.465 258.447 184.967C257.746 186.544 256.936 188.069 256.023 189.533C255.805 189.912 255.53 190.341 255.263 190.696C254.997 191.052 254.738 191.504 254.455 191.876C254.173 192.248 253.874 192.684 253.502 193.064L252.977 193.662C252.789 193.882 252.589 194.093 252.379 194.292C250.759 195.878 248.861 197.152 246.779 198.049C243.586 199.419 240.196 200.278 236.736 200.594C235.16 200.78 233.601 200.853 232.074 200.893C230.547 200.934 229.019 200.893 227.517 200.812C226.014 200.732 224.527 200.602 223.048 200.425C221.57 200.247 220.131 200.012 218.564 199.697L218.823 191.254C223.982 190.352 229.082 189.137 234.094 187.618C235.209 187.255 236.304 186.835 237.374 186.357C238.286 185.973 239.157 185.499 239.976 184.943C240.452 184.656 240.856 184.264 241.156 183.796L241.39 183.424C241.499 183.265 241.598 183.101 241.689 182.931C241.804 182.746 241.909 182.554 242.004 182.358C242.109 182.148 242.222 181.954 242.327 181.719C243.276 179.647 244.057 177.501 244.662 175.304C245.325 172.928 245.947 170.456 246.448 167.894C246.949 165.333 247.434 162.747 247.878 160.138L248.492 156.211L249.05 152.389L265.969 154.094Z" fill="#2E90FA"/>
<path opacity="0.2" d="M265.969 154.094L265.743 156.405C265.67 157.148 265.573 157.875 265.476 158.611C265.291 160.073 265.056 161.535 264.806 162.99C264.321 165.907 263.691 168.807 262.964 171.724C262.224 174.697 261.329 177.629 260.281 180.507C259.723 181.986 259.142 183.465 258.447 184.967C257.746 186.544 256.936 188.069 256.023 189.533C255.805 189.912 255.53 190.341 255.263 190.696C254.997 191.052 254.738 191.504 254.455 191.876C254.173 192.248 253.874 192.684 253.502 193.064L252.977 193.662C252.789 193.882 252.589 194.093 252.379 194.292C250.759 195.878 248.861 197.152 246.779 198.049C243.586 199.419 240.196 200.278 236.736 200.594C235.16 200.78 233.601 200.853 232.074 200.893C230.547 200.934 229.019 200.893 227.517 200.812C226.014 200.732 224.527 200.602 223.048 200.425C221.57 200.247 220.131 200.012 218.564 199.697L218.823 191.254C223.982 190.352 229.082 189.137 234.094 187.618C235.209 187.255 236.304 186.835 237.374 186.357C238.286 185.973 239.157 185.499 239.976 184.943C240.452 184.656 240.856 184.264 241.156 183.796L241.39 183.424C241.499 183.265 241.598 183.101 241.689 182.931C241.804 182.746 241.909 182.554 242.004 182.358C242.109 182.148 242.222 181.954 242.327 181.719C243.276 179.647 244.057 177.501 244.662 175.304C245.325 172.928 245.947 170.456 246.448 167.894C246.949 165.333 247.434 162.747 247.878 160.138L248.492 156.211L249.05 152.389L265.969 154.094Z" fill="black"/>
<path d="M218.257 164.832C222.263 182.106 224.518 199.739 224.987 217.465H272.296C272.554 211.623 271.569 178.681 266.81 154.886C266.387 152.73 265.538 150.681 264.313 148.859C263.087 147.036 261.51 145.477 259.673 144.272C257.836 143.068 255.777 142.243 253.617 141.845C251.457 141.448 249.239 141.486 247.094 141.958L246.868 142.014C240.962 143.355 232.486 145.521 227.476 147.42L227.274 147.5C223.924 148.803 221.162 151.28 219.502 154.469C217.843 157.657 217.401 161.341 218.257 164.832Z" fill="#2E90FA"/>
<path opacity="0.2" d="M221.335 179.942C221.707 182.212 222.087 184.62 222.434 187.141C226.305 183.101 227.533 170.722 227.533 170.722L221.335 179.942Z" fill="black"/>
<path d="M182.034 192.086L171.296 191.084L170.94 200.077C172.715 200.567 174.59 200.562 176.362 200.062C178.134 199.562 179.735 198.586 180.992 197.241L182.034 192.086Z" fill="#FF8B7B"/>
<path d="M166.19 193.734L162.748 199.915L170.973 200.077L171.329 191.084L166.19 193.734Z" fill="#FF8B7B"/>
<path d="M236.009 160.687C235.265 162.101 234.603 163.353 233.86 164.646C233.116 165.939 232.405 167.199 231.638 168.452C230.118 170.973 228.543 173.445 226.878 175.893C223.537 180.907 219.834 185.671 215.801 190.147C213.641 192.556 211.293 194.791 208.779 196.829C208.464 197.095 208.092 197.354 207.745 197.637C207.397 197.92 207.09 198.146 206.573 198.445C206.056 198.744 205.62 199.043 205.151 199.301C204.683 199.56 204.198 199.794 203.721 200.004C201.939 200.778 200.074 201.345 198.162 201.693C194.819 202.257 191.411 202.333 188.046 201.919C186.47 201.739 184.905 201.469 183.36 201.111C182.589 200.933 181.83 200.731 181.081 200.505C180.273 200.279 179.618 200.028 178.754 199.697L180.087 191.359C185.161 190.672 190.648 189.791 194.429 188.078C195.269 187.733 196.059 187.28 196.78 186.729C197.071 186.529 197.341 186.302 197.588 186.05C197.645 185.977 197.895 185.759 198.081 185.581C198.267 185.404 198.485 185.234 198.687 185.024C200.417 183.31 202.036 181.488 203.535 179.57C206.788 175.373 209.827 171.015 212.641 166.513C214.096 164.226 215.51 161.899 216.924 159.564L219.008 156.057L221.02 152.607L236.009 160.687Z" fill="#2E90FA"/>
<path d="M223.024 329.341H214.184L209.732 308.858H218.58L223.024 329.341Z" fill="#FF8B7B"/>
<path d="M213.692 327.45H223.63C223.803 327.456 223.969 327.518 224.104 327.625C224.24 327.733 224.337 327.881 224.382 328.048L226.127 335.918C226.168 336.109 226.166 336.307 226.12 336.497C226.074 336.687 225.985 336.865 225.861 337.015C225.736 337.166 225.579 337.287 225.401 337.368C225.224 337.45 225.03 337.49 224.834 337.485C221.368 337.429 219.679 337.227 215.308 337.227C212.617 337.227 209.167 337.502 205.458 337.502C201.749 337.502 201.257 333.833 202.776 333.502C209.595 332.007 210.048 329.955 212.253 327.991C212.649 327.639 213.162 327.446 213.692 327.45Z" fill="#263238"/>
<g opacity="0.2">
<path d="M218.588 308.866H209.732L212.205 320.211L220.883 319.427L218.588 308.866Z" fill="black"/>
</g>
<path d="M234.086 114.655C237.318 122.832 239.564 127.462 237.431 133.401C234.199 142.329 222.734 143.234 217.158 136.172C212.149 129.813 207.769 117.508 214.096 110.745C215.482 109.245 217.227 108.125 219.168 107.491C221.108 106.857 223.179 106.73 225.182 107.122C227.186 107.514 229.056 108.412 230.614 109.731C232.172 111.049 233.368 112.744 234.086 114.655Z" fill="#FF8B7B"/>
<path d="M218.556 126.904C217.231 128.682 216.213 130.031 216.213 130.031C216.213 130.031 213.49 123.269 214.532 120.166C213.207 117.54 210.533 121.41 209.523 116.295C208.513 111.181 212.884 105.686 214.532 104.547C214.702 105.143 214.779 105.762 214.759 106.381C219.213 102.767 224.873 100.979 230.595 101.38C230.117 102.091 229.813 102.905 229.707 103.755C229.707 103.755 239.298 105.371 241.479 110.801C240.708 110.433 239.893 110.161 239.055 109.993C240.813 112.514 241.51 115.625 240.994 118.655C240.299 123.073 239.937 127.538 239.912 132.011C240.001 134.306 233.706 138.693 229.868 134.007C226.03 129.32 218.556 126.904 218.556 126.904Z" fill="#263238"/>
<path d="M222.556 125.143C223.056 127.048 222.914 129.064 222.152 130.88C221.125 133.304 219.017 132.722 217.974 130.605C217.029 128.706 216.423 125.183 218.095 123.495C219.768 121.806 221.925 122.856 222.556 125.143Z" fill="#FF8B7B"/>
<path d="M239.168 217.433C239.168 217.433 198.089 232.332 196.886 252.039C194.655 288.343 209.498 317.083 209.498 317.083L223.105 315.629C223.105 315.629 220.681 303.945 218.879 271.06C216.609 229.731 286.751 272.029 272.304 217.433H239.168Z" fill="#2E90FA"/>
<path opacity="0.5" d="M239.168 217.433C239.168 217.433 198.089 232.332 196.886 252.039C194.655 288.343 209.498 317.083 209.498 317.083L223.105 315.629C223.105 315.629 220.681 303.945 218.879 271.06C216.609 229.731 286.751 272.029 272.304 217.433H239.168Z" fill="white"/>
<path d="M205.733 312.074C205.668 312.074 207.898 318.118 207.898 318.118L224.866 316.453L224.018 310.959L205.733 312.074Z" fill="#2E90FA"/>
<path d="M184.814 330.351H175.966L173.381 309.86H182.228L184.814 330.351Z" fill="#FF8B7B"/>
<path d="M175.902 327.442H185.598C185.773 327.44 185.943 327.498 186.08 327.607C186.217 327.716 186.312 327.869 186.349 328.04L188.111 335.902C188.162 336.094 188.168 336.296 188.128 336.491C188.088 336.687 188.003 336.87 187.88 337.027C187.757 337.183 187.599 337.309 187.419 337.395C187.239 337.48 187.041 337.522 186.842 337.518C183.36 337.461 178.318 337.267 173.914 337.275C168.791 337.275 167.814 337.558 161.794 337.566C158.158 337.566 157.148 333.906 158.667 333.526C165.584 332.007 167.797 331.837 173.769 328.145C174.399 327.714 175.138 327.47 175.902 327.442Z" fill="#263238"/>
<path opacity="0.2" d="M173.389 309.868L174.795 321.026L183.569 320.428L182.236 309.868H173.389Z" fill="black"/>
<path d="M224.988 217.433C224.988 217.433 157.681 223.404 158.409 257.211C159.16 292.375 172.298 316.09 172.298 316.09H185.436C185.436 316.09 182.948 297.845 183.392 263.23C183.521 252.864 204.481 249.438 224.939 248.226C242.618 247.175 259.166 237.1 266.034 220.754L267.448 217.433H224.988Z" fill="#2E90FA"/>
<path opacity="0.5" d="M224.988 217.433C224.988 217.433 157.681 223.404 158.409 257.211C159.16 292.375 172.298 316.09 172.298 316.09H185.436C185.436 316.09 182.948 297.845 183.392 263.23C183.521 252.864 204.481 249.438 224.939 248.226C242.618 247.175 259.166 237.1 266.034 220.754L267.448 217.433H224.988Z" fill="white"/>
<path d="M169.219 312.559C169.163 312.559 171.474 318.635 171.474 318.635L187.343 317.496L186.414 312.001L169.219 312.559Z" fill="#2E90FA"/>
<path d="M242.658 179.441L234.118 212.351C231.934 220.782 230.832 229.457 230.837 238.166V253.462C230.837 257.324 233.682 260.459 237.196 260.459H280.974C284.489 260.459 287.333 257.324 287.333 253.462V238.166C287.33 229.456 288.435 220.781 290.621 212.351L298.16 183.263C299.324 178.794 296.269 174.375 292.043 174.375H248.767C247.33 174.42 245.95 174.942 244.844 175.86C243.737 176.777 242.969 178.037 242.658 179.441Z" fill="#263238"/>
<path d="M188.207 244.525L189.638 252.686C190.397 256.976 194.17 260.459 198.073 260.459H246.739C250.642 260.459 253.203 256.976 252.443 252.686L251.013 244.525C250.149 239.637 245.858 235.677 241.414 235.677H194.728C190.252 235.677 187.351 239.637 188.207 244.525Z" fill="#263238"/>
<path d="M251.425 268.652H225.933L223.444 260.459H253.914L251.425 268.652Z" fill="#2E90FA"/>
<path d="M243.232 268.652H234.126V329.583H243.232V268.652Z" fill="#2E90FA"/>
<path opacity="0.7" d="M243.232 329.583H234.126V270.115L243.232 271.044V329.583Z" fill="white"/>
<path opacity="0.7" d="M241.01 329.583H238.837V270.591L241.01 270.817V329.583Z" fill="white"/>
<path d="M259.619 339.004H217.732C217.488 339.002 217.25 338.923 217.054 338.779C216.857 338.634 216.711 338.431 216.635 338.199C216.56 337.966 216.56 337.716 216.635 337.484C216.71 337.251 216.857 337.048 217.053 336.904L223.695 332.056C226.888 329.717 230.742 328.455 234.7 328.452H242.659C246.614 328.456 250.465 329.718 253.656 332.056L260.306 336.904C260.503 337.049 260.649 337.252 260.724 337.486C260.799 337.719 260.798 337.97 260.722 338.202C260.646 338.435 260.498 338.638 260.3 338.782C260.102 338.926 259.864 339.004 259.619 339.004Z" fill="#2E90FA"/>
</svg>
